<?xml version="1.0" encoding="UTF-8" standalone="no"?>
<svg
   xmlns:dc="http://purl.org/dc/elements/1.1/"
   xmlns:cc="http://creativecommons.org/ns#"
   xmlns:rdf="http://www.w3.org/1999/02/22-rdf-syntax-ns#"
   xmlns:svg="http://www.w3.org/2000/svg"
   xmlns="http://www.w3.org/2000/svg"
   xmlns:sodipodi="http://sodipodi.sourceforge.net/DTD/sodipodi-0.dtd"
   xmlns:inkscape="http://www.inkscape.org/namespaces/inkscape"
   version="1.1"
   width="41.9989cm"
   height="29.7002cm"
   viewBox="0 0 165350 116930 "
   id="svg2"
   inkscape:version="0.48.2 r9819"
   sodipodi:docname="CPL ADC Board rev 1-B_Paste.svg">
  <metadata
     id="metadata166">
    <rdf:RDF>
      <cc:Work
         rdf:about="">
        <dc:format>image/svg+xml</dc:format>
        <dc:type
           rdf:resource="http://purl.org/dc/dcmitype/StillImage" />
      </cc:Work>
    </rdf:RDF>
  </metadata>
  <defs
     id="defs164" />
  <sodipodi:namedview
     pagecolor="#ffffff"
     bordercolor="#666666"
     borderopacity="1"
     objecttolerance="10"
     gridtolerance="10"
     guidetolerance="10"
     inkscape:pageopacity="0"
     inkscape:pageshadow="2"
     inkscape:window-width="1440"
     inkscape:window-height="838"
     id="namedview162"
     showgrid="false"
     inkscape:zoom="2.2199394"
     inkscape:cx="841.19985"
     inkscape:cy="362.77488"
     inkscape:window-x="1912"
     inkscape:window-y="-8"
     inkscape:window-maximized="1"
     inkscape:current-layer="svg2" />
  <title
     id="title4">SVG Picture created as CPL ADC Board rev 1-B_Paste.svg date 2013/05/31 15:06:30 </title>
  <desc
     id="desc6">Picture generated by PCBNEW </desc>
  <g
     style="fill:#000000; fill-opacity:1;stroke:#000000; stroke-opacity:1; stroke-linecap:round; stroke-linejoin:round; "
     transform="translate(0 0) scale(1 1)"
     id="g8" />
  <g
     style="fill:#000000; fill-opacity:0.0;  stroke:#000000; stroke-width:60; stroke-opacity:1;  stroke-linecap:round; stroke-linejoin:round;"
     id="g10" />
  <polyline
     id="polyline14"
     points="103400,75120 103400,74180 103840,74180 103840,75120 103400,75120 "
     style="fill:none;stroke:#000000;stroke-width:39.37010574;stroke-linecap:round;stroke-linejoin:round;stroke-miterlimit:4;stroke-opacity:1;stroke-dasharray:none"
     transform="matrix(0.9,0,0,0.9,10362,7465)" />
  <polyline
     id="polyline16"
     points="104600,75120 104600,74180 105040,74180 105040,75120 104600,75120 "
     style="fill:none;stroke:#000000;stroke-width:39.37010574;stroke-linecap:round;stroke-linejoin:round;stroke-miterlimit:4;stroke-opacity:1;stroke-dasharray:none"
     transform="matrix(0.9,0,0,0.9,10482,7465)" />
  <polyline
     id="polyline18"
     points="105220,79450 104480,79450 104480,78910 105220,78910 105220,79450 "
     style="fill:none;stroke:#000000;stroke-width:39.37010574;stroke-linecap:round;stroke-linejoin:round;stroke-miterlimit:4;stroke-opacity:1;stroke-dasharray:none"
     transform="matrix(0.9,0,0,0.9,10485,7918)" />
  <polyline
     id="polyline20"
     points="105220,78150 104480,78150 104480,77610 105220,77610 105220,78150 "
     style="fill:none;stroke:#000000;stroke-width:39.37010574;stroke-linecap:round;stroke-linejoin:round;stroke-miterlimit:4;stroke-opacity:1;stroke-dasharray:none"
     transform="matrix(0.9,0,0,0.9,10485,7788)" />
  <polyline
     id="polyline22"
     points="101640,82070 101640,83210 101350,83210 101350,82070 101640,82070 "
     style="fill:none;stroke:#000000;stroke-width:39.37010574;stroke-linecap:round;stroke-linejoin:round;stroke-miterlimit:4;stroke-opacity:1;stroke-dasharray:none"
     transform="matrix(0.9,0,0,0.9,10149.5,8264)" />
  <polyline
     id="polyline24"
     points="100990,82070 100990,83210 100700,83210 100700,82070 100990,82070 "
     style="fill:none;stroke:#000000;stroke-width:39.37010574;stroke-linecap:round;stroke-linejoin:round;stroke-miterlimit:4;stroke-opacity:1;stroke-dasharray:none"
     transform="matrix(0.9,0,0,0.9,10084.5,8264)" />
  <polyline
     id="polyline26"
     points="93915,77065 93915,76815 94155,76815 94155,77065 93915,77065 "
     style="fill:none;stroke:#000000;stroke-width:39.37010574;stroke-linecap:round;stroke-linejoin:round;stroke-miterlimit:4;stroke-opacity:1;stroke-dasharray:none"
     transform="matrix(0.9,0,0,0.9,9403.5,7694)" />
  <polyline
     id="polyline28"
     points="94505,77065 94505,76815 94745,76815 94745,77065 94505,77065 "
     style="fill:none;stroke:#000000;stroke-width:39.37010574;stroke-linecap:round;stroke-linejoin:round;stroke-miterlimit:4;stroke-opacity:1;stroke-dasharray:none"
     transform="matrix(0.9,0,0,0.9,9462.5,7694)" />
  <polyline
     id="polyline30"
     points="93915,77925 93915,77675 94155,77675 94155,77925 93915,77925 "
     style="fill:none;stroke:#000000;stroke-width:39.37010574;stroke-linecap:round;stroke-linejoin:round;stroke-miterlimit:4;stroke-opacity:1;stroke-dasharray:none"
     transform="matrix(0.9,0,0,0.9,9403.5,7780)" />
  <polyline
     id="polyline32"
     points="94505,77925 94505,77675 94745,77675 94745,77925 94505,77925 "
     style="fill:none;stroke:#000000;stroke-width:39.37010574;stroke-linecap:round;stroke-linejoin:round;stroke-miterlimit:4;stroke-opacity:1;stroke-dasharray:none"
     transform="matrix(0.9,0,0,0.9,9462.5,7780)" />
  <polyline
     id="polyline34"
     points="96765,75985 96515,75985 96515,75745 96765,75745 96765,75985 "
     style="fill:none;stroke:#000000;stroke-width:39.37010574;stroke-linecap:round;stroke-linejoin:round;stroke-miterlimit:4;stroke-opacity:1;stroke-dasharray:none"
     transform="matrix(0.9,0,0,0.9,9664,7586.5)" />
  <polyline
     id="polyline36"
     points="96765,75395 96515,75395 96515,75155 96765,75155 96765,75395 "
     style="fill:none;stroke:#000000;stroke-width:39.37010574;stroke-linecap:round;stroke-linejoin:round;stroke-miterlimit:4;stroke-opacity:1;stroke-dasharray:none"
     transform="matrix(0.9,0,0,0.9,9664,7527.5)" />
  <polyline
     id="polyline38"
     points="93915,78935 93915,78685 94155,78685 94155,78935 93915,78935 "
     style="fill:none;stroke:#000000;stroke-width:39.37010574;stroke-linecap:round;stroke-linejoin:round;stroke-miterlimit:4;stroke-opacity:1;stroke-dasharray:none"
     transform="matrix(0.9,0,0,0.9,9403.5,7881)" />
  <polyline
     id="polyline40"
     points="94505,78935 94505,78685 94745,78685 94745,78935 94505,78935 "
     style="fill:none;stroke:#000000;stroke-width:39.37010574;stroke-linecap:round;stroke-linejoin:round;stroke-miterlimit:4;stroke-opacity:1;stroke-dasharray:none"
     transform="matrix(0.9,0,0,0.9,9462.5,7881)" />
  <polyline
     id="polyline42"
     points="95925,75985 95675,75985 95675,75745 95925,75745 95925,75985 "
     style="fill:none;stroke:#000000;stroke-width:39.37010574;stroke-linecap:round;stroke-linejoin:round;stroke-miterlimit:4;stroke-opacity:1;stroke-dasharray:none"
     transform="matrix(0.9,0,0,0.9,9580,7586.5)" />
  <polyline
     id="polyline44"
     points="95925,75395 95675,75395 95675,75155 95925,75155 95925,75395 "
     style="fill:none;stroke:#000000;stroke-width:39.37010574;stroke-linecap:round;stroke-linejoin:round;stroke-miterlimit:4;stroke-opacity:1;stroke-dasharray:none"
     transform="matrix(0.9,0,0,0.9,9580,7527.5)" />
  <polyline
     id="polyline46"
     points="95065,74265 95065,74515 94825,74515 94825,74265 95065,74265 "
     style="fill:none;stroke:#000000;stroke-width:39.37010574;stroke-linecap:round;stroke-linejoin:round;stroke-miterlimit:4;stroke-opacity:1;stroke-dasharray:none"
     transform="matrix(0.9,0,0,0.9,9494.5,7439)" />
  <polyline
     id="polyline48"
     points="94475,74265 94475,74515 94235,74515 94235,74265 94475,74265 "
     style="fill:none;stroke:#000000;stroke-width:39.37010574;stroke-linecap:round;stroke-linejoin:round;stroke-miterlimit:4;stroke-opacity:1;stroke-dasharray:none"
     transform="matrix(0.9,0,0,0.9,9435.5,7439)" />
  <polyline
     id="polyline50"
     points="80765,71225 80765,70975 81005,70975 81005,71225 80765,71225 "
     style="fill:none;stroke:#000000;stroke-width:39.37010574;stroke-linecap:round;stroke-linejoin:round;stroke-miterlimit:4;stroke-opacity:1;stroke-dasharray:none"
     transform="matrix(0.9,0,0,0.9,8088.5,7110)" />
  <polyline
     id="polyline52"
     points="81355,71225 81355,70975 81595,70975 81595,71225 81355,71225 "
     style="fill:none;stroke:#000000;stroke-width:39.37010574;stroke-linecap:round;stroke-linejoin:round;stroke-miterlimit:4;stroke-opacity:1;stroke-dasharray:none"
     transform="matrix(0.9,0,0,0.9,8147.5,7110)" />
  <polyline
     id="polyline54"
     points="95065,73425 95065,73675 94825,73675 94825,73425 95065,73425 "
     style="fill:none;stroke:#000000;stroke-width:39.37010574;stroke-linecap:round;stroke-linejoin:round;stroke-miterlimit:4;stroke-opacity:1;stroke-dasharray:none"
     transform="matrix(0.9,0,0,0.9,9494.5,7355)" />
  <polyline
     id="polyline56"
     points="94475,73425 94475,73675 94235,73675 94235,73425 94475,73425 "
     style="fill:none;stroke:#000000;stroke-width:39.37010574;stroke-linecap:round;stroke-linejoin:round;stroke-miterlimit:4;stroke-opacity:1;stroke-dasharray:none"
     transform="matrix(0.9,0,0,0.9,9435.5,7355)" />
  <polyline
     id="polyline58"
     points="71857,76415 71607,76415 71607,76175 71857,76175 71857,76415 "
     style="fill:none;stroke:#000000;stroke-width:39.37010574;stroke-linecap:round;stroke-linejoin:round;stroke-miterlimit:4;stroke-opacity:1;stroke-dasharray:none"
     transform="matrix(0.9,0,0,0.9,7173.2,7629.5)" />
  <polyline
     id="polyline60"
     points="71857,75825 71607,75825 71607,75585 71857,75585 71857,75825 "
     style="fill:none;stroke:#000000;stroke-width:39.37010574;stroke-linecap:round;stroke-linejoin:round;stroke-miterlimit:4;stroke-opacity:1;stroke-dasharray:none"
     transform="matrix(0.9,0,0,0.9,7173.2,7570.5)" />
  <polyline
     id="polyline62"
     points="70439,76415 70189,76415 70189,76175 70439,76175 70439,76415 "
     style="fill:none;stroke:#000000;stroke-width:39.37010574;stroke-linecap:round;stroke-linejoin:round;stroke-miterlimit:4;stroke-opacity:1;stroke-dasharray:none"
     transform="matrix(0.9,0,0,0.9,7031.4,7629.5)" />
  <polyline
     id="polyline64"
     points="70439,75825 70189,75825 70189,75585 70439,75585 70439,75825 "
     style="fill:none;stroke:#000000;stroke-width:39.37010574;stroke-linecap:round;stroke-linejoin:round;stroke-miterlimit:4;stroke-opacity:1;stroke-dasharray:none"
     transform="matrix(0.9,0,0,0.9,7031.4,7570.5)" />
  <polyline
     id="polyline66"
     points="69297,76415 69047,76415 69047,76175 69297,76175 69297,76415 "
     style="fill:none;stroke:#000000;stroke-width:39.37010574;stroke-linecap:round;stroke-linejoin:round;stroke-miterlimit:4;stroke-opacity:1;stroke-dasharray:none"
     transform="matrix(0.9,0,0,0.9,6917.2,7629.5)" />
  <polyline
     id="polyline68"
     points="69297,75825 69047,75825 69047,75585 69297,75585 69297,75825 "
     style="fill:none;stroke:#000000;stroke-width:39.37010574;stroke-linecap:round;stroke-linejoin:round;stroke-miterlimit:4;stroke-opacity:1;stroke-dasharray:none"
     transform="matrix(0.9,0,0,0.9,6917.2,7570.5)" />
  <polyline
     id="polyline70"
     points="71857,68715 71607,68715 71607,68475 71857,68475 71857,68715 "
     style="fill:none;stroke:#000000;stroke-width:39.37010574;stroke-linecap:round;stroke-linejoin:round;stroke-miterlimit:4;stroke-opacity:1;stroke-dasharray:none"
     transform="matrix(0.9,0,0,0.9,7173.2,6859.5)" />
  <polyline
     id="polyline72"
     points="71857,68125 71607,68125 71607,67885 71857,67885 71857,68125 "
     style="fill:none;stroke:#000000;stroke-width:39.37010574;stroke-linecap:round;stroke-linejoin:round;stroke-miterlimit:4;stroke-opacity:1;stroke-dasharray:none"
     transform="matrix(0.9,0,0,0.9,7173.2,6800.5)" />
  <polyline
     id="polyline74"
     points="70439,68715 70189,68715 70189,68475 70439,68475 70439,68715 "
     style="fill:none;stroke:#000000;stroke-width:39.37010574;stroke-linecap:round;stroke-linejoin:round;stroke-miterlimit:4;stroke-opacity:1;stroke-dasharray:none"
     transform="matrix(0.9,0,0,0.9,7031.4,6859.5)" />
  <polyline
     id="polyline76"
     points="70439,68125 70189,68125 70189,67885 70439,67885 70439,68125 "
     style="fill:none;stroke:#000000;stroke-width:39.37010574;stroke-linecap:round;stroke-linejoin:round;stroke-miterlimit:4;stroke-opacity:1;stroke-dasharray:none"
     transform="matrix(0.9,0,0,0.9,7031.4,6800.5)" />
  <polyline
     id="polyline78"
     points="69297,68715 69047,68715 69047,68475 69297,68475 69297,68715 "
     style="fill:none;stroke:#000000;stroke-width:39.37010574;stroke-linecap:round;stroke-linejoin:round;stroke-miterlimit:4;stroke-opacity:1;stroke-dasharray:none"
     transform="matrix(0.9,0,0,0.9,6917.2,6859.5)" />
  <polyline
     id="polyline80"
     points="69297,68125 69047,68125 69047,67885 69297,67885 69297,68125 "
     style="fill:none;stroke:#000000;stroke-width:39.37010574;stroke-linecap:round;stroke-linejoin:round;stroke-miterlimit:4;stroke-opacity:1;stroke-dasharray:none"
     transform="matrix(0.9,0,0,0.9,6917.2,6800.5)" />
  <polyline
     id="polyline82"
     points="78805,70375 78555,70375 78555,70135 78805,70135 78805,70375 "
     style="fill:none;stroke:#000000;stroke-width:39.37010574;stroke-linecap:round;stroke-linejoin:round;stroke-miterlimit:4;stroke-opacity:1;stroke-dasharray:none"
     transform="matrix(0.9,0,0,0.9,7868,7025.5)" />
  <polyline
     id="polyline84"
     points="78805,69785 78555,69785 78555,69545 78805,69545 78805,69785 "
     style="fill:none;stroke:#000000;stroke-width:39.37010574;stroke-linecap:round;stroke-linejoin:round;stroke-miterlimit:4;stroke-opacity:1;stroke-dasharray:none"
     transform="matrix(0.9,0,0,0.9,7868,6966.5)" />
  <polyline
     id="polyline86"
     points="80765,71995 80765,71745 81005,71745 81005,71995 80765,71995 "
     style="fill:none;stroke:#000000;stroke-width:39.37010574;stroke-linecap:round;stroke-linejoin:round;stroke-miterlimit:4;stroke-opacity:1;stroke-dasharray:none"
     transform="matrix(0.9,0,0,0.9,8088.5,7187)" />
  <polyline
     id="polyline88"
     points="81355,71995 81355,71745 81595,71745 81595,71995 81355,71995 "
     style="fill:none;stroke:#000000;stroke-width:39.37010574;stroke-linecap:round;stroke-linejoin:round;stroke-miterlimit:4;stroke-opacity:1;stroke-dasharray:none"
     transform="matrix(0.9,0,0,0.9,8147.5,7187)" />
  <polyline
     id="polyline90"
     points="100525,76235 100775,76235 100775,76475 100525,76475 100525,76235 "
     style="fill:none;stroke:#000000;stroke-width:39.37010574;stroke-linecap:round;stroke-linejoin:round;stroke-miterlimit:4;stroke-opacity:1;stroke-dasharray:none"
     transform="matrix(0.9,0,0,0.9,10065,7635.5)" />
  <polyline
     id="polyline92"
     points="100525,76825 100775,76825 100775,77065 100525,77065 100525,76825 "
     style="fill:none;stroke:#000000;stroke-width:39.37010574;stroke-linecap:round;stroke-linejoin:round;stroke-miterlimit:4;stroke-opacity:1;stroke-dasharray:none"
     transform="matrix(0.9,0,0,0.9,10065,7694.5)" />
  <polyline
     id="polyline94"
     points="85275,75475 85275,75725 85035,75725 85035,75475 85275,75475 "
     style="fill:none;stroke:#000000;stroke-width:39.37010574;stroke-linecap:round;stroke-linejoin:round;stroke-miterlimit:4;stroke-opacity:1;stroke-dasharray:none"
     transform="matrix(0.9,0,0,0.9,8515.5,7560)" />
  <polyline
     id="polyline96"
     points="84685,75475 84685,75725 84445,75725 84445,75475 84685,75475 "
     style="fill:none;stroke:#000000;stroke-width:39.37010574;stroke-linecap:round;stroke-linejoin:round;stroke-miterlimit:4;stroke-opacity:1;stroke-dasharray:none"
     transform="matrix(0.9,0,0,0.9,8456.5,7560)" />
  <polyline
     id="polyline98"
     points="87365,82195 87365,81945 87605,81945 87605,82195 87365,82195 "
     style="fill:none;stroke:#000000;stroke-width:39.37010574;stroke-linecap:round;stroke-linejoin:round;stroke-miterlimit:4;stroke-opacity:1;stroke-dasharray:none"
     transform="matrix(0.9,0,0,0.9,8748.5,8207)" />
  <polyline
     id="polyline100"
     points="87955,82195 87955,81945 88195,81945 88195,82195 87955,82195 "
     style="fill:none;stroke:#000000;stroke-width:39.37010574;stroke-linecap:round;stroke-linejoin:round;stroke-miterlimit:4;stroke-opacity:1;stroke-dasharray:none"
     transform="matrix(0.9,0,0,0.9,8807.5,8207)" />
  <polyline
     id="polyline102"
     points="87365,83065 87365,82815 87605,82815 87605,83065 87365,83065 "
     style="fill:none;stroke:#000000;stroke-width:39.37010574;stroke-linecap:round;stroke-linejoin:round;stroke-miterlimit:4;stroke-opacity:1;stroke-dasharray:none"
     transform="matrix(0.9,0,0,0.9,8748.5,8294)" />
  <polyline
     id="polyline104"
     points="87955,83065 87955,82815 88195,82815 88195,83065 87955,83065 "
     style="fill:none;stroke:#000000;stroke-width:39.37010574;stroke-linecap:round;stroke-linejoin:round;stroke-miterlimit:4;stroke-opacity:1;stroke-dasharray:none"
     transform="matrix(0.9,0,0,0.9,8807.5,8294)" />
  <polyline
     id="polyline106"
     points="92205,75095 92455,75095 92455,75335 92205,75335 92205,75095 "
     style="fill:none;stroke:#000000;stroke-width:39.37010574;stroke-linecap:round;stroke-linejoin:round;stroke-miterlimit:4;stroke-opacity:1;stroke-dasharray:none"
     transform="matrix(0.9,0,0,0.9,9233,7521.5)" />
  <polyline
     id="polyline108"
     points="92205,75685 92455,75685 92455,75925 92205,75925 92205,75685 "
     style="fill:none;stroke:#000000;stroke-width:39.37010574;stroke-linecap:round;stroke-linejoin:round;stroke-miterlimit:4;stroke-opacity:1;stroke-dasharray:none"
     transform="matrix(0.9,0,0,0.9,9233,7580.5)" />
  <polyline
     id="polyline110"
     points="93065,75095 93315,75095 93315,75335 93065,75335 93065,75095 "
     style="fill:none;stroke:#000000;stroke-width:39.37010574;stroke-linecap:round;stroke-linejoin:round;stroke-miterlimit:4;stroke-opacity:1;stroke-dasharray:none"
     transform="matrix(0.9,0,0,0.9,9319,7521.5)" />
  <polyline
     id="polyline112"
     points="93065,75685 93315,75685 93315,75925 93065,75925 93065,75685 "
     style="fill:none;stroke:#000000;stroke-width:39.37010574;stroke-linecap:round;stroke-linejoin:round;stroke-miterlimit:4;stroke-opacity:1;stroke-dasharray:none"
     transform="matrix(0.9,0,0,0.9,9319,7580.5)" />
  <polyline
     id="polyline114"
     points="88085,71795 88085,71545 88325,71545 88325,71795 88085,71795 "
     style="fill:none;stroke:#000000;stroke-width:39.37010574;stroke-linecap:round;stroke-linejoin:round;stroke-miterlimit:4;stroke-opacity:1;stroke-dasharray:none"
     transform="matrix(0.9,0,0,0.9,8820.5,7167)" />
  <polyline
     id="polyline116"
     points="88675,71795 88675,71545 88915,71545 88915,71795 88675,71795 "
     style="fill:none;stroke:#000000;stroke-width:39.37010574;stroke-linecap:round;stroke-linejoin:round;stroke-miterlimit:4;stroke-opacity:1;stroke-dasharray:none"
     transform="matrix(0.9,0,0,0.9,8879.5,7167)" />
  <polyline
     id="polyline118"
     points="88105,70985 88105,70735 88345,70735 88345,70985 88105,70985 "
     style="fill:none;stroke:#000000;stroke-width:39.37010574;stroke-linecap:round;stroke-linejoin:round;stroke-miterlimit:4;stroke-opacity:1;stroke-dasharray:none"
     transform="matrix(0.9,0,0,0.9,8822.5,7086)" />
  <polyline
     id="polyline120"
     points="88695,70985 88695,70735 88935,70735 88935,70985 88695,70985 "
     style="fill:none;stroke:#000000;stroke-width:39.37010574;stroke-linecap:round;stroke-linejoin:round;stroke-miterlimit:4;stroke-opacity:1;stroke-dasharray:none"
     transform="matrix(0.9,0,0,0.9,8881.5,7086)" />
  <polyline
     id="polyline122"
     points="85805,66775 85805,66525 86045,66525 86045,66775 85805,66775 "
     style="fill:none;stroke:#000000;stroke-width:39.37010574;stroke-linecap:round;stroke-linejoin:round;stroke-miterlimit:4;stroke-opacity:1;stroke-dasharray:none"
     transform="matrix(0.9,0,0,0.9,8592.5,6665)" />
  <polyline
     id="polyline124"
     points="86395,66775 86395,66525 86635,66525 86635,66775 86395,66775 "
     style="fill:none;stroke:#000000;stroke-width:39.37010574;stroke-linecap:round;stroke-linejoin:round;stroke-miterlimit:4;stroke-opacity:1;stroke-dasharray:none"
     transform="matrix(0.9,0,0,0.9,8651.5,6665)" />
  <polyline
     id="polyline126"
     points="85805,65715 85805,65465 86045,65465 86045,65715 85805,65715 "
     style="fill:none;stroke:#000000;stroke-width:39.37010574;stroke-linecap:round;stroke-linejoin:round;stroke-miterlimit:4;stroke-opacity:1;stroke-dasharray:none"
     transform="matrix(0.9,0,0,0.9,8592.5,6559)" />
  <polyline
     id="polyline128"
     points="86395,65715 86395,65465 86635,65465 86635,65715 86395,65715 "
     style="fill:none;stroke:#000000;stroke-width:39.37010574;stroke-linecap:round;stroke-linejoin:round;stroke-miterlimit:4;stroke-opacity:1;stroke-dasharray:none"
     transform="matrix(0.9,0,0,0.9,8651.5,6559)" />
  <polyline
     id="polyline130"
     points="99625,76235 99875,76235 99875,76475 99625,76475 99625,76235 "
     style="fill:none;stroke:#000000;stroke-width:39.37010574;stroke-linecap:round;stroke-linejoin:round;stroke-miterlimit:4;stroke-opacity:1;stroke-dasharray:none"
     transform="matrix(0.9,0,0,0.9,9975,7635.5)" />
  <polyline
     id="polyline132"
     points="99625,76825 99875,76825 99875,77065 99625,77065 99625,76825 "
     style="fill:none;stroke:#000000;stroke-width:39.37010574;stroke-linecap:round;stroke-linejoin:round;stroke-miterlimit:4;stroke-opacity:1;stroke-dasharray:none"
     transform="matrix(0.9,0,0,0.9,9975,7694.5)" />
  <polyline
     id="polyline134"
     points="89675,76735 89675,76485 89915,76485 89915,76735 89675,76735 "
     style="fill:none;stroke:#000000;stroke-width:39.37010574;stroke-linecap:round;stroke-linejoin:round;stroke-miterlimit:4;stroke-opacity:1;stroke-dasharray:none"
     transform="matrix(0.9,0,0,0.9,8979.5,7661)" />
  <polyline
     id="polyline136"
     points="90265,76735 90265,76485 90505,76485 90505,76735 90265,76735 "
     style="fill:none;stroke:#000000;stroke-width:39.37010574;stroke-linecap:round;stroke-linejoin:round;stroke-miterlimit:4;stroke-opacity:1;stroke-dasharray:none"
     transform="matrix(0.9,0,0,0.9,9038.5,7661)" />
  <polyline
     id="polyline138"
     points="101585,81425 101585,81675 101345,81675 101345,81425 101585,81425 "
     style="fill:none;stroke:#000000;stroke-width:39.37010574;stroke-linecap:round;stroke-linejoin:round;stroke-miterlimit:4;stroke-opacity:1;stroke-dasharray:none"
     transform="matrix(0.9,0,0,0.9,10146.5,8155)" />
  <polyline
     id="polyline140"
     points="100995,81425 100995,81675 100755,81675 100755,81425 100995,81425 "
     style="fill:none;stroke:#000000;stroke-width:39.37010574;stroke-linecap:round;stroke-linejoin:round;stroke-miterlimit:4;stroke-opacity:1;stroke-dasharray:none"
     transform="matrix(0.9,0,0,0.9,10087.5,8155)" />
  <polyline
     id="polyline142"
     points="85275,74655 85275,74905 85035,74905 85035,74655 85275,74655 "
     style="fill:none;stroke:#000000;stroke-width:39.37010574;stroke-linecap:round;stroke-linejoin:round;stroke-miterlimit:4;stroke-opacity:1;stroke-dasharray:none"
     transform="matrix(0.9,0,0,0.9,8515.5,7478)" />
  <polyline
     id="polyline144"
     points="84685,74655 84685,74905 84445,74905 84445,74655 84685,74655 "
     style="fill:none;stroke:#000000;stroke-width:39.37010574;stroke-linecap:round;stroke-linejoin:round;stroke-miterlimit:4;stroke-opacity:1;stroke-dasharray:none"
     transform="matrix(0.9,0,0,0.9,8456.5,7478)" />
  <polyline
     id="polyline146"
     points="79385,70155 79635,70155 79635,70395 79385,70395 79385,70155 "
     style="fill:none;stroke:#000000;stroke-width:39.37010574;stroke-linecap:round;stroke-linejoin:round;stroke-miterlimit:4;stroke-opacity:1;stroke-dasharray:none"
     transform="matrix(0.9,0,0,0.9,7951,7027.5)" />
  <polyline
     id="polyline148"
     points="79385,70745 79635,70745 79635,70985 79385,70985 79385,70745 "
     style="fill:none;stroke:#000000;stroke-width:39.37010574;stroke-linecap:round;stroke-linejoin:round;stroke-miterlimit:4;stroke-opacity:1;stroke-dasharray:none"
     transform="matrix(0.9,0,0,0.9,7951,7086.5)" />
  <polyline
     id="polyline150"
     points="90625,79315 90625,79565 90385,79565 90385,79315 90625,79315 "
     style="fill:none;stroke:#000000;stroke-width:39.37010574;stroke-linecap:round;stroke-linejoin:round;stroke-miterlimit:4;stroke-opacity:1;stroke-dasharray:none"
     transform="matrix(0.9,0,0,0.9,9050.5,7944)" />
  <polyline
     id="polyline152"
     points="90035,79315 90035,79565 89795,79565 89795,79315 90035,79315 "
     style="fill:none;stroke:#000000;stroke-width:39.37010574;stroke-linecap:round;stroke-linejoin:round;stroke-miterlimit:4;stroke-opacity:1;stroke-dasharray:none"
     transform="matrix(0.9,0,0,0.9,8991.5,7944)" />
  <polyline
     id="polyline154"
     points="80155,70155 80405,70155 80405,70395 80155,70395 80155,70155 "
     style="fill:none;stroke:#000000;stroke-width:39.37010574;stroke-linecap:round;stroke-linejoin:round;stroke-miterlimit:4;stroke-opacity:1;stroke-dasharray:none"
     transform="matrix(0.9,0,0,0.9,8028,7027.5)" />
  <polyline
     id="polyline156"
     points="80155,70745 80405,70745 80405,70985 80155,70985 80155,70745 "
     style="fill:none;stroke:#000000;stroke-width:39.37010574;stroke-linecap:round;stroke-linejoin:round;stroke-miterlimit:4;stroke-opacity:1;stroke-dasharray:none"
     transform="matrix(0.9,0,0,0.9,8028,7086.5)" />
  <polyline
     id="polyline158"
     points="81325,79075 81325,79905 80535,79905 80535,79075 81325,79075 "
     style="fill:none;stroke:#000000;stroke-width:39.37010574;stroke-linecap:round;stroke-linejoin:round;stroke-miterlimit:4;stroke-opacity:1;stroke-dasharray:none"
     transform="matrix(0.9,0,0,0.9,8093,7949)" />
  <polyline
     id="polyline160"
     points="79405,79075 79405,79905 78615,79905 78615,79075 79405,79075 "
     style="fill:none;stroke:#000000;stroke-width:39.37010574;stroke-linecap:round;stroke-linejoin:round;stroke-miterlimit:4;stroke-opacity:1;stroke-dasharray:none"
     transform="matrix(0.9,0,0,0.9,7901,7949)" />
</svg>
