  0
SECTION
  2
HEADER
  9
$ANGBASE
  50
0.0
  9
$ANGDIR
  70
  1
  9
$MEASUREMENT
  70
0
  0
ENDSEC
  0
SECTION
  2
TABLES
  0
TABLE
  2
LTYPE
  70
1
  0
LTYPE
  2
CONTINUOUS
  70
0
  3
Solid line
  72
65
  73
0
  40
0.0
  0
ENDTAB
  0
TABLE
  2
STYLE
  70
4
  0
STYLE
  2
KICAD
  70
0
  40
0
  41
1
  42
1
  50
0
  71
0
  3
isocp.shx
  0
STYLE
  2
KICADB
  70
0
  40
0
  41
1
  42
1
  50
0
  71
0
  3
isocp.shx
  0
STYLE
  2
KICADI
  70
0
  40
0
  41
1
  42
1
  50
15
  71
0
  3
isocp.shx
  0
STYLE
  2
KICADBI
  70
0
  40
0
  41
1
  42
1
  50
15
  71
0
  3
isocp.shx
  0
ENDTAB
  0
TABLE
  2
LAYER
  70
24
  0
LAYER
  2
BLACK
  70
0
  62
250
  6
CONTINUOUS
  0
LAYER
  2
BLUE
  70
0
  62
5
  6
CONTINUOUS
  0
LAYER
  2
GREEN
  70
0
  62
3
  6
CONTINUOUS
  0
LAYER
  2
CYAN
  70
0
  62
4
  6
CONTINUOUS
  0
LAYER
  2
RED
  70
0
  62
1
  6
CONTINUOUS
  0
LAYER
  2
MAGENTA
  70
0
  62
6
  6
CONTINUOUS
  0
LAYER
  2
BROWN
  70
0
  62
54
  6
CONTINUOUS
  0
LAYER
  2
LIGHTGRAY
  70
0
  62
9
  6
CONTINUOUS
  0
LAYER
  2
DARKGRAY
  70
0
  62
8
  6
CONTINUOUS
  0
LAYER
  2
LIGHTBLUE
  70
0
  62
171
  6
CONTINUOUS
  0
LAYER
  2
LIGHTGREEN
  70
0
  62
91
  6
CONTINUOUS
  0
LAYER
  2
LIGHTCYAN
  70
0
  62
131
  6
CONTINUOUS
  0
LAYER
  2
LIGHTRED
  70
0
  62
11
  6
CONTINUOUS
  0
LAYER
  2
LIGHTMAGENTA
  70
0
  62
221
  6
CONTINUOUS
  0
LAYER
  2
YELLOW
  70
0
  62
2
  6
CONTINUOUS
  0
LAYER
  2
WHITE
  70
0
  62
7
  6
CONTINUOUS
  0
LAYER
  2
DARKDARKGRAY
  70
0
  62
251
  6
CONTINUOUS
  0
LAYER
  2
DARKBLUE
  70
0
  62
178
  6
CONTINUOUS
  0
LAYER
  2
DARKGREEN
  70
0
  62
98
  6
CONTINUOUS
  0
LAYER
  2
DARKCYAN
  70
0
  62
138
  6
CONTINUOUS
  0
LAYER
  2
DARKRED
  70
0
  62
18
  6
CONTINUOUS
  0
LAYER
  2
DARKMAGENTA
  70
0
  62
228
  6
CONTINUOUS
  0
LAYER
  2
DARKBROWN
  70
0
  62
58
  6
CONTINUOUS
  0
LAYER
  2
LIGHTYELLOW
  70
0
  62
51
  6
CONTINUOUS
  0
ENDTAB
  0
ENDSEC
  0
SECTION
  2
ENTITIES
0
LINE
8
BLACK
10
202.388
20
-177.844
11
202.388
21
-176.628
0
LINE
8
BLACK
10
202.388
20
-176.628
11
202.223
21
-176.628
0
LINE
8
BLACK
10
202.223
20
-176.628
11
202.223
21
-177.844
0
LINE
8
BLACK
10
202.223
20
-177.844
11
202.388
21
-177.844
0
LINE
8
BLACK
10
201.738
20
-177.844
11
201.738
21
-176.628
0
LINE
8
BLACK
10
201.738
20
-176.628
11
201.573
21
-176.628
0
LINE
8
BLACK
10
201.573
20
-176.628
11
201.573
21
-177.844
0
LINE
8
BLACK
10
201.573
20
-177.844
11
201.738
21
-177.844
0
LINE
8
BLACK
10
201.088
20
-177.844
11
201.088
21
-176.628
0
LINE
8
BLACK
10
201.088
20
-176.628
11
200.923
21
-176.628
0
LINE
8
BLACK
10
200.923
20
-176.628
11
200.923
21
-177.844
0
LINE
8
BLACK
10
200.923
20
-177.844
11
201.088
21
-177.844
0
LINE
8
BLACK
10
200.438
20
-177.844
11
200.438
21
-176.628
0
LINE
8
BLACK
10
200.438
20
-176.628
11
200.273
21
-176.628
0
LINE
8
BLACK
10
200.273
20
-176.628
11
200.273
21
-177.844
0
LINE
8
BLACK
10
200.273
20
-177.844
11
200.438
21
-177.844
0
LINE
8
BLACK
10
204.329
20
-183.438
11
204.329
21
-182.221
0
LINE
8
BLACK
10
204.329
20
-182.221
11
204.164
21
-182.221
0
LINE
8
BLACK
10
204.164
20
-182.221
11
204.164
21
-183.438
0
LINE
8
BLACK
10
204.164
20
-183.438
11
204.329
21
-183.438
0
LINE
8
BLACK
10
204.339
20
-177.844
11
204.339
21
-176.628
0
LINE
8
BLACK
10
204.339
20
-176.628
11
204.174
21
-176.628
0
LINE
8
BLACK
10
204.174
20
-176.628
11
204.174
21
-177.844
0
LINE
8
BLACK
10
204.174
20
-177.844
11
204.339
21
-177.844
0
LINE
8
BLACK
10
203.689
20
-177.844
11
203.689
21
-176.628
0
LINE
8
BLACK
10
203.689
20
-176.628
11
203.524
21
-176.628
0
LINE
8
BLACK
10
203.524
20
-176.628
11
203.524
21
-177.844
0
LINE
8
BLACK
10
203.524
20
-177.844
11
203.689
21
-177.844
0
LINE
8
BLACK
10
203.039
20
-177.844
11
203.039
21
-176.628
0
LINE
8
BLACK
10
203.039
20
-176.628
11
202.874
21
-176.628
0
LINE
8
BLACK
10
202.874
20
-176.628
11
202.874
21
-177.844
0
LINE
8
BLACK
10
202.874
20
-177.844
11
203.039
21
-177.844
0
LINE
8
BLACK
10
199.788
20
-183.443
11
199.788
21
-182.226
0
LINE
8
BLACK
10
199.788
20
-182.226
11
199.622
21
-182.226
0
LINE
8
BLACK
10
199.622
20
-182.226
11
199.622
21
-183.443
0
LINE
8
BLACK
10
199.622
20
-183.443
11
199.788
21
-183.443
0
LINE
8
BLACK
10
200.438
20
-183.443
11
200.438
21
-182.226
0
LINE
8
BLACK
10
200.438
20
-182.226
11
200.273
21
-182.226
0
LINE
8
BLACK
10
200.273
20
-182.226
11
200.273
21
-183.443
0
LINE
8
BLACK
10
200.273
20
-183.443
11
200.438
21
-183.443
0
LINE
8
BLACK
10
201.088
20
-183.443
11
201.088
21
-182.226
0
LINE
8
BLACK
10
201.088
20
-182.226
11
200.923
21
-182.226
0
LINE
8
BLACK
10
200.923
20
-182.226
11
200.923
21
-183.443
0
LINE
8
BLACK
10
200.923
20
-183.443
11
201.088
21
-183.443
0
LINE
8
BLACK
10
201.738
20
-183.443
11
201.738
21
-182.226
0
LINE
8
BLACK
10
201.738
20
-182.226
11
201.573
21
-182.226
0
LINE
8
BLACK
10
201.573
20
-182.226
11
201.573
21
-183.443
0
LINE
8
BLACK
10
201.573
20
-183.443
11
201.738
21
-183.443
0
LINE
8
BLACK
10
202.388
20
-183.443
11
202.388
21
-182.226
0
LINE
8
BLACK
10
202.388
20
-182.226
11
202.223
21
-182.226
0
LINE
8
BLACK
10
202.223
20
-182.226
11
202.223
21
-183.443
0
LINE
8
BLACK
10
202.223
20
-183.443
11
202.388
21
-183.443
0
LINE
8
BLACK
10
203.039
20
-183.443
11
203.039
21
-182.226
0
LINE
8
BLACK
10
203.039
20
-182.226
11
202.874
21
-182.226
0
LINE
8
BLACK
10
202.874
20
-182.226
11
202.874
21
-183.443
0
LINE
8
BLACK
10
202.874
20
-183.443
11
203.039
21
-183.443
0
LINE
8
BLACK
10
199.788
20
-177.844
11
199.788
21
-176.628
0
LINE
8
BLACK
10
199.788
20
-176.628
11
199.622
21
-176.628
0
LINE
8
BLACK
10
199.622
20
-176.628
11
199.622
21
-177.844
0
LINE
8
BLACK
10
199.622
20
-177.844
11
199.788
21
-177.844
0
LINE
8
BLACK
10
203.689
20
-183.438
11
203.689
21
-182.221
0
LINE
8
BLACK
10
203.689
20
-182.221
11
203.524
21
-182.221
0
LINE
8
BLACK
10
203.524
20
-182.221
11
203.524
21
-183.438
0
LINE
8
BLACK
10
203.524
20
-183.438
11
203.689
21
-183.438
0
LINE
8
BLACK
10
204.989
20
-177.844
11
204.989
21
-176.628
0
LINE
8
BLACK
10
204.989
20
-176.628
11
204.824
21
-176.628
0
LINE
8
BLACK
10
204.824
20
-176.628
11
204.824
21
-177.844
0
LINE
8
BLACK
10
204.824
20
-177.844
11
204.989
21
-177.844
0
LINE
8
BLACK
10
199.137
20
-177.844
11
199.137
21
-176.628
0
LINE
8
BLACK
10
199.137
20
-176.628
11
198.972
21
-176.628
0
LINE
8
BLACK
10
198.972
20
-176.628
11
198.972
21
-177.844
0
LINE
8
BLACK
10
198.972
20
-177.844
11
199.137
21
-177.844
0
LINE
8
BLACK
10
199.137
20
-183.443
11
199.137
21
-182.226
0
LINE
8
BLACK
10
199.137
20
-182.226
11
198.972
21
-182.226
0
LINE
8
BLACK
10
198.972
20
-182.226
11
198.972
21
-183.443
0
LINE
8
BLACK
10
198.972
20
-183.443
11
199.137
21
-183.443
0
LINE
8
BLACK
10
204.989
20
-183.443
11
204.989
21
-182.226
0
LINE
8
BLACK
10
204.989
20
-182.226
11
204.824
21
-182.226
0
LINE
8
BLACK
10
204.824
20
-182.226
11
204.824
21
-183.443
0
LINE
8
BLACK
10
204.824
20
-183.443
11
204.989
21
-183.443
0
LINE
8
BLACK
10
205.637
20
-177.844
11
205.637
21
-176.628
0
LINE
8
BLACK
10
205.637
20
-176.628
11
205.472
21
-176.628
0
LINE
8
BLACK
10
205.472
20
-176.628
11
205.472
21
-177.844
0
LINE
8
BLACK
10
205.472
20
-177.844
11
205.637
21
-177.844
0
LINE
8
BLACK
10
198.49
20
-177.844
11
198.49
21
-176.628
0
LINE
8
BLACK
10
198.49
20
-176.628
11
198.324
21
-176.628
0
LINE
8
BLACK
10
198.324
20
-176.628
11
198.324
21
-177.844
0
LINE
8
BLACK
10
198.324
20
-177.844
11
198.49
21
-177.844
0
LINE
8
BLACK
10
198.49
20
-183.443
11
198.49
21
-182.226
0
LINE
8
BLACK
10
198.49
20
-182.226
11
198.324
21
-182.226
0
LINE
8
BLACK
10
198.324
20
-182.226
11
198.324
21
-183.443
0
LINE
8
BLACK
10
198.324
20
-183.443
11
198.49
21
-183.443
0
LINE
8
BLACK
10
205.637
20
-183.443
11
205.637
21
-182.226
0
LINE
8
BLACK
10
205.637
20
-182.226
11
205.472
21
-182.226
0
LINE
8
BLACK
10
205.472
20
-182.226
11
205.472
21
-183.443
0
LINE
8
BLACK
10
205.472
20
-183.443
11
205.637
21
-183.443
0
LINE
8
BLACK
10
206.287
20
-177.844
11
206.287
21
-176.628
0
LINE
8
BLACK
10
206.287
20
-176.628
11
206.122
21
-176.628
0
LINE
8
BLACK
10
206.122
20
-176.628
11
206.122
21
-177.844
0
LINE
8
BLACK
10
206.122
20
-177.844
11
206.287
21
-177.844
0
LINE
8
BLACK
10
197.839
20
-177.844
11
197.839
21
-176.628
0
LINE
8
BLACK
10
197.839
20
-176.628
11
197.674
21
-176.628
0
LINE
8
BLACK
10
197.674
20
-176.628
11
197.674
21
-177.844
0
LINE
8
BLACK
10
197.674
20
-177.844
11
197.839
21
-177.844
0
LINE
8
BLACK
10
197.839
20
-183.443
11
197.839
21
-182.226
0
LINE
8
BLACK
10
197.839
20
-182.226
11
197.674
21
-182.226
0
LINE
8
BLACK
10
197.674
20
-182.226
11
197.674
21
-183.443
0
LINE
8
BLACK
10
197.674
20
-183.443
11
197.839
21
-183.443
0
LINE
8
BLACK
10
206.287
20
-183.443
11
206.287
21
-182.226
0
LINE
8
BLACK
10
206.287
20
-182.226
11
206.122
21
-182.226
0
LINE
8
BLACK
10
206.122
20
-182.226
11
206.122
21
-183.443
0
LINE
8
BLACK
10
206.122
20
-183.443
11
206.287
21
-183.443
0
LINE
8
BLACK
10
233.655
20
-192.278
11
234.925
21
-192.278
0
LINE
8
BLACK
10
234.925
20
-192.278
11
234.925
21
-192.126
0
LINE
8
BLACK
10
234.925
20
-192.126
11
233.655
21
-192.126
0
LINE
8
BLACK
10
233.655
20
-192.126
11
233.655
21
-192.278
0
LINE
8
BLACK
10
233.655
20
-193.078
11
234.925
21
-193.078
0
LINE
8
BLACK
10
234.925
20
-193.078
11
234.925
21
-192.926
0
LINE
8
BLACK
10
234.925
20
-192.926
11
233.655
21
-192.926
0
LINE
8
BLACK
10
233.655
20
-192.926
11
233.655
21
-193.078
0
LINE
8
BLACK
10
233.655
20
-193.878
11
234.925
21
-193.878
0
LINE
8
BLACK
10
234.925
20
-193.878
11
234.925
21
-193.726
0
LINE
8
BLACK
10
234.925
20
-193.726
11
233.655
21
-193.726
0
LINE
8
BLACK
10
233.655
20
-193.726
11
233.655
21
-193.878
0
LINE
8
BLACK
10
233.655
20
-194.678
11
234.925
21
-194.678
0
LINE
8
BLACK
10
234.925
20
-194.678
11
234.925
21
-194.526
0
LINE
8
BLACK
10
234.925
20
-194.526
11
233.655
21
-194.526
0
LINE
8
BLACK
10
233.655
20
-194.526
11
233.655
21
-194.678
0
LINE
8
BLACK
10
233.655
20
-195.478
11
234.925
21
-195.478
0
LINE
8
BLACK
10
234.925
20
-195.478
11
234.925
21
-195.326
0
LINE
8
BLACK
10
234.925
20
-195.326
11
233.655
21
-195.326
0
LINE
8
BLACK
10
233.655
20
-195.326
11
233.655
21
-195.478
0
LINE
8
BLACK
10
233.655
20
-196.279
11
234.925
21
-196.279
0
LINE
8
BLACK
10
234.925
20
-196.279
11
234.925
21
-196.126
0
LINE
8
BLACK
10
234.925
20
-196.126
11
233.655
21
-196.126
0
LINE
8
BLACK
10
233.655
20
-196.126
11
233.655
21
-196.279
0
LINE
8
BLACK
10
233.655
20
-191.478
11
234.925
21
-191.478
0
LINE
8
BLACK
10
234.925
20
-191.478
11
234.925
21
-191.326
0
LINE
8
BLACK
10
234.925
20
-191.326
11
233.655
21
-191.326
0
LINE
8
BLACK
10
233.655
20
-191.326
11
233.655
21
-191.478
0
LINE
8
BLACK
10
233.655
20
-190.678
11
234.925
21
-190.678
0
LINE
8
BLACK
10
234.925
20
-190.678
11
234.925
21
-190.525
0
LINE
8
BLACK
10
234.925
20
-190.525
11
233.655
21
-190.525
0
LINE
8
BLACK
10
233.655
20
-190.525
11
233.655
21
-190.678
0
LINE
8
BLACK
10
233.655
20
-189.878
11
234.925
21
-189.878
0
LINE
8
BLACK
10
234.925
20
-189.878
11
234.925
21
-189.725
0
LINE
8
BLACK
10
234.925
20
-189.725
11
233.655
21
-189.725
0
LINE
8
BLACK
10
233.655
20
-189.725
11
233.655
21
-189.878
0
LINE
8
BLACK
10
233.655
20
-189.078
11
234.925
21
-189.078
0
LINE
8
BLACK
10
234.925
20
-189.078
11
234.925
21
-188.925
0
LINE
8
BLACK
10
234.925
20
-188.925
11
233.655
21
-188.925
0
LINE
8
BLACK
10
233.655
20
-188.925
11
233.655
21
-189.078
0
LINE
8
BLACK
10
233.655
20
-188.278
11
234.925
21
-188.278
0
LINE
8
BLACK
10
234.925
20
-188.278
11
234.925
21
-188.125
0
LINE
8
BLACK
10
234.925
20
-188.125
11
233.655
21
-188.125
0
LINE
8
BLACK
10
233.655
20
-188.125
11
233.655
21
-188.278
0
LINE
8
BLACK
10
245.085
20
-192.278
11
246.355
21
-192.278
0
LINE
8
BLACK
10
246.355
20
-192.278
11
246.355
21
-192.126
0
LINE
8
BLACK
10
246.355
20
-192.126
11
245.085
21
-192.126
0
LINE
8
BLACK
10
245.085
20
-192.126
11
245.085
21
-192.278
0
LINE
8
BLACK
10
245.085
20
-193.078
11
246.355
21
-193.078
0
LINE
8
BLACK
10
246.355
20
-193.078
11
246.355
21
-192.926
0
LINE
8
BLACK
10
246.355
20
-192.926
11
245.085
21
-192.926
0
LINE
8
BLACK
10
245.085
20
-192.926
11
245.085
21
-193.078
0
LINE
8
BLACK
10
245.085
20
-193.878
11
246.355
21
-193.878
0
LINE
8
BLACK
10
246.355
20
-193.878
11
246.355
21
-193.726
0
LINE
8
BLACK
10
246.355
20
-193.726
11
245.085
21
-193.726
0
LINE
8
BLACK
10
245.085
20
-193.726
11
245.085
21
-193.878
0
LINE
8
BLACK
10
245.085
20
-194.678
11
246.355
21
-194.678
0
LINE
8
BLACK
10
246.355
20
-194.678
11
246.355
21
-194.526
0
LINE
8
BLACK
10
246.355
20
-194.526
11
245.085
21
-194.526
0
LINE
8
BLACK
10
245.085
20
-194.526
11
245.085
21
-194.678
0
LINE
8
BLACK
10
245.085
20
-195.478
11
246.355
21
-195.478
0
LINE
8
BLACK
10
246.355
20
-195.478
11
246.355
21
-195.326
0
LINE
8
BLACK
10
246.355
20
-195.326
11
245.085
21
-195.326
0
LINE
8
BLACK
10
245.085
20
-195.326
11
245.085
21
-195.478
0
LINE
8
BLACK
10
245.085
20
-196.279
11
246.355
21
-196.279
0
LINE
8
BLACK
10
246.355
20
-196.279
11
246.355
21
-196.126
0
LINE
8
BLACK
10
246.355
20
-196.126
11
245.085
21
-196.126
0
LINE
8
BLACK
10
245.085
20
-196.126
11
245.085
21
-196.279
0
LINE
8
BLACK
10
245.085
20
-191.478
11
246.355
21
-191.478
0
LINE
8
BLACK
10
246.355
20
-191.478
11
246.355
21
-191.326
0
LINE
8
BLACK
10
246.355
20
-191.326
11
245.085
21
-191.326
0
LINE
8
BLACK
10
245.085
20
-191.326
11
245.085
21
-191.478
0
LINE
8
BLACK
10
245.085
20
-190.678
11
246.355
21
-190.678
0
LINE
8
BLACK
10
246.355
20
-190.678
11
246.355
21
-190.525
0
LINE
8
BLACK
10
246.355
20
-190.525
11
245.085
21
-190.525
0
LINE
8
BLACK
10
245.085
20
-190.525
11
245.085
21
-190.678
0
LINE
8
BLACK
10
245.085
20
-189.878
11
246.355
21
-189.878
0
LINE
8
BLACK
10
246.355
20
-189.878
11
246.355
21
-189.725
0
LINE
8
BLACK
10
246.355
20
-189.725
11
245.085
21
-189.725
0
LINE
8
BLACK
10
245.085
20
-189.725
11
245.085
21
-189.878
0
LINE
8
BLACK
10
245.085
20
-189.078
11
246.355
21
-189.078
0
LINE
8
BLACK
10
246.355
20
-189.078
11
246.355
21
-188.925
0
LINE
8
BLACK
10
246.355
20
-188.925
11
245.085
21
-188.925
0
LINE
8
BLACK
10
245.085
20
-188.925
11
245.085
21
-189.078
0
LINE
8
BLACK
10
245.085
20
-188.278
11
246.355
21
-188.278
0
LINE
8
BLACK
10
246.355
20
-188.278
11
246.355
21
-188.125
0
LINE
8
BLACK
10
246.355
20
-188.125
11
245.085
21
-188.125
0
LINE
8
BLACK
10
245.085
20
-188.125
11
245.085
21
-188.278
0
LINE
8
BLACK
10
239.928
20
-198.552
11
240.081
21
-198.552
0
LINE
8
BLACK
10
240.081
20
-198.552
11
240.081
21
-197.282
0
LINE
8
BLACK
10
240.081
20
-197.282
11
239.928
21
-197.282
0
LINE
8
BLACK
10
239.928
20
-197.282
11
239.928
21
-198.552
0
LINE
8
BLACK
10
239.928
20
-187.122
11
240.081
21
-187.122
0
LINE
8
BLACK
10
240.081
20
-187.122
11
240.081
21
-185.852
0
LINE
8
BLACK
10
240.081
20
-185.852
11
239.928
21
-185.852
0
LINE
8
BLACK
10
239.928
20
-185.852
11
239.928
21
-187.122
0
LINE
8
BLACK
10
240.729
20
-198.552
11
240.881
21
-198.552
0
LINE
8
BLACK
10
240.881
20
-198.552
11
240.881
21
-197.282
0
LINE
8
BLACK
10
240.881
20
-197.282
11
240.729
21
-197.282
0
LINE
8
BLACK
10
240.729
20
-197.282
11
240.729
21
-198.552
0
LINE
8
BLACK
10
240.729
20
-187.122
11
240.881
21
-187.122
0
LINE
8
BLACK
10
240.881
20
-187.122
11
240.881
21
-185.852
0
LINE
8
BLACK
10
240.881
20
-185.852
11
240.729
21
-185.852
0
LINE
8
BLACK
10
240.729
20
-185.852
11
240.729
21
-187.122
0
LINE
8
BLACK
10
241.529
20
-187.122
11
241.681
21
-187.122
0
LINE
8
BLACK
10
241.681
20
-187.122
11
241.681
21
-185.852
0
LINE
8
BLACK
10
241.681
20
-185.852
11
241.529
21
-185.852
0
LINE
8
BLACK
10
241.529
20
-185.852
11
241.529
21
-187.122
0
LINE
8
BLACK
10
241.529
20
-198.552
11
241.681
21
-198.552
0
LINE
8
BLACK
10
241.681
20
-198.552
11
241.681
21
-197.282
0
LINE
8
BLACK
10
241.681
20
-197.282
11
241.529
21
-197.282
0
LINE
8
BLACK
10
241.529
20
-197.282
11
241.529
21
-198.552
0
LINE
8
BLACK
10
242.329
20
-198.552
11
242.481
21
-198.552
0
LINE
8
BLACK
10
242.481
20
-198.552
11
242.481
21
-197.282
0
LINE
8
BLACK
10
242.481
20
-197.282
11
242.329
21
-197.282
0
LINE
8
BLACK
10
242.329
20
-197.282
11
242.329
21
-198.552
0
LINE
8
BLACK
10
242.329
20
-187.122
11
242.481
21
-187.122
0
LINE
8
BLACK
10
242.481
20
-187.122
11
242.481
21
-185.852
0
LINE
8
BLACK
10
242.481
20
-185.852
11
242.329
21
-185.852
0
LINE
8
BLACK
10
242.329
20
-185.852
11
242.329
21
-187.122
0
LINE
8
BLACK
10
243.129
20
-187.122
11
243.281
21
-187.122
0
LINE
8
BLACK
10
243.281
20
-187.122
11
243.281
21
-185.852
0
LINE
8
BLACK
10
243.281
20
-185.852
11
243.129
21
-185.852
0
LINE
8
BLACK
10
243.129
20
-185.852
11
243.129
21
-187.122
0
LINE
8
BLACK
10
243.129
20
-198.552
11
243.281
21
-198.552
0
LINE
8
BLACK
10
243.281
20
-198.552
11
243.281
21
-197.282
0
LINE
8
BLACK
10
243.281
20
-197.282
11
243.129
21
-197.282
0
LINE
8
BLACK
10
243.129
20
-197.282
11
243.129
21
-198.552
0
LINE
8
BLACK
10
243.929
20
-198.552
11
244.081
21
-198.552
0
LINE
8
BLACK
10
244.081
20
-198.552
11
244.081
21
-197.282
0
LINE
8
BLACK
10
244.081
20
-197.282
11
243.929
21
-197.282
0
LINE
8
BLACK
10
243.929
20
-197.282
11
243.929
21
-198.552
0
LINE
8
BLACK
10
243.929
20
-187.122
11
244.081
21
-187.122
0
LINE
8
BLACK
10
244.081
20
-187.122
11
244.081
21
-185.852
0
LINE
8
BLACK
10
244.081
20
-185.852
11
243.929
21
-185.852
0
LINE
8
BLACK
10
243.929
20
-185.852
11
243.929
21
-187.122
0
LINE
8
BLACK
10
239.128
20
-187.122
11
239.281
21
-187.122
0
LINE
8
BLACK
10
239.281
20
-187.122
11
239.281
21
-185.852
0
LINE
8
BLACK
10
239.281
20
-185.852
11
239.128
21
-185.852
0
LINE
8
BLACK
10
239.128
20
-185.852
11
239.128
21
-187.122
0
LINE
8
BLACK
10
239.128
20
-198.552
11
239.281
21
-198.552
0
LINE
8
BLACK
10
239.281
20
-198.552
11
239.281
21
-197.282
0
LINE
8
BLACK
10
239.281
20
-197.282
11
239.128
21
-197.282
0
LINE
8
BLACK
10
239.128
20
-197.282
11
239.128
21
-198.552
0
LINE
8
BLACK
10
238.328
20
-198.552
11
238.481
21
-198.552
0
LINE
8
BLACK
10
238.481
20
-198.552
11
238.481
21
-197.282
0
LINE
8
BLACK
10
238.481
20
-197.282
11
238.328
21
-197.282
0
LINE
8
BLACK
10
238.328
20
-197.282
11
238.328
21
-198.552
0
LINE
8
BLACK
10
238.328
20
-187.122
11
238.481
21
-187.122
0
LINE
8
BLACK
10
238.481
20
-187.122
11
238.481
21
-185.852
0
LINE
8
BLACK
10
238.481
20
-185.852
11
238.328
21
-185.852
0
LINE
8
BLACK
10
238.328
20
-185.852
11
238.328
21
-187.122
0
LINE
8
BLACK
10
237.528
20
-187.122
11
237.681
21
-187.122
0
LINE
8
BLACK
10
237.681
20
-187.122
11
237.681
21
-185.852
0
LINE
8
BLACK
10
237.681
20
-185.852
11
237.528
21
-185.852
0
LINE
8
BLACK
10
237.528
20
-185.852
11
237.528
21
-187.122
0
LINE
8
BLACK
10
237.528
20
-198.552
11
237.681
21
-198.552
0
LINE
8
BLACK
10
237.681
20
-198.552
11
237.681
21
-197.282
0
LINE
8
BLACK
10
237.681
20
-197.282
11
237.528
21
-197.282
0
LINE
8
BLACK
10
237.528
20
-197.282
11
237.528
21
-198.552
0
LINE
8
BLACK
10
236.728
20
-198.552
11
236.88
21
-198.552
0
LINE
8
BLACK
10
236.88
20
-198.552
11
236.88
21
-197.282
0
LINE
8
BLACK
10
236.88
20
-197.282
11
236.728
21
-197.282
0
LINE
8
BLACK
10
236.728
20
-197.282
11
236.728
21
-198.552
0
LINE
8
BLACK
10
236.728
20
-187.122
11
236.88
21
-187.122
0
LINE
8
BLACK
10
236.88
20
-187.122
11
236.88
21
-185.852
0
LINE
8
BLACK
10
236.88
20
-185.852
11
236.728
21
-185.852
0
LINE
8
BLACK
10
236.728
20
-185.852
11
236.728
21
-187.122
0
LINE
8
BLACK
10
235.928
20
-187.122
11
236.08
21
-187.122
0
LINE
8
BLACK
10
236.08
20
-187.122
11
236.08
21
-185.852
0
LINE
8
BLACK
10
236.08
20
-185.852
11
235.928
21
-185.852
0
LINE
8
BLACK
10
235.928
20
-185.852
11
235.928
21
-187.122
0
LINE
8
BLACK
10
235.928
20
-198.552
11
236.08
21
-198.552
0
LINE
8
BLACK
10
236.08
20
-198.552
11
236.08
21
-197.282
0
LINE
8
BLACK
10
236.08
20
-197.282
11
235.928
21
-197.282
0
LINE
8
BLACK
10
235.928
20
-197.282
11
235.928
21
-198.552
0
LINE
8
BLACK
10
218.983
20
-168.592
11
219.519
21
-168.592
0
LINE
8
BLACK
10
219.519
20
-168.592
11
219.519
21
-168.547
0
LINE
8
BLACK
10
219.519
20
-168.547
11
218.983
21
-168.547
0
LINE
8
BLACK
10
218.983
20
-168.547
11
218.983
21
-168.592
0
LINE
8
BLACK
10
218.983
20
-167.942
11
219.519
21
-167.942
0
LINE
8
BLACK
10
219.519
20
-167.942
11
219.519
21
-167.897
0
LINE
8
BLACK
10
219.519
20
-167.897
11
218.983
21
-167.897
0
LINE
8
BLACK
10
218.983
20
-167.897
11
218.983
21
-167.942
0
LINE
8
BLACK
10
218.983
20
-167.292
11
219.519
21
-167.292
0
LINE
8
BLACK
10
219.519
20
-167.292
11
219.519
21
-167.247
0
LINE
8
BLACK
10
219.519
20
-167.247
11
218.983
21
-167.247
0
LINE
8
BLACK
10
218.983
20
-167.247
11
218.983
21
-167.292
0
LINE
8
BLACK
10
220.663
20
-167.292
11
221.199
21
-167.292
0
LINE
8
BLACK
10
221.199
20
-167.292
11
221.199
21
-167.247
0
LINE
8
BLACK
10
221.199
20
-167.247
11
220.663
21
-167.247
0
LINE
8
BLACK
10
220.663
20
-167.247
11
220.663
21
-167.292
0
LINE
8
BLACK
10
220.663
20
-167.942
11
221.199
21
-167.942
0
LINE
8
BLACK
10
221.199
20
-167.942
11
221.199
21
-167.897
0
LINE
8
BLACK
10
221.199
20
-167.897
11
220.663
21
-167.897
0
LINE
8
BLACK
10
220.663
20
-167.897
11
220.663
21
-167.942
0
LINE
8
BLACK
10
220.663
20
-168.592
11
221.199
21
-168.592
0
LINE
8
BLACK
10
221.199
20
-168.592
11
221.199
21
-168.547
0
LINE
8
BLACK
10
221.199
20
-168.547
11
220.663
21
-168.547
0
LINE
8
BLACK
10
220.663
20
-168.547
11
220.663
21
-168.592
0
LINE
8
BLACK
10
215.814
20
-190.259
11
215.278
21
-190.259
0
LINE
8
BLACK
10
215.278
20
-190.259
11
215.278
21
-190.305
0
LINE
8
BLACK
10
215.278
20
-190.305
11
215.814
21
-190.305
0
LINE
8
BLACK
10
215.814
20
-190.305
11
215.814
21
-190.259
0
LINE
8
BLACK
10
215.814
20
-190.909
11
215.278
21
-190.909
0
LINE
8
BLACK
10
215.278
20
-190.909
11
215.278
21
-190.955
0
LINE
8
BLACK
10
215.278
20
-190.955
11
215.814
21
-190.955
0
LINE
8
BLACK
10
215.814
20
-190.955
11
215.814
21
-190.909
0
LINE
8
BLACK
10
215.814
20
-191.559
11
215.278
21
-191.559
0
LINE
8
BLACK
10
215.278
20
-191.559
11
215.278
21
-191.605
0
LINE
8
BLACK
10
215.278
20
-191.605
11
215.814
21
-191.605
0
LINE
8
BLACK
10
215.814
20
-191.605
11
215.814
21
-191.559
0
LINE
8
BLACK
10
214.134
20
-191.559
11
213.598
21
-191.559
0
LINE
8
BLACK
10
213.598
20
-191.559
11
213.598
21
-191.605
0
LINE
8
BLACK
10
213.598
20
-191.605
11
214.134
21
-191.605
0
LINE
8
BLACK
10
214.134
20
-191.605
11
214.134
21
-191.559
0
LINE
8
BLACK
10
214.134
20
-190.909
11
213.598
21
-190.909
0
LINE
8
BLACK
10
213.598
20
-190.909
11
213.598
21
-190.955
0
LINE
8
BLACK
10
213.598
20
-190.955
11
214.134
21
-190.955
0
LINE
8
BLACK
10
214.134
20
-190.955
11
214.134
21
-190.909
0
LINE
8
BLACK
10
214.134
20
-190.259
11
213.598
21
-190.259
0
LINE
8
BLACK
10
213.598
20
-190.259
11
213.598
21
-190.305
0
LINE
8
BLACK
10
213.598
20
-190.305
11
214.134
21
-190.305
0
LINE
8
BLACK
10
214.134
20
-190.305
11
214.134
21
-190.259
0
LINE
8
BLACK
10
224.673
20
-181.673
11
225.209
21
-181.673
0
LINE
8
BLACK
10
225.209
20
-181.673
11
225.209
21
-181.628
0
LINE
8
BLACK
10
225.209
20
-181.628
11
224.673
21
-181.628
0
LINE
8
BLACK
10
224.673
20
-181.628
11
224.673
21
-181.673
0
LINE
8
BLACK
10
224.673
20
-181.023
11
225.209
21
-181.023
0
LINE
8
BLACK
10
225.209
20
-181.023
11
225.209
21
-180.978
0
LINE
8
BLACK
10
225.209
20
-180.978
11
224.673
21
-180.978
0
LINE
8
BLACK
10
224.673
20
-180.978
11
224.673
21
-181.023
0
LINE
8
BLACK
10
224.673
20
-180.373
11
225.209
21
-180.373
0
LINE
8
BLACK
10
225.209
20
-180.373
11
225.209
21
-180.328
0
LINE
8
BLACK
10
225.209
20
-180.328
11
224.673
21
-180.328
0
LINE
8
BLACK
10
224.673
20
-180.328
11
224.673
21
-180.373
0
LINE
8
BLACK
10
226.353
20
-180.373
11
226.889
21
-180.373
0
LINE
8
BLACK
10
226.889
20
-180.373
11
226.889
21
-180.328
0
LINE
8
BLACK
10
226.889
20
-180.328
11
226.353
21
-180.328
0
LINE
8
BLACK
10
226.353
20
-180.328
11
226.353
21
-180.373
0
LINE
8
BLACK
10
226.353
20
-181.023
11
226.889
21
-181.023
0
LINE
8
BLACK
10
226.889
20
-181.023
11
226.889
21
-180.978
0
LINE
8
BLACK
10
226.889
20
-180.978
11
226.353
21
-180.978
0
LINE
8
BLACK
10
226.353
20
-180.978
11
226.353
21
-181.023
0
LINE
8
BLACK
10
226.353
20
-181.673
11
226.889
21
-181.673
0
LINE
8
BLACK
10
226.889
20
-181.673
11
226.889
21
-181.628
0
LINE
8
BLACK
10
226.889
20
-181.628
11
226.353
21
-181.628
0
LINE
8
BLACK
10
226.353
20
-181.628
11
226.353
21
-181.673
0
LINE
8
BLACK
10
198.476
20
-193.116
11
198.476
21
-194.894
0
LINE
8
BLACK
10
198.476
20
-194.894
11
198.882
21
-194.894
0
LINE
8
BLACK
10
198.882
20
-194.894
11
198.882
21
-193.116
0
LINE
8
BLACK
10
198.882
20
-193.116
11
198.476
21
-193.116
0
LINE
8
BLACK
10
199.746
20
-193.116
11
199.746
21
-194.894
0
LINE
8
BLACK
10
199.746
20
-194.894
11
200.152
21
-194.894
0
LINE
8
BLACK
10
200.152
20
-194.894
11
200.152
21
-193.116
0
LINE
8
BLACK
10
200.152
20
-193.116
11
199.746
21
-193.116
0
LINE
8
BLACK
10
201.016
20
-193.116
11
201.016
21
-194.894
0
LINE
8
BLACK
10
201.016
20
-194.894
11
201.422
21
-194.894
0
LINE
8
BLACK
10
201.422
20
-194.894
11
201.422
21
-193.116
0
LINE
8
BLACK
10
201.422
20
-193.116
11
201.016
21
-193.116
0
LINE
8
BLACK
10
202.286
20
-193.116
11
202.286
21
-194.894
0
LINE
8
BLACK
10
202.286
20
-194.894
11
202.692
21
-194.894
0
LINE
8
BLACK
10
202.692
20
-194.894
11
202.692
21
-193.116
0
LINE
8
BLACK
10
202.692
20
-193.116
11
202.286
21
-193.116
0
LINE
8
BLACK
10
198.476
20
-187.401
11
198.476
21
-189.179
0
LINE
8
BLACK
10
198.476
20
-189.179
11
198.882
21
-189.179
0
LINE
8
BLACK
10
198.882
20
-189.179
11
198.882
21
-187.401
0
LINE
8
BLACK
10
198.882
20
-187.401
11
198.476
21
-187.401
0
LINE
8
BLACK
10
199.746
20
-187.401
11
199.746
21
-189.179
0
LINE
8
BLACK
10
199.746
20
-189.179
11
200.152
21
-189.179
0
LINE
8
BLACK
10
200.152
20
-189.179
11
200.152
21
-187.401
0
LINE
8
BLACK
10
200.152
20
-187.401
11
199.746
21
-187.401
0
LINE
8
BLACK
10
201.016
20
-187.401
11
201.016
21
-189.179
0
LINE
8
BLACK
10
201.016
20
-189.179
11
201.422
21
-189.179
0
LINE
8
BLACK
10
201.422
20
-189.179
11
201.422
21
-187.401
0
LINE
8
BLACK
10
201.422
20
-187.401
11
201.016
21
-187.401
0
LINE
8
BLACK
10
202.286
20
-187.401
11
202.286
21
-189.179
0
LINE
8
BLACK
10
202.286
20
-189.179
11
202.692
21
-189.179
0
LINE
8
BLACK
10
202.692
20
-189.179
11
202.692
21
-187.401
0
LINE
8
BLACK
10
202.692
20
-187.401
11
202.286
21
-187.401
0
LINE
8
BLACK
10
251.968
20
-193.916
11
250.241
21
-193.916
0
LINE
8
BLACK
10
250.241
20
-193.916
11
250.241
21
-194.196
0
LINE
8
BLACK
10
250.241
20
-194.196
11
251.968
21
-194.196
0
LINE
8
BLACK
10
251.968
20
-194.196
11
251.968
21
-193.916
0
LINE
8
BLACK
10
251.968
20
-195.186
11
250.241
21
-195.186
0
LINE
8
BLACK
10
250.241
20
-195.186
11
250.241
21
-195.466
0
LINE
8
BLACK
10
250.241
20
-195.466
11
251.968
21
-195.466
0
LINE
8
BLACK
10
251.968
20
-195.466
11
251.968
21
-195.186
0
LINE
8
BLACK
10
251.968
20
-196.456
11
250.241
21
-196.456
0
LINE
8
BLACK
10
250.241
20
-196.456
11
250.241
21
-196.736
0
LINE
8
BLACK
10
250.241
20
-196.736
11
251.968
21
-196.736
0
LINE
8
BLACK
10
251.968
20
-196.736
11
251.968
21
-196.456
0
LINE
8
BLACK
10
251.968
20
-197.726
11
250.241
21
-197.726
0
LINE
8
BLACK
10
250.241
20
-197.726
11
250.241
21
-198.006
0
LINE
8
BLACK
10
250.241
20
-198.006
11
251.968
21
-198.006
0
LINE
8
BLACK
10
251.968
20
-198.006
11
251.968
21
-197.726
0
LINE
8
BLACK
10
251.968
20
-198.996
11
250.241
21
-198.996
0
LINE
8
BLACK
10
250.241
20
-198.996
11
250.241
21
-199.276
0
LINE
8
BLACK
10
250.241
20
-199.276
11
251.968
21
-199.276
0
LINE
8
BLACK
10
251.968
20
-199.276
11
251.968
21
-198.996
0
LINE
8
BLACK
10
251.968
20
-200.266
11
250.241
21
-200.266
0
LINE
8
BLACK
10
250.241
20
-200.266
11
250.241
21
-200.546
0
LINE
8
BLACK
10
250.241
20
-200.546
11
251.968
21
-200.546
0
LINE
8
BLACK
10
251.968
20
-200.546
11
251.968
21
-200.266
0
LINE
8
BLACK
10
251.968
20
-201.536
11
250.241
21
-201.536
0
LINE
8
BLACK
10
250.241
20
-201.536
11
250.241
21
-201.816
0
LINE
8
BLACK
10
250.241
20
-201.816
11
251.968
21
-201.816
0
LINE
8
BLACK
10
251.968
20
-201.816
11
251.968
21
-201.536
0
LINE
8
BLACK
10
256.896
20
-201.536
11
255.168
21
-201.536
0
LINE
8
BLACK
10
255.168
20
-201.536
11
255.168
21
-201.816
0
LINE
8
BLACK
10
255.168
20
-201.816
11
256.896
21
-201.816
0
LINE
8
BLACK
10
256.896
20
-201.816
11
256.896
21
-201.536
0
LINE
8
BLACK
10
256.896
20
-200.266
11
255.168
21
-200.266
0
LINE
8
BLACK
10
255.168
20
-200.266
11
255.168
21
-200.546
0
LINE
8
BLACK
10
255.168
20
-200.546
11
256.896
21
-200.546
0
LINE
8
BLACK
10
256.896
20
-200.546
11
256.896
21
-200.266
0
LINE
8
BLACK
10
256.896
20
-198.996
11
255.168
21
-198.996
0
LINE
8
BLACK
10
255.168
20
-198.996
11
255.168
21
-199.276
0
LINE
8
BLACK
10
255.168
20
-199.276
11
256.896
21
-199.276
0
LINE
8
BLACK
10
256.896
20
-199.276
11
256.896
21
-198.996
0
LINE
8
BLACK
10
256.896
20
-197.726
11
255.168
21
-197.726
0
LINE
8
BLACK
10
255.168
20
-197.726
11
255.168
21
-198.006
0
LINE
8
BLACK
10
255.168
20
-198.006
11
256.896
21
-198.006
0
LINE
8
BLACK
10
256.896
20
-198.006
11
256.896
21
-197.726
0
LINE
8
BLACK
10
256.896
20
-196.456
11
255.168
21
-196.456
0
LINE
8
BLACK
10
255.168
20
-196.456
11
255.168
21
-196.736
0
LINE
8
BLACK
10
255.168
20
-196.736
11
256.896
21
-196.736
0
LINE
8
BLACK
10
256.896
20
-196.736
11
256.896
21
-196.456
0
LINE
8
BLACK
10
256.896
20
-195.186
11
255.168
21
-195.186
0
LINE
8
BLACK
10
255.168
20
-195.186
11
255.168
21
-195.466
0
LINE
8
BLACK
10
255.168
20
-195.466
11
256.896
21
-195.466
0
LINE
8
BLACK
10
256.896
20
-195.466
11
256.896
21
-195.186
0
LINE
8
BLACK
10
256.896
20
-193.916
11
255.168
21
-193.916
0
LINE
8
BLACK
10
255.168
20
-193.916
11
255.168
21
-194.196
0
LINE
8
BLACK
10
255.168
20
-194.196
11
256.896
21
-194.196
0
LINE
8
BLACK
10
256.896
20
-194.196
11
256.896
21
-193.916
0
LINE
8
BLACK
10
205.664
20
-201.346
11
205.664
21
-199.568
0
LINE
8
BLACK
10
205.664
20
-199.568
11
204.394
21
-199.568
0
LINE
8
BLACK
10
204.394
20
-199.568
11
204.394
21
-201.346
0
LINE
8
BLACK
10
204.394
20
-201.346
11
205.664
21
-201.346
0
LINE
8
BLACK
10
202.362
20
-201.346
11
202.362
21
-199.568
0
LINE
8
BLACK
10
202.362
20
-199.568
11
201.092
21
-199.568
0
LINE
8
BLACK
10
201.092
20
-199.568
11
201.092
21
-201.346
0
LINE
8
BLACK
10
201.092
20
-201.346
11
202.362
21
-201.346
0
LINE
8
BLACK
10
247.409
20
-193.256
11
247.942
21
-193.256
0
LINE
8
BLACK
10
247.942
20
-193.256
11
247.942
21
-192.748
0
LINE
8
BLACK
10
247.942
20
-192.748
11
247.409
21
-192.748
0
LINE
8
BLACK
10
247.409
20
-192.748
11
247.409
21
-193.256
0
LINE
8
BLACK
10
247.409
20
-191.757
11
247.942
21
-191.757
0
LINE
8
BLACK
10
247.942
20
-191.757
11
247.942
21
-191.249
0
LINE
8
BLACK
10
247.942
20
-191.249
11
247.409
21
-191.249
0
LINE
8
BLACK
10
247.409
20
-191.249
11
247.409
21
-191.757
0
LINE
8
BLACK
10
240.957
20
-184.722
11
240.957
21
-184.188
0
LINE
8
BLACK
10
240.957
20
-184.188
11
240.449
21
-184.188
0
LINE
8
BLACK
10
240.449
20
-184.188
11
240.449
21
-184.722
0
LINE
8
BLACK
10
240.449
20
-184.722
11
240.957
21
-184.722
0
LINE
8
BLACK
10
239.459
20
-184.722
11
239.459
21
-184.188
0
LINE
8
BLACK
10
239.459
20
-184.188
11
238.951
21
-184.188
0
LINE
8
BLACK
10
238.951
20
-184.188
11
238.951
21
-184.722
0
LINE
8
BLACK
10
238.951
20
-184.722
11
239.459
21
-184.722
0
LINE
8
BLACK
10
202.984
20
-175.019
11
202.984
21
-174.485
0
LINE
8
BLACK
10
202.984
20
-174.485
11
202.476
21
-174.485
0
LINE
8
BLACK
10
202.476
20
-174.485
11
202.476
21
-175.019
0
LINE
8
BLACK
10
202.476
20
-175.019
11
202.984
21
-175.019
0
LINE
8
BLACK
10
201.486
20
-175.019
11
201.486
21
-174.485
0
LINE
8
BLACK
10
201.486
20
-174.485
11
200.978
21
-174.485
0
LINE
8
BLACK
10
200.978
20
-174.485
11
200.978
21
-175.019
0
LINE
8
BLACK
10
200.978
20
-175.019
11
201.486
21
-175.019
0
LINE
8
BLACK
10
205.524
20
-184.722
11
205.524
21
-185.255
0
LINE
8
BLACK
10
205.524
20
-185.255
11
206.032
21
-185.255
0
LINE
8
BLACK
10
206.032
20
-185.255
11
206.032
21
-184.722
0
LINE
8
BLACK
10
206.032
20
-184.722
11
205.524
21
-184.722
0
LINE
8
BLACK
10
207.023
20
-184.722
11
207.023
21
-185.255
0
LINE
8
BLACK
10
207.023
20
-185.255
11
207.531
21
-185.255
0
LINE
8
BLACK
10
207.531
20
-185.255
11
207.531
21
-184.722
0
LINE
8
BLACK
10
207.531
20
-184.722
11
207.023
21
-184.722
0
LINE
8
BLACK
10
200.368
20
-184.976
11
200.368
21
-185.509
0
LINE
8
BLACK
10
200.368
20
-185.509
11
200.876
21
-185.509
0
LINE
8
BLACK
10
200.876
20
-185.509
11
200.876
21
-184.976
0
LINE
8
BLACK
10
200.876
20
-184.976
11
200.368
21
-184.976
0
LINE
8
BLACK
10
201.867
20
-184.976
11
201.867
21
-185.509
0
LINE
8
BLACK
10
201.867
20
-185.509
11
202.375
21
-185.509
0
LINE
8
BLACK
10
202.375
20
-185.509
11
202.375
21
-184.976
0
LINE
8
BLACK
10
202.375
20
-184.976
11
201.867
21
-184.976
0
LINE
8
BLACK
10
200.952
20
-195.923
11
200.952
21
-196.456
0
LINE
8
BLACK
10
200.952
20
-196.456
11
201.46
21
-196.456
0
LINE
8
BLACK
10
201.46
20
-196.456
11
201.46
21
-195.923
0
LINE
8
BLACK
10
201.46
20
-195.923
11
200.952
21
-195.923
0
LINE
8
BLACK
10
202.451
20
-195.923
11
202.451
21
-196.456
0
LINE
8
BLACK
10
202.451
20
-196.456
11
202.959
21
-196.456
0
LINE
8
BLACK
10
202.959
20
-196.456
11
202.959
21
-195.923
0
LINE
8
BLACK
10
202.959
20
-195.923
11
202.451
21
-195.923
0
LINE
8
BLACK
10
199.682
20
-197.803
11
199.682
21
-198.336
0
LINE
8
BLACK
10
199.682
20
-198.336
11
200.19
21
-198.336
0
LINE
8
BLACK
10
200.19
20
-198.336
11
200.19
21
-197.803
0
LINE
8
BLACK
10
200.19
20
-197.803
11
199.682
21
-197.803
0
LINE
8
BLACK
10
201.181
20
-197.803
11
201.181
21
-198.336
0
LINE
8
BLACK
10
201.181
20
-198.336
11
201.689
21
-198.336
0
LINE
8
BLACK
10
201.689
20
-198.336
11
201.689
21
-197.803
0
LINE
8
BLACK
10
201.689
20
-197.803
11
201.181
21
-197.803
0
LINE
8
BLACK
10
210.096
20
-178.981
11
209.563
21
-178.981
0
LINE
8
BLACK
10
209.563
20
-178.981
11
209.563
21
-179.489
0
LINE
8
BLACK
10
209.563
20
-179.489
11
210.096
21
-179.489
0
LINE
8
BLACK
10
210.096
20
-179.489
11
210.096
21
-178.981
0
LINE
8
BLACK
10
210.096
20
-180.48
11
209.563
21
-180.48
0
LINE
8
BLACK
10
209.563
20
-180.48
11
209.563
21
-180.988
0
LINE
8
BLACK
10
209.563
20
-180.988
11
210.096
21
-180.988
0
LINE
8
BLACK
10
210.096
20
-180.988
11
210.096
21
-180.48
0
LINE
8
BLACK
10
207.658
20
-178.448
11
208.191
21
-178.448
0
LINE
8
BLACK
10
208.191
20
-178.448
11
208.191
21
-177.94
0
LINE
8
BLACK
10
208.191
20
-177.94
11
207.658
21
-177.94
0
LINE
8
BLACK
10
207.658
20
-177.94
11
207.658
21
-178.448
0
LINE
8
BLACK
10
207.658
20
-176.949
11
208.191
21
-176.949
0
LINE
8
BLACK
10
208.191
20
-176.949
11
208.191
21
-176.441
0
LINE
8
BLACK
10
208.191
20
-176.441
11
207.658
21
-176.441
0
LINE
8
BLACK
10
207.658
20
-176.441
11
207.658
21
-176.949
0
LINE
8
BLACK
10
209.817
20
-209.233
11
209.283
21
-209.233
0
LINE
8
BLACK
10
209.283
20
-209.233
11
209.283
21
-209.741
0
LINE
8
BLACK
10
209.283
20
-209.741
11
209.817
21
-209.741
0
LINE
8
BLACK
10
209.817
20
-209.741
11
209.817
21
-209.233
0
LINE
8
BLACK
10
209.817
20
-210.731
11
209.283
21
-210.731
0
LINE
8
BLACK
10
209.283
20
-210.731
11
209.283
21
-211.239
0
LINE
8
BLACK
10
209.283
20
-211.239
11
209.817
21
-211.239
0
LINE
8
BLACK
10
209.817
20
-211.239
11
209.817
21
-210.731
0
LINE
8
BLACK
10
232.626
20
-190.792
11
232.093
21
-190.792
0
LINE
8
BLACK
10
232.093
20
-190.792
11
232.093
21
-191.3
0
LINE
8
BLACK
10
232.093
20
-191.3
11
232.626
21
-191.3
0
LINE
8
BLACK
10
232.626
20
-191.3
11
232.626
21
-190.792
0
LINE
8
BLACK
10
232.626
20
-192.291
11
232.093
21
-192.291
0
LINE
8
BLACK
10
232.093
20
-192.291
11
232.093
21
-192.799
0
LINE
8
BLACK
10
232.093
20
-192.799
11
232.626
21
-192.799
0
LINE
8
BLACK
10
232.626
20
-192.799
11
232.626
21
-192.291
0
LINE
8
BLACK
10
223.177
20
-180.759
11
222.644
21
-180.759
0
LINE
8
BLACK
10
222.644
20
-180.759
11
222.644
21
-181.267
0
LINE
8
BLACK
10
222.644
20
-181.267
11
223.177
21
-181.267
0
LINE
8
BLACK
10
223.177
20
-181.267
11
223.177
21
-180.759
0
LINE
8
BLACK
10
223.177
20
-182.258
11
222.644
21
-182.258
0
LINE
8
BLACK
10
222.644
20
-182.258
11
222.644
21
-182.766
0
LINE
8
BLACK
10
222.644
20
-182.766
11
223.177
21
-182.766
0
LINE
8
BLACK
10
223.177
20
-182.766
11
223.177
21
-182.258
0
LINE
8
BLACK
10
217.183
20
-191.707
11
217.716
21
-191.707
0
LINE
8
BLACK
10
217.716
20
-191.707
11
217.716
21
-191.199
0
LINE
8
BLACK
10
217.716
20
-191.199
11
217.183
21
-191.199
0
LINE
8
BLACK
10
217.183
20
-191.199
11
217.183
21
-191.707
0
LINE
8
BLACK
10
217.183
20
-190.208
11
217.716
21
-190.208
0
LINE
8
BLACK
10
217.716
20
-190.208
11
217.716
21
-189.7
0
LINE
8
BLACK
10
217.716
20
-189.7
11
217.183
21
-189.7
0
LINE
8
BLACK
10
217.183
20
-189.7
11
217.183
21
-190.208
0
LINE
8
BLACK
10
228.13
20
-201.511
11
228.13
21
-202.044
0
LINE
8
BLACK
10
228.13
20
-202.044
11
228.638
21
-202.044
0
LINE
8
BLACK
10
228.638
20
-202.044
11
228.638
21
-201.511
0
LINE
8
BLACK
10
228.638
20
-201.511
11
228.13
21
-201.511
0
LINE
8
BLACK
10
229.629
20
-201.511
11
229.629
21
-202.044
0
LINE
8
BLACK
10
229.629
20
-202.044
11
230.137
21
-202.044
0
LINE
8
BLACK
10
230.137
20
-202.044
11
230.137
21
-201.511
0
LINE
8
BLACK
10
230.137
20
-201.511
11
229.629
21
-201.511
0
LINE
8
BLACK
10
241.008
20
-201.333
11
241.008
21
-200.8
0
LINE
8
BLACK
10
241.008
20
-200.8
11
240.5
21
-200.8
0
LINE
8
BLACK
10
240.5
20
-200.8
11
240.5
21
-201.333
0
LINE
8
BLACK
10
240.5
20
-201.333
11
241.008
21
-201.333
0
LINE
8
BLACK
10
239.509
20
-201.333
11
239.509
21
-200.8
0
LINE
8
BLACK
10
239.509
20
-200.8
11
239.001
21
-200.8
0
LINE
8
BLACK
10
239.001
20
-200.8
11
239.001
21
-201.333
0
LINE
8
BLACK
10
239.001
20
-201.333
11
239.509
21
-201.333
0
LINE
8
BLACK
10
241.389
20
-199.479
11
241.389
21
-200.012
0
LINE
8
BLACK
10
241.389
20
-200.012
11
241.897
21
-200.012
0
LINE
8
BLACK
10
241.897
20
-200.012
11
241.897
21
-199.479
0
LINE
8
BLACK
10
241.897
20
-199.479
11
241.389
21
-199.479
0
LINE
8
BLACK
10
242.888
20
-199.479
11
242.888
21
-200.012
0
LINE
8
BLACK
10
242.888
20
-200.012
11
243.396
21
-200.012
0
LINE
8
BLACK
10
243.396
20
-200.012
11
243.396
21
-199.479
0
LINE
8
BLACK
10
243.396
20
-199.479
11
242.888
21
-199.479
0
LINE
8
BLACK
10
222.402
20
-195.682
11
222.402
21
-203.81
0
LINE
8
BLACK
10
222.402
20
-203.81
11
224.688
21
-203.81
0
LINE
8
BLACK
10
224.688
20
-203.81
11
224.688
21
-195.682
0
LINE
8
BLACK
10
224.688
20
-195.682
11
222.402
21
-195.682
0
LINE
8
BLACK
10
209.347
20
-195.682
11
209.347
21
-203.81
0
LINE
8
BLACK
10
209.347
20
-203.81
11
211.633
21
-203.81
0
LINE
8
BLACK
10
211.633
20
-203.81
11
211.633
21
-195.682
0
LINE
8
BLACK
10
211.633
20
-195.682
11
209.347
21
-195.682
0
LINE
8
BLACK
10
213.779
20
-208.255
11
213.779
21
-211.303
0
LINE
8
BLACK
10
213.779
20
-211.303
11
215.176
21
-211.303
0
LINE
8
BLACK
10
215.176
20
-211.303
11
215.176
21
-208.255
0
LINE
8
BLACK
10
215.176
20
-208.255
11
213.779
21
-208.255
0
LINE
8
BLACK
10
211.811
20
-195.682
11
211.811
21
-206.096
0
LINE
8
BLACK
10
211.811
20
-206.096
11
222.225
21
-206.096
0
LINE
8
BLACK
10
222.225
20
-206.096
11
222.225
21
-195.682
0
LINE
8
BLACK
10
222.225
20
-195.682
11
211.811
21
-195.682
0
LINE
8
BLACK
10
218.859
20
-208.255
11
218.859
21
-211.303
0
LINE
8
BLACK
10
218.859
20
-211.303
11
220.256
21
-211.303
0
LINE
8
BLACK
10
220.256
20
-211.303
11
220.256
21
-208.255
0
LINE
8
BLACK
10
220.256
20
-208.255
11
218.859
21
-208.255
0
LINE
8
BLACK
10
242.516
20
-204.879
11
242.516
21
-204.083
0
LINE
8
BLACK
10
242.516
20
-204.083
11
241.47
21
-204.083
0
LINE
8
BLACK
10
241.47
20
-204.083
11
241.47
21
-204.879
0
LINE
8
BLACK
10
241.47
20
-204.879
11
242.516
21
-204.879
0
LINE
8
BLACK
10
242.516
20
-203.029
11
242.516
21
-202.233
0
LINE
8
BLACK
10
242.516
20
-202.233
11
241.47
21
-202.233
0
LINE
8
BLACK
10
241.47
20
-202.233
11
241.47
21
-203.029
0
LINE
8
BLACK
10
241.47
20
-203.029
11
242.516
21
-203.029
0
LINE
8
BLACK
10
240.216
20
-204.879
11
240.216
21
-204.083
0
LINE
8
BLACK
10
240.216
20
-204.083
11
239.17
21
-204.083
0
LINE
8
BLACK
10
239.17
20
-204.083
11
239.17
21
-204.879
0
LINE
8
BLACK
10
239.17
20
-204.879
11
240.216
21
-204.879
0
LINE
8
BLACK
10
240.216
20
-203.029
11
240.216
21
-202.233
0
LINE
8
BLACK
10
240.216
20
-202.233
11
239.17
21
-202.233
0
LINE
8
BLACK
10
239.17
20
-202.233
11
239.17
21
-203.029
0
LINE
8
BLACK
10
239.17
20
-203.029
11
240.216
21
-203.029
  0
ENDSEC
  0
EOF
