  0
SECTION
  2
HEADER
  9
$ANGBASE
  50
0.0
  9
$ANGDIR
  70
  1
  9
$MEASUREMENT
  70
0
  0
ENDSEC
  0
SECTION
  2
TABLES
  0
TABLE
  2
LTYPE
  70
1
  0
LTYPE
  2
CONTINUOUS
  70
0
  3
Solid line
  72
65
  73
0
  40
0.0
  0
ENDTAB
  0
TABLE
  2
STYLE
  70
4
  0
STYLE
  2
KICAD
  70
0
  40
0
  41
1
  42
1
  50
0
  71
0
  3
isocp.shx
  0
STYLE
  2
KICADB
  70
0
  40
0
  41
1
  42
1
  50
0
  71
0
  3
isocp.shx
  0
STYLE
  2
KICADI
  70
0
  40
0
  41
1
  42
1
  50
15
  71
0
  3
isocp.shx
  0
STYLE
  2
KICADBI
  70
0
  40
0
  41
1
  42
1
  50
15
  71
0
  3
isocp.shx
  0
ENDTAB
  0
TABLE
  2
LAYER
  70
24
  0
LAYER
  2
BLACK
  70
0
  62
250
  6
CONTINUOUS
  0
LAYER
  2
BLUE
  70
0
  62
5
  6
CONTINUOUS
  0
LAYER
  2
GREEN
  70
0
  62
3
  6
CONTINUOUS
  0
LAYER
  2
CYAN
  70
0
  62
4
  6
CONTINUOUS
  0
LAYER
  2
RED
  70
0
  62
1
  6
CONTINUOUS
  0
LAYER
  2
MAGENTA
  70
0
  62
6
  6
CONTINUOUS
  0
LAYER
  2
BROWN
  70
0
  62
54
  6
CONTINUOUS
  0
LAYER
  2
LIGHTGRAY
  70
0
  62
9
  6
CONTINUOUS
  0
LAYER
  2
DARKGRAY
  70
0
  62
8
  6
CONTINUOUS
  0
LAYER
  2
LIGHTBLUE
  70
0
  62
171
  6
CONTINUOUS
  0
LAYER
  2
LIGHTGREEN
  70
0
  62
91
  6
CONTINUOUS
  0
LAYER
  2
LIGHTCYAN
  70
0
  62
131
  6
CONTINUOUS
  0
LAYER
  2
LIGHTRED
  70
0
  62
11
  6
CONTINUOUS
  0
LAYER
  2
LIGHTMAGENTA
  70
0
  62
221
  6
CONTINUOUS
  0
LAYER
  2
YELLOW
  70
0
  62
2
  6
CONTINUOUS
  0
LAYER
  2
WHITE
  70
0
  62
7
  6
CONTINUOUS
  0
LAYER
  2
DARKDARKGRAY
  70
0
  62
251
  6
CONTINUOUS
  0
LAYER
  2
DARKBLUE
  70
0
  62
178
  6
CONTINUOUS
  0
LAYER
  2
DARKGREEN
  70
0
  62
98
  6
CONTINUOUS
  0
LAYER
  2
DARKCYAN
  70
0
  62
138
  6
CONTINUOUS
  0
LAYER
  2
DARKRED
  70
0
  62
18
  6
CONTINUOUS
  0
LAYER
  2
DARKMAGENTA
  70
0
  62
228
  6
CONTINUOUS
  0
LAYER
  2
DARKBROWN
  70
0
  62
58
  6
CONTINUOUS
  0
LAYER
  2
LIGHTYELLOW
  70
0
  62
51
  6
CONTINUOUS
  0
ENDTAB
  0
ENDSEC
  0
SECTION
  2
ENTITIES
0
LINE
8
BLACK
10
262.687
20
-188.468
11
262.687
21
-190.754
0
LINE
8
BLACK
10
262.687
20
-190.754
11
263.703
21
-190.754
0
LINE
8
BLACK
10
263.703
20
-190.754
11
263.703
21
-188.468
0
LINE
8
BLACK
10
263.703
20
-188.468
11
262.687
21
-188.468
0
LINE
8
BLACK
10
265.735
20
-188.468
11
265.735
21
-190.754
0
LINE
8
BLACK
10
265.735
20
-190.754
11
266.751
21
-190.754
0
LINE
8
BLACK
10
266.751
20
-190.754
11
266.751
21
-188.468
0
LINE
8
BLACK
10
266.751
20
-188.468
11
265.735
21
-188.468
0
LINE
8
BLACK
10
265.43
20
-201.752
11
267.208
21
-201.752
0
LINE
8
BLACK
10
267.208
20
-201.752
11
267.208
21
-200.482
0
LINE
8
BLACK
10
267.208
20
-200.482
11
265.43
21
-200.482
0
LINE
8
BLACK
10
265.43
20
-200.482
11
265.43
21
-201.752
0
LINE
8
BLACK
10
265.43
20
-198.45
11
267.208
21
-198.45
0
LINE
8
BLACK
10
267.208
20
-198.45
11
267.208
21
-197.18
0
LINE
8
BLACK
10
267.208
20
-197.18
11
265.43
21
-197.18
0
LINE
8
BLACK
10
265.43
20
-197.18
11
265.43
21
-198.45
0
LINE
8
BLACK
10
258.115
20
-211.303
11
258.115
21
-208.509
0
LINE
8
BLACK
10
258.115
20
-208.509
11
257.48
21
-208.509
0
LINE
8
BLACK
10
257.48
20
-208.509
11
257.48
21
-211.303
0
LINE
8
BLACK
10
257.48
20
-211.303
11
258.115
21
-211.303
0
LINE
8
BLACK
10
256.464
20
-211.303
11
256.464
21
-208.509
0
LINE
8
BLACK
10
256.464
20
-208.509
11
255.829
21
-208.509
0
LINE
8
BLACK
10
255.829
20
-208.509
11
255.829
21
-211.303
0
LINE
8
BLACK
10
255.829
20
-211.303
11
256.464
21
-211.303
0
LINE
8
BLACK
10
238.595
20
-195.161
11
238.595
21
-195.694
0
LINE
8
BLACK
10
238.595
20
-195.694
11
239.103
21
-195.694
0
LINE
8
BLACK
10
239.103
20
-195.694
11
239.103
21
-195.161
0
LINE
8
BLACK
10
239.103
20
-195.161
11
238.595
21
-195.161
0
LINE
8
BLACK
10
240.094
20
-195.161
11
240.094
21
-195.694
0
LINE
8
BLACK
10
240.094
20
-195.694
11
240.602
21
-195.694
0
LINE
8
BLACK
10
240.602
20
-195.694
11
240.602
21
-195.161
0
LINE
8
BLACK
10
240.602
20
-195.161
11
240.094
21
-195.161
0
LINE
8
BLACK
10
238.595
20
-197.345
11
238.595
21
-197.879
0
LINE
8
BLACK
10
238.595
20
-197.879
11
239.103
21
-197.879
0
LINE
8
BLACK
10
239.103
20
-197.879
11
239.103
21
-197.345
0
LINE
8
BLACK
10
239.103
20
-197.345
11
238.595
21
-197.345
0
LINE
8
BLACK
10
240.094
20
-197.345
11
240.094
21
-197.879
0
LINE
8
BLACK
10
240.094
20
-197.879
11
240.602
21
-197.879
0
LINE
8
BLACK
10
240.602
20
-197.879
11
240.602
21
-197.345
0
LINE
8
BLACK
10
240.602
20
-197.345
11
240.094
21
-197.345
0
LINE
8
BLACK
10
245.199
20
-192.951
11
245.732
21
-192.951
0
LINE
8
BLACK
10
245.732
20
-192.951
11
245.732
21
-192.443
0
LINE
8
BLACK
10
245.732
20
-192.443
11
245.199
21
-192.443
0
LINE
8
BLACK
10
245.199
20
-192.443
11
245.199
21
-192.951
0
LINE
8
BLACK
10
245.199
20
-191.453
11
245.732
21
-191.453
0
LINE
8
BLACK
10
245.732
20
-191.453
11
245.732
21
-190.945
0
LINE
8
BLACK
10
245.732
20
-190.945
11
245.199
21
-190.945
0
LINE
8
BLACK
10
245.199
20
-190.945
11
245.199
21
-191.453
0
LINE
8
BLACK
10
238.595
20
-199.911
11
238.595
21
-200.444
0
LINE
8
BLACK
10
238.595
20
-200.444
11
239.103
21
-200.444
0
LINE
8
BLACK
10
239.103
20
-200.444
11
239.103
21
-199.911
0
LINE
8
BLACK
10
239.103
20
-199.911
11
238.595
21
-199.911
0
LINE
8
BLACK
10
240.094
20
-199.911
11
240.094
21
-200.444
0
LINE
8
BLACK
10
240.094
20
-200.444
11
240.602
21
-200.444
0
LINE
8
BLACK
10
240.602
20
-200.444
11
240.602
21
-199.911
0
LINE
8
BLACK
10
240.602
20
-199.911
11
240.094
21
-199.911
0
LINE
8
BLACK
10
243.065
20
-192.951
11
243.599
21
-192.951
0
LINE
8
BLACK
10
243.599
20
-192.951
11
243.599
21
-192.443
0
LINE
8
BLACK
10
243.599
20
-192.443
11
243.065
21
-192.443
0
LINE
8
BLACK
10
243.065
20
-192.443
11
243.065
21
-192.951
0
LINE
8
BLACK
10
243.065
20
-191.453
11
243.599
21
-191.453
0
LINE
8
BLACK
10
243.599
20
-191.453
11
243.599
21
-190.945
0
LINE
8
BLACK
10
243.599
20
-190.945
11
243.065
21
-190.945
0
LINE
8
BLACK
10
243.065
20
-190.945
11
243.065
21
-191.453
0
LINE
8
BLACK
10
241.414
20
-189.217
11
241.414
21
-188.684
0
LINE
8
BLACK
10
241.414
20
-188.684
11
240.906
21
-188.684
0
LINE
8
BLACK
10
240.906
20
-188.684
11
240.906
21
-189.217
0
LINE
8
BLACK
10
240.906
20
-189.217
11
241.414
21
-189.217
0
LINE
8
BLACK
10
239.916
20
-189.217
11
239.916
21
-188.684
0
LINE
8
BLACK
10
239.916
20
-188.684
11
239.408
21
-188.684
0
LINE
8
BLACK
10
239.408
20
-188.684
11
239.408
21
-189.217
0
LINE
8
BLACK
10
239.408
20
-189.217
11
239.916
21
-189.217
0
LINE
8
BLACK
10
205.194
20
-180.327
11
205.194
21
-180.861
0
LINE
8
BLACK
10
205.194
20
-180.861
11
205.702
21
-180.861
0
LINE
8
BLACK
10
205.702
20
-180.861
11
205.702
21
-180.327
0
LINE
8
BLACK
10
205.702
20
-180.327
11
205.194
21
-180.327
0
LINE
8
BLACK
10
206.693
20
-180.327
11
206.693
21
-180.861
0
LINE
8
BLACK
10
206.693
20
-180.861
11
207.201
21
-180.861
0
LINE
8
BLACK
10
207.201
20
-180.861
11
207.201
21
-180.327
0
LINE
8
BLACK
10
207.201
20
-180.327
11
206.693
21
-180.327
0
LINE
8
BLACK
10
241.414
20
-187.084
11
241.414
21
-186.55
0
LINE
8
BLACK
10
241.414
20
-186.55
11
240.906
21
-186.55
0
LINE
8
BLACK
10
240.906
20
-186.55
11
240.906
21
-187.084
0
LINE
8
BLACK
10
240.906
20
-187.084
11
241.414
21
-187.084
0
LINE
8
BLACK
10
239.916
20
-187.084
11
239.916
21
-186.55
0
LINE
8
BLACK
10
239.916
20
-186.55
11
239.408
21
-186.55
0
LINE
8
BLACK
10
239.408
20
-186.55
11
239.408
21
-187.084
0
LINE
8
BLACK
10
239.408
20
-187.084
11
239.916
21
-187.084
0
LINE
8
BLACK
10
181.933
20
-194.043
11
182.466
21
-194.043
0
LINE
8
BLACK
10
182.466
20
-194.043
11
182.466
21
-193.535
0
LINE
8
BLACK
10
182.466
20
-193.535
11
181.933
21
-193.535
0
LINE
8
BLACK
10
181.933
20
-193.535
11
181.933
21
-194.043
0
LINE
8
BLACK
10
181.933
20
-192.545
11
182.466
21
-192.545
0
LINE
8
BLACK
10
182.466
20
-192.545
11
182.466
21
-192.037
0
LINE
8
BLACK
10
182.466
20
-192.037
11
181.933
21
-192.037
0
LINE
8
BLACK
10
181.933
20
-192.037
11
181.933
21
-192.545
0
LINE
8
BLACK
10
178.333
20
-194.043
11
178.866
21
-194.043
0
LINE
8
BLACK
10
178.866
20
-194.043
11
178.866
21
-193.535
0
LINE
8
BLACK
10
178.866
20
-193.535
11
178.333
21
-193.535
0
LINE
8
BLACK
10
178.333
20
-193.535
11
178.333
21
-194.043
0
LINE
8
BLACK
10
178.333
20
-192.545
11
178.866
21
-192.545
0
LINE
8
BLACK
10
178.866
20
-192.545
11
178.866
21
-192.037
0
LINE
8
BLACK
10
178.866
20
-192.037
11
178.333
21
-192.037
0
LINE
8
BLACK
10
178.333
20
-192.037
11
178.333
21
-192.545
0
LINE
8
BLACK
10
175.433
20
-194.043
11
175.966
21
-194.043
0
LINE
8
BLACK
10
175.966
20
-194.043
11
175.966
21
-193.535
0
LINE
8
BLACK
10
175.966
20
-193.535
11
175.433
21
-193.535
0
LINE
8
BLACK
10
175.433
20
-193.535
11
175.433
21
-194.043
0
LINE
8
BLACK
10
175.433
20
-192.545
11
175.966
21
-192.545
0
LINE
8
BLACK
10
175.966
20
-192.545
11
175.966
21
-192.037
0
LINE
8
BLACK
10
175.966
20
-192.037
11
175.433
21
-192.037
0
LINE
8
BLACK
10
175.433
20
-192.037
11
175.433
21
-192.545
0
LINE
8
BLACK
10
181.933
20
-174.485
11
182.466
21
-174.485
0
LINE
8
BLACK
10
182.466
20
-174.485
11
182.466
21
-173.977
0
LINE
8
BLACK
10
182.466
20
-173.977
11
181.933
21
-173.977
0
LINE
8
BLACK
10
181.933
20
-173.977
11
181.933
21
-174.485
0
LINE
8
BLACK
10
181.933
20
-172.987
11
182.466
21
-172.987
0
LINE
8
BLACK
10
182.466
20
-172.987
11
182.466
21
-172.479
0
LINE
8
BLACK
10
182.466
20
-172.479
11
181.933
21
-172.479
0
LINE
8
BLACK
10
181.933
20
-172.479
11
181.933
21
-172.987
0
LINE
8
BLACK
10
178.333
20
-174.485
11
178.866
21
-174.485
0
LINE
8
BLACK
10
178.866
20
-174.485
11
178.866
21
-173.977
0
LINE
8
BLACK
10
178.866
20
-173.977
11
178.333
21
-173.977
0
LINE
8
BLACK
10
178.333
20
-173.977
11
178.333
21
-174.485
0
LINE
8
BLACK
10
178.333
20
-172.987
11
178.866
21
-172.987
0
LINE
8
BLACK
10
178.866
20
-172.987
11
178.866
21
-172.479
0
LINE
8
BLACK
10
178.866
20
-172.479
11
178.333
21
-172.479
0
LINE
8
BLACK
10
178.333
20
-172.479
11
178.333
21
-172.987
0
LINE
8
BLACK
10
175.433
20
-174.485
11
175.966
21
-174.485
0
LINE
8
BLACK
10
175.966
20
-174.485
11
175.966
21
-173.977
0
LINE
8
BLACK
10
175.966
20
-173.977
11
175.433
21
-173.977
0
LINE
8
BLACK
10
175.433
20
-173.977
11
175.433
21
-174.485
0
LINE
8
BLACK
10
175.433
20
-172.987
11
175.966
21
-172.987
0
LINE
8
BLACK
10
175.966
20
-172.987
11
175.966
21
-172.479
0
LINE
8
BLACK
10
175.966
20
-172.479
11
175.433
21
-172.479
0
LINE
8
BLACK
10
175.433
20
-172.479
11
175.433
21
-172.987
0
LINE
8
BLACK
10
199.581
20
-178.702
11
200.114
21
-178.702
0
LINE
8
BLACK
10
200.114
20
-178.702
11
200.114
21
-178.194
0
LINE
8
BLACK
10
200.114
20
-178.194
11
199.581
21
-178.194
0
LINE
8
BLACK
10
199.581
20
-178.194
11
199.581
21
-178.702
0
LINE
8
BLACK
10
199.581
20
-177.203
11
200.114
21
-177.203
0
LINE
8
BLACK
10
200.114
20
-177.203
11
200.114
21
-176.695
0
LINE
8
BLACK
10
200.114
20
-176.695
11
199.581
21
-176.695
0
LINE
8
BLACK
10
199.581
20
-176.695
11
199.581
21
-177.203
0
LINE
8
BLACK
10
205.194
20
-182.283
11
205.194
21
-182.817
0
LINE
8
BLACK
10
205.194
20
-182.817
11
205.702
21
-182.817
0
LINE
8
BLACK
10
205.702
20
-182.817
11
205.702
21
-182.283
0
LINE
8
BLACK
10
205.702
20
-182.283
11
205.194
21
-182.283
0
LINE
8
BLACK
10
206.693
20
-182.283
11
206.693
21
-182.817
0
LINE
8
BLACK
10
206.693
20
-182.817
11
207.201
21
-182.817
0
LINE
8
BLACK
10
207.201
20
-182.817
11
207.201
21
-182.283
0
LINE
8
BLACK
10
207.201
20
-182.283
11
206.693
21
-182.283
0
LINE
8
BLACK
10
255.918
20
-193.688
11
255.384
21
-193.688
0
LINE
8
BLACK
10
255.384
20
-193.688
11
255.384
21
-194.196
0
LINE
8
BLACK
10
255.384
20
-194.196
11
255.918
21
-194.196
0
LINE
8
BLACK
10
255.918
20
-194.196
11
255.918
21
-193.688
0
LINE
8
BLACK
10
255.918
20
-195.186
11
255.384
21
-195.186
0
LINE
8
BLACK
10
255.384
20
-195.186
11
255.384
21
-195.694
0
LINE
8
BLACK
10
255.384
20
-195.694
11
255.918
21
-195.694
0
LINE
8
BLACK
10
255.918
20
-195.694
11
255.918
21
-195.186
0
LINE
8
BLACK
10
216.548
20
-192.291
11
216.548
21
-191.757
0
LINE
8
BLACK
10
216.548
20
-191.757
11
216.04
21
-191.757
0
LINE
8
BLACK
10
216.04
20
-191.757
11
216.04
21
-192.291
0
LINE
8
BLACK
10
216.04
20
-192.291
11
216.548
21
-192.291
0
LINE
8
BLACK
10
215.049
20
-192.291
11
215.049
21
-191.757
0
LINE
8
BLACK
10
215.049
20
-191.757
11
214.541
21
-191.757
0
LINE
8
BLACK
10
214.541
20
-191.757
11
214.541
21
-192.291
0
LINE
8
BLACK
10
214.541
20
-192.291
11
215.049
21
-192.291
0
LINE
8
BLACK
10
221.958
20
-208.191
11
221.958
21
-208.725
0
LINE
8
BLACK
10
221.958
20
-208.725
11
222.466
21
-208.725
0
LINE
8
BLACK
10
222.466
20
-208.725
11
222.466
21
-208.191
0
LINE
8
BLACK
10
222.466
20
-208.191
11
221.958
21
-208.191
0
LINE
8
BLACK
10
223.457
20
-208.191
11
223.457
21
-208.725
0
LINE
8
BLACK
10
223.457
20
-208.725
11
223.965
21
-208.725
0
LINE
8
BLACK
10
223.965
20
-208.725
11
223.965
21
-208.191
0
LINE
8
BLACK
10
223.965
20
-208.191
11
223.457
21
-208.191
0
LINE
8
BLACK
10
221.958
20
-210.401
11
221.958
21
-210.934
0
LINE
8
BLACK
10
221.958
20
-210.934
11
222.466
21
-210.934
0
LINE
8
BLACK
10
222.466
20
-210.934
11
222.466
21
-210.401
0
LINE
8
BLACK
10
222.466
20
-210.401
11
221.958
21
-210.401
0
LINE
8
BLACK
10
223.457
20
-210.401
11
223.457
21
-210.934
0
LINE
8
BLACK
10
223.457
20
-210.934
11
223.965
21
-210.934
0
LINE
8
BLACK
10
223.965
20
-210.934
11
223.965
21
-210.401
0
LINE
8
BLACK
10
223.965
20
-210.401
11
223.457
21
-210.401
0
LINE
8
BLACK
10
234.785
20
-190.792
11
234.252
21
-190.792
0
LINE
8
BLACK
10
234.252
20
-190.792
11
234.252
21
-191.3
0
LINE
8
BLACK
10
234.252
20
-191.3
11
234.785
21
-191.3
0
LINE
8
BLACK
10
234.785
20
-191.3
11
234.785
21
-190.792
0
LINE
8
BLACK
10
234.785
20
-192.291
11
234.252
21
-192.291
0
LINE
8
BLACK
10
234.252
20
-192.291
11
234.252
21
-192.799
0
LINE
8
BLACK
10
234.252
20
-192.799
11
234.785
21
-192.799
0
LINE
8
BLACK
10
234.785
20
-192.799
11
234.785
21
-192.291
0
LINE
8
BLACK
10
236.969
20
-190.792
11
236.436
21
-190.792
0
LINE
8
BLACK
10
236.436
20
-190.792
11
236.436
21
-191.3
0
LINE
8
BLACK
10
236.436
20
-191.3
11
236.969
21
-191.3
0
LINE
8
BLACK
10
236.969
20
-191.3
11
236.969
21
-190.792
0
LINE
8
BLACK
10
236.969
20
-192.291
11
236.436
21
-192.291
0
LINE
8
BLACK
10
236.436
20
-192.291
11
236.436
21
-192.799
0
LINE
8
BLACK
10
236.436
20
-192.799
11
236.969
21
-192.799
0
LINE
8
BLACK
10
236.969
20
-192.799
11
236.969
21
-192.291
0
LINE
8
BLACK
10
223.787
20
-181.775
11
223.787
21
-182.309
0
LINE
8
BLACK
10
223.787
20
-182.309
11
224.295
21
-182.309
0
LINE
8
BLACK
10
224.295
20
-182.309
11
224.295
21
-181.775
0
LINE
8
BLACK
10
224.295
20
-181.775
11
223.787
21
-181.775
0
LINE
8
BLACK
10
225.285
20
-181.775
11
225.285
21
-182.309
0
LINE
8
BLACK
10
225.285
20
-182.309
11
225.793
21
-182.309
0
LINE
8
BLACK
10
225.793
20
-182.309
11
225.793
21
-181.775
0
LINE
8
BLACK
10
225.793
20
-181.775
11
225.285
21
-181.775
0
LINE
8
BLACK
10
223.838
20
-179.718
11
223.838
21
-180.251
0
LINE
8
BLACK
10
223.838
20
-180.251
11
224.346
21
-180.251
0
LINE
8
BLACK
10
224.346
20
-180.251
11
224.346
21
-179.718
0
LINE
8
BLACK
10
224.346
20
-179.718
11
223.838
21
-179.718
0
LINE
8
BLACK
10
225.336
20
-179.718
11
225.336
21
-180.251
0
LINE
8
BLACK
10
225.336
20
-180.251
11
225.844
21
-180.251
0
LINE
8
BLACK
10
225.844
20
-180.251
11
225.844
21
-179.718
0
LINE
8
BLACK
10
225.844
20
-179.718
11
225.336
21
-179.718
0
LINE
8
BLACK
10
217.996
20
-169.024
11
217.996
21
-169.558
0
LINE
8
BLACK
10
217.996
20
-169.558
11
218.504
21
-169.558
0
LINE
8
BLACK
10
218.504
20
-169.558
11
218.504
21
-169.024
0
LINE
8
BLACK
10
218.504
20
-169.024
11
217.996
21
-169.024
0
LINE
8
BLACK
10
219.494
20
-169.024
11
219.494
21
-169.558
0
LINE
8
BLACK
10
219.494
20
-169.558
11
220.002
21
-169.558
0
LINE
8
BLACK
10
220.002
20
-169.558
11
220.002
21
-169.024
0
LINE
8
BLACK
10
220.002
20
-169.024
11
219.494
21
-169.024
0
LINE
8
BLACK
10
217.996
20
-166.332
11
217.996
21
-166.865
0
LINE
8
BLACK
10
217.996
20
-166.865
11
218.504
21
-166.865
0
LINE
8
BLACK
10
218.504
20
-166.865
11
218.504
21
-166.332
0
LINE
8
BLACK
10
218.504
20
-166.332
11
217.996
21
-166.332
0
LINE
8
BLACK
10
219.494
20
-166.332
11
219.494
21
-166.865
0
LINE
8
BLACK
10
219.494
20
-166.865
11
220.002
21
-166.865
0
LINE
8
BLACK
10
220.002
20
-166.865
11
220.002
21
-166.332
0
LINE
8
BLACK
10
220.002
20
-166.332
11
219.494
21
-166.332
0
LINE
8
BLACK
10
253.632
20
-193.688
11
253.098
21
-193.688
0
LINE
8
BLACK
10
253.098
20
-193.688
11
253.098
21
-194.196
0
LINE
8
BLACK
10
253.098
20
-194.196
11
253.632
21
-194.196
0
LINE
8
BLACK
10
253.632
20
-194.196
11
253.632
21
-193.688
0
LINE
8
BLACK
10
253.632
20
-195.186
11
253.098
21
-195.186
0
LINE
8
BLACK
10
253.098
20
-195.186
11
253.098
21
-195.694
0
LINE
8
BLACK
10
253.098
20
-195.694
11
253.632
21
-195.694
0
LINE
8
BLACK
10
253.632
20
-195.694
11
253.632
21
-195.186
0
LINE
8
BLACK
10
227.825
20
-194.323
11
227.825
21
-194.856
0
LINE
8
BLACK
10
227.825
20
-194.856
11
228.333
21
-194.856
0
LINE
8
BLACK
10
228.333
20
-194.856
11
228.333
21
-194.323
0
LINE
8
BLACK
10
228.333
20
-194.323
11
227.825
21
-194.323
0
LINE
8
BLACK
10
229.324
20
-194.323
11
229.324
21
-194.856
0
LINE
8
BLACK
10
229.324
20
-194.856
11
229.832
21
-194.856
0
LINE
8
BLACK
10
229.832
20
-194.856
11
229.832
21
-194.323
0
LINE
8
BLACK
10
229.832
20
-194.323
11
229.324
21
-194.323
0
LINE
8
BLACK
10
257.975
20
-207.404
11
257.975
21
-206.87
0
LINE
8
BLACK
10
257.975
20
-206.87
11
257.467
21
-206.87
0
LINE
8
BLACK
10
257.467
20
-206.87
11
257.467
21
-207.404
0
LINE
8
BLACK
10
257.467
20
-207.404
11
257.975
21
-207.404
0
LINE
8
BLACK
10
256.477
20
-207.404
11
256.477
21
-206.87
0
LINE
8
BLACK
10
256.477
20
-206.87
11
255.969
21
-206.87
0
LINE
8
BLACK
10
255.969
20
-206.87
11
255.969
21
-207.404
0
LINE
8
BLACK
10
255.969
20
-207.404
11
256.477
21
-207.404
0
LINE
8
BLACK
10
216.548
20
-190.208
11
216.548
21
-189.675
0
LINE
8
BLACK
10
216.548
20
-189.675
11
216.04
21
-189.675
0
LINE
8
BLACK
10
216.04
20
-189.675
11
216.04
21
-190.208
0
LINE
8
BLACK
10
216.04
20
-190.208
11
216.548
21
-190.208
0
LINE
8
BLACK
10
215.049
20
-190.208
11
215.049
21
-189.675
0
LINE
8
BLACK
10
215.049
20
-189.675
11
214.541
21
-189.675
0
LINE
8
BLACK
10
214.541
20
-189.675
11
214.541
21
-190.208
0
LINE
8
BLACK
10
214.541
20
-190.208
11
215.049
21
-190.208
0
LINE
8
BLACK
10
202.222
20
-178.245
11
201.689
21
-178.245
0
LINE
8
BLACK
10
201.689
20
-178.245
11
201.689
21
-178.753
0
LINE
8
BLACK
10
201.689
20
-178.753
11
202.222
21
-178.753
0
LINE
8
BLACK
10
202.222
20
-178.753
11
202.222
21
-178.245
0
LINE
8
BLACK
10
202.222
20
-179.743
11
201.689
21
-179.743
0
LINE
8
BLACK
10
201.689
20
-179.743
11
201.689
21
-180.251
0
LINE
8
BLACK
10
201.689
20
-180.251
11
202.222
21
-180.251
0
LINE
8
BLACK
10
202.222
20
-180.251
11
202.222
21
-179.743
0
LINE
8
BLACK
10
230.137
20
-202.044
11
230.137
21
-201.511
0
LINE
8
BLACK
10
230.137
20
-201.511
11
229.629
21
-201.511
0
LINE
8
BLACK
10
229.629
20
-201.511
11
229.629
21
-202.044
0
LINE
8
BLACK
10
229.629
20
-202.044
11
230.137
21
-202.044
0
LINE
8
BLACK
10
228.638
20
-202.044
11
228.638
21
-201.511
0
LINE
8
BLACK
10
228.638
20
-201.511
11
228.13
21
-201.511
0
LINE
8
BLACK
10
228.13
20
-201.511
11
228.13
21
-202.044
0
LINE
8
BLACK
10
228.13
20
-202.044
11
228.638
21
-202.044
0
LINE
8
BLACK
10
204.178
20
-178.245
11
203.645
21
-178.245
0
LINE
8
BLACK
10
203.645
20
-178.245
11
203.645
21
-178.753
0
LINE
8
BLACK
10
203.645
20
-178.753
11
204.178
21
-178.753
0
LINE
8
BLACK
10
204.178
20
-178.753
11
204.178
21
-178.245
0
LINE
8
BLACK
10
204.178
20
-179.743
11
203.645
21
-179.743
0
LINE
8
BLACK
10
203.645
20
-179.743
11
203.645
21
-180.251
0
LINE
8
BLACK
10
203.645
20
-180.251
11
204.178
21
-180.251
0
LINE
8
BLACK
10
204.178
20
-180.251
11
204.178
21
-179.743
0
LINE
8
BLACK
10
206.515
20
-202.908
11
206.515
21
-200.901
0
LINE
8
BLACK
10
206.515
20
-200.901
11
204.61
21
-200.901
0
LINE
8
BLACK
10
204.61
20
-200.901
11
204.61
21
-202.908
0
LINE
8
BLACK
10
204.61
20
-202.908
11
206.515
21
-202.908
0
LINE
8
BLACK
10
201.638
20
-202.908
11
201.638
21
-200.901
0
LINE
8
BLACK
10
201.638
20
-200.901
11
199.733
21
-200.901
0
LINE
8
BLACK
10
199.733
20
-200.901
11
199.733
21
-202.908
0
LINE
8
BLACK
10
199.733
20
-202.908
11
201.638
21
-202.908
  0
ENDSEC
  0
EOF
