G04 (created by PCBNEW (2013-04-19 BZR 4011)-stable) date 23/05/2013 19:48:57*
%MOIN*%
G04 Gerber Fmt 3.4, Leading zero omitted, Abs format*
%FSLAX34Y34*%
G01*
G70*
G90*
G04 APERTURE LIST*
%ADD10C,0.006*%
%ADD11R,0.0165X0.0579*%
%ADD12R,0.06X0.016*%
%ADD13R,0.016X0.06*%
%ADD14C,0.1*%
%ADD15R,0.0311024X0.0118*%
%ADD16R,0.026X0.08*%
%ADD17R,0.078X0.021*%
%ADD18R,0.06X0.08*%
%ADD19R,0.031X0.03*%
%ADD20R,0.03X0.031*%
%ADD21C,0.079*%
%ADD22C,0.075*%
%ADD23C,0.066*%
%ADD24C,0.056*%
%ADD25C,0.24*%
%ADD26R,0.079X0.079*%
%ADD27R,0.1X0.33*%
%ADD28R,0.065X0.13*%
%ADD29R,0.42X0.42*%
%ADD30C,0.102362*%
%ADD31R,0.0511811X0.0413386*%
%ADD32C,0.06*%
%ADD33C,0.16*%
%ADD34C,0.063*%
G04 APERTURE END LIST*
G54D10*
G54D11*
X79648Y-69778D03*
X79392Y-69778D03*
X79136Y-69778D03*
X78880Y-69778D03*
X80412Y-71980D03*
X80416Y-69778D03*
X80160Y-69778D03*
X79904Y-69778D03*
X78624Y-71982D03*
X78880Y-71982D03*
X79136Y-71982D03*
X79392Y-71982D03*
X79648Y-71982D03*
X79904Y-71982D03*
X78624Y-69778D03*
X80160Y-71980D03*
X80672Y-69778D03*
X78368Y-69778D03*
X78368Y-71982D03*
X80672Y-71982D03*
X80927Y-69778D03*
X78113Y-69778D03*
X78113Y-71982D03*
X80927Y-71982D03*
X81183Y-69778D03*
X77857Y-69778D03*
X77857Y-71982D03*
X81183Y-71982D03*
G54D12*
X92240Y-75670D03*
X92240Y-75985D03*
X92240Y-76300D03*
X92240Y-76615D03*
X92240Y-76930D03*
X92240Y-77245D03*
X92240Y-75355D03*
X92240Y-75040D03*
X92240Y-74725D03*
X92240Y-74410D03*
X92240Y-74095D03*
X96740Y-75670D03*
X96740Y-75985D03*
X96740Y-76300D03*
X96740Y-76615D03*
X96740Y-76930D03*
X96740Y-77245D03*
X96740Y-75355D03*
X96740Y-75040D03*
X96740Y-74725D03*
X96740Y-74410D03*
X96740Y-74095D03*
G54D13*
X94490Y-77920D03*
X94490Y-73420D03*
X94805Y-77920D03*
X94805Y-73420D03*
X95120Y-73420D03*
X95120Y-77920D03*
X95435Y-77920D03*
X95435Y-73420D03*
X95750Y-73420D03*
X95750Y-77920D03*
X96065Y-77920D03*
X96065Y-73420D03*
X94175Y-73420D03*
X94175Y-77920D03*
X93860Y-77920D03*
X93860Y-73420D03*
X93545Y-73420D03*
X93545Y-77920D03*
X93230Y-77920D03*
X93230Y-73420D03*
X92915Y-73420D03*
X92915Y-77920D03*
G54D14*
X79390Y-81060D03*
X80770Y-81060D03*
G54D15*
X86319Y-66365D03*
X86319Y-66110D03*
X86319Y-65854D03*
X86980Y-65854D03*
X86980Y-66110D03*
X86980Y-66365D03*
X84860Y-74914D03*
X84860Y-75170D03*
X84860Y-75425D03*
X84199Y-75425D03*
X84199Y-75170D03*
X84199Y-74914D03*
X88559Y-71515D03*
X88559Y-71260D03*
X88559Y-71004D03*
X89220Y-71004D03*
X89220Y-71260D03*
X89220Y-71515D03*
G54D16*
X78220Y-76380D03*
X78720Y-76380D03*
X79220Y-76380D03*
X79720Y-76380D03*
X78220Y-74130D03*
X78720Y-74130D03*
X79220Y-74130D03*
X79720Y-74130D03*
G54D17*
X98860Y-76400D03*
X98860Y-76900D03*
X98860Y-77400D03*
X98860Y-77900D03*
X98860Y-78400D03*
X98860Y-78900D03*
X98860Y-79400D03*
X100800Y-79400D03*
X100800Y-78900D03*
X100800Y-78400D03*
X100800Y-77900D03*
X100800Y-77400D03*
X100800Y-76900D03*
X100800Y-76400D03*
G54D18*
X80720Y-78920D03*
X79420Y-78920D03*
G54D19*
X97510Y-75985D03*
X97510Y-75395D03*
G54D20*
X94765Y-72620D03*
X94175Y-72620D03*
X79815Y-68800D03*
X79225Y-68800D03*
X81015Y-72830D03*
X81605Y-72830D03*
X78985Y-72930D03*
X79575Y-72930D03*
X79215Y-77240D03*
X79805Y-77240D03*
X78715Y-77980D03*
X79305Y-77980D03*
G54D19*
X82610Y-70565D03*
X82610Y-71155D03*
X81860Y-70155D03*
X81860Y-69565D03*
X82500Y-82475D03*
X82500Y-83065D03*
X91480Y-75215D03*
X91480Y-75805D03*
X87760Y-71265D03*
X87760Y-71855D03*
X85610Y-75375D03*
X85610Y-74785D03*
G54D20*
X89915Y-79440D03*
X90505Y-79440D03*
X94785Y-79160D03*
X94195Y-79160D03*
X95135Y-78640D03*
X95725Y-78640D03*
G54D21*
X97390Y-79970D03*
X97390Y-80970D03*
X97390Y-81970D03*
G54D22*
X96020Y-82010D03*
X95020Y-82010D03*
G54D23*
X90380Y-77400D03*
X90380Y-78400D03*
G54D24*
X84150Y-69340D03*
X84150Y-71340D03*
G54D25*
X103220Y-82380D03*
X103220Y-72540D03*
G54D26*
X102660Y-79620D03*
G54D21*
X102660Y-78540D03*
X102660Y-77460D03*
X102660Y-76380D03*
X102660Y-75300D03*
X103780Y-75840D03*
X103780Y-76920D03*
X103780Y-78000D03*
X103780Y-79080D03*
G54D27*
X88010Y-78640D03*
X82870Y-78640D03*
G54D28*
X84440Y-82590D03*
G54D29*
X85440Y-79090D03*
G54D28*
X86440Y-82590D03*
G54D30*
X69172Y-74671D03*
X69172Y-77348D03*
X70314Y-77348D03*
X71732Y-77348D03*
X70314Y-74671D03*
X71732Y-74671D03*
X69172Y-66951D03*
X69172Y-69628D03*
X70314Y-69628D03*
X71732Y-69628D03*
X70314Y-66951D03*
X71732Y-66951D03*
G54D31*
X95272Y-80504D03*
X95272Y-79775D03*
X94367Y-80504D03*
X94367Y-79775D03*
G54D32*
X92110Y-80410D03*
X92110Y-81410D03*
X91110Y-80410D03*
X91110Y-81410D03*
X90110Y-80410D03*
X90110Y-81410D03*
G54D33*
X99260Y-82620D03*
G54D34*
X100170Y-71140D03*
X99380Y-71140D03*
X98590Y-71140D03*
X97810Y-71140D03*
X97020Y-71140D03*
X96240Y-71140D03*
X95450Y-71140D03*
X94660Y-71140D03*
X93870Y-71140D03*
X100170Y-70340D03*
X99380Y-70340D03*
X98590Y-70340D03*
X97810Y-70340D03*
X97020Y-70340D03*
X96240Y-70340D03*
X95450Y-70340D03*
X94660Y-70340D03*
X93870Y-70340D03*
G54D33*
X68760Y-82620D03*
X79260Y-65620D03*
X105760Y-65620D03*
M02*
