G04 (created by PCBNEW (2013-04-19 BZR 4011)-stable) date 23/05/2013 19:48:57*
%MOIN*%
G04 Gerber Fmt 3.4, Leading zero omitted, Abs format*
%FSLAX34Y34*%
G01*
G70*
G90*
G04 APERTURE LIST*
%ADD10C,0.006*%
%ADD11C,0.1*%
%ADD12R,0.05X0.1*%
%ADD13R,0.08X0.06*%
%ADD14R,0.035X0.12*%
%ADD15R,0.03X0.031*%
%ADD16R,0.031X0.03*%
%ADD17C,0.079*%
%ADD18C,0.075*%
%ADD19C,0.066*%
%ADD20C,0.056*%
%ADD21R,0.085X0.089*%
%ADD22C,0.24*%
%ADD23R,0.079X0.079*%
%ADD24C,0.102362*%
%ADD25C,0.06*%
%ADD26C,0.16*%
%ADD27C,0.063*%
G04 APERTURE END LIST*
G54D10*
G54D11*
X79390Y-81060D03*
X80770Y-81060D03*
G54D12*
X103620Y-74650D03*
X104820Y-74650D03*
G54D13*
X104850Y-79180D03*
X104850Y-77880D03*
G54D14*
X101495Y-82640D03*
X100845Y-82640D03*
G54D15*
X94035Y-76940D03*
X94625Y-76940D03*
X94035Y-77800D03*
X94625Y-77800D03*
G54D16*
X96640Y-75865D03*
X96640Y-75275D03*
G54D15*
X94035Y-78810D03*
X94625Y-78810D03*
G54D16*
X95800Y-75865D03*
X95800Y-75275D03*
G54D15*
X94945Y-74390D03*
X94355Y-74390D03*
X80885Y-71100D03*
X81475Y-71100D03*
X94945Y-73550D03*
X94355Y-73550D03*
G54D16*
X71732Y-76295D03*
X71732Y-75705D03*
X70314Y-76295D03*
X70314Y-75705D03*
X69172Y-76295D03*
X69172Y-75705D03*
X71732Y-68595D03*
X71732Y-68005D03*
X70314Y-68595D03*
X70314Y-68005D03*
X69172Y-68595D03*
X69172Y-68005D03*
X78680Y-70255D03*
X78680Y-69665D03*
G54D15*
X80885Y-71870D03*
X81475Y-71870D03*
G54D16*
X100650Y-76355D03*
X100650Y-76945D03*
G54D15*
X85155Y-75600D03*
X84565Y-75600D03*
X87485Y-82070D03*
X88075Y-82070D03*
X87485Y-82940D03*
X88075Y-82940D03*
G54D16*
X92330Y-75215D03*
X92330Y-75805D03*
X93190Y-75215D03*
X93190Y-75805D03*
G54D15*
X88205Y-71670D03*
X88795Y-71670D03*
X88225Y-70860D03*
X88815Y-70860D03*
X85925Y-66650D03*
X86515Y-66650D03*
X85925Y-65590D03*
X86515Y-65590D03*
G54D16*
X99750Y-76355D03*
X99750Y-76945D03*
G54D15*
X89795Y-76610D03*
X90385Y-76610D03*
X101465Y-81550D03*
X100875Y-81550D03*
X85155Y-74780D03*
X84565Y-74780D03*
G54D16*
X79510Y-70275D03*
X79510Y-70865D03*
G54D15*
X90505Y-79440D03*
X89915Y-79440D03*
G54D16*
X80280Y-70275D03*
X80280Y-70865D03*
G54D17*
X97390Y-79970D03*
X97390Y-80970D03*
X97390Y-81970D03*
G54D18*
X96020Y-82010D03*
X95020Y-82010D03*
G54D19*
X90380Y-77400D03*
X90380Y-78400D03*
G54D20*
X84150Y-69340D03*
X84150Y-71340D03*
G54D21*
X80930Y-79490D03*
X79010Y-79490D03*
G54D22*
X103220Y-82380D03*
X103220Y-72540D03*
G54D23*
X102660Y-79620D03*
G54D17*
X102660Y-78540D03*
X102660Y-77460D03*
X102660Y-76380D03*
X102660Y-75300D03*
X103780Y-75840D03*
X103780Y-76920D03*
X103780Y-78000D03*
X103780Y-79080D03*
G54D24*
X69172Y-74671D03*
X69172Y-77348D03*
X70314Y-77348D03*
X71732Y-77348D03*
X70314Y-74671D03*
X71732Y-74671D03*
X69172Y-66951D03*
X69172Y-69628D03*
X70314Y-69628D03*
X71732Y-69628D03*
X70314Y-66951D03*
X71732Y-66951D03*
G54D25*
X92110Y-80410D03*
X92110Y-81410D03*
X91110Y-80410D03*
X91110Y-81410D03*
X90110Y-80410D03*
X90110Y-81410D03*
G54D26*
X99260Y-82620D03*
G54D27*
X100170Y-71140D03*
X99380Y-71140D03*
X98590Y-71140D03*
X97810Y-71140D03*
X97020Y-71140D03*
X96240Y-71140D03*
X95450Y-71140D03*
X94660Y-71140D03*
X93870Y-71140D03*
X100170Y-70340D03*
X99380Y-70340D03*
X98590Y-70340D03*
X97810Y-70340D03*
X97020Y-70340D03*
X96240Y-70340D03*
X95450Y-70340D03*
X94660Y-70340D03*
X93870Y-70340D03*
G54D26*
X68760Y-82620D03*
X79260Y-65620D03*
X105760Y-65620D03*
M02*
