G04 (created by PCBNEW (2013-04-19 BZR 4011)-stable) date 23/05/2013 19:48:57*
%MOIN*%
G04 Gerber Fmt 3.4, Leading zero omitted, Abs format*
%FSLAX34Y34*%
G01*
G70*
G90*
G04 APERTURE LIST*
%ADD10C,0.006*%
%ADD11C,0.1*%
%ADD12C,0.079*%
%ADD13C,0.075*%
%ADD14C,0.066*%
%ADD15C,0.056*%
%ADD16C,0.24*%
%ADD17R,0.079X0.079*%
%ADD18C,0.102362*%
%ADD19C,0.06*%
%ADD20C,0.16*%
%ADD21C,0.063*%
%ADD22C,0.041*%
%ADD23C,0.031*%
%ADD24C,0.025*%
%ADD25C,0.01*%
G04 APERTURE END LIST*
G54D10*
G54D11*
X79390Y-81060D03*
X80770Y-81060D03*
G54D12*
X97390Y-79970D03*
X97390Y-80970D03*
X97390Y-81970D03*
G54D13*
X96020Y-82010D03*
X95020Y-82010D03*
G54D14*
X90380Y-77400D03*
X90380Y-78400D03*
G54D15*
X84150Y-69340D03*
X84150Y-71340D03*
G54D16*
X103220Y-82380D03*
X103220Y-72540D03*
G54D17*
X102660Y-79620D03*
G54D12*
X102660Y-78540D03*
X102660Y-77460D03*
X102660Y-76380D03*
X102660Y-75300D03*
X103780Y-75840D03*
X103780Y-76920D03*
X103780Y-78000D03*
X103780Y-79080D03*
G54D18*
X69172Y-74671D03*
X69172Y-77348D03*
X70314Y-77348D03*
X71732Y-77348D03*
X70314Y-74671D03*
X71732Y-74671D03*
X69172Y-66951D03*
X69172Y-69628D03*
X70314Y-69628D03*
X71732Y-69628D03*
X70314Y-66951D03*
X71732Y-66951D03*
G54D19*
X92110Y-80410D03*
X92110Y-81410D03*
X91110Y-80410D03*
X91110Y-81410D03*
X90110Y-80410D03*
X90110Y-81410D03*
G54D20*
X99260Y-82620D03*
G54D21*
X100170Y-71140D03*
X99380Y-71140D03*
X98590Y-71140D03*
X97810Y-71140D03*
X97020Y-71140D03*
X96240Y-71140D03*
X95450Y-71140D03*
X94660Y-71140D03*
X93870Y-71140D03*
X100170Y-70340D03*
X99380Y-70340D03*
X98590Y-70340D03*
X97810Y-70340D03*
X97020Y-70340D03*
X96240Y-70340D03*
X95450Y-70340D03*
X94660Y-70340D03*
X93870Y-70340D03*
G54D20*
X68760Y-82620D03*
X79260Y-65620D03*
X105760Y-65620D03*
G54D15*
X85880Y-67090D03*
X85830Y-66110D03*
G54D22*
X88150Y-72230D03*
G54D23*
X88160Y-71260D03*
G54D15*
X87310Y-71160D03*
G54D23*
X89630Y-77140D03*
X79820Y-68410D03*
X79060Y-70340D03*
X79900Y-70270D03*
X80930Y-71480D03*
X81010Y-73160D03*
X85990Y-75380D03*
X85160Y-75980D03*
X85210Y-75170D03*
G54D22*
X78260Y-77980D03*
G54D15*
X85780Y-81980D03*
G54D23*
X92750Y-75300D03*
G54D22*
X91010Y-75220D03*
G54D23*
X94920Y-73970D03*
X96220Y-75770D03*
X94070Y-77380D03*
X91230Y-79020D03*
X94070Y-78450D03*
X94760Y-72150D03*
X98020Y-75980D03*
X100200Y-76400D03*
G54D22*
X87230Y-82510D03*
X87400Y-81620D03*
X87490Y-83420D03*
G54D23*
X78370Y-68790D03*
X78370Y-72980D03*
X101360Y-77400D03*
X96410Y-77920D03*
X98200Y-76910D03*
X101370Y-78900D03*
G54D15*
X81750Y-80060D03*
X81150Y-77570D03*
X81800Y-76510D03*
X83930Y-76380D03*
X89150Y-78020D03*
X88280Y-80910D03*
X88520Y-76520D03*
X86660Y-76520D03*
X86550Y-67100D03*
G54D24*
X86700Y-66110D03*
G54D22*
X82970Y-71530D03*
X82370Y-69560D03*
X88940Y-72180D03*
G54D24*
X88940Y-71260D03*
G54D15*
X87310Y-71860D03*
G54D23*
X79220Y-68400D03*
X79090Y-70870D03*
X79900Y-70870D03*
X79780Y-71420D03*
X81440Y-71480D03*
X81610Y-73170D03*
X79780Y-72430D03*
X79580Y-73260D03*
X84560Y-75980D03*
G54D24*
X84480Y-75170D03*
G54D23*
X85990Y-74780D03*
G54D22*
X80240Y-76950D03*
X88080Y-82510D03*
X88080Y-83410D03*
X88070Y-81610D03*
X82080Y-83060D03*
G54D23*
X92750Y-75710D03*
G54D22*
X91000Y-75800D03*
G54D23*
X94390Y-73970D03*
X96230Y-75350D03*
X94610Y-77380D03*
X91230Y-79550D03*
X94480Y-78400D03*
X94180Y-72150D03*
X98000Y-75400D03*
G54D15*
X104820Y-75640D03*
G54D23*
X100210Y-76900D03*
X100220Y-79400D03*
X99430Y-79400D03*
G54D22*
X95910Y-79250D03*
X93640Y-79400D03*
G54D23*
X79510Y-69300D03*
X89920Y-78910D03*
X93490Y-78740D03*
X95740Y-77360D03*
G54D10*
G36*
X106910Y-83770D02*
X106810Y-83770D01*
X106810Y-65412D01*
X106650Y-65026D01*
X106355Y-64730D01*
X105969Y-64570D01*
X105552Y-64569D01*
X105166Y-64729D01*
X104870Y-65024D01*
X104710Y-65410D01*
X104709Y-65827D01*
X104869Y-66214D01*
X105164Y-66509D01*
X105550Y-66669D01*
X105967Y-66670D01*
X106354Y-66510D01*
X106649Y-66215D01*
X106809Y-65829D01*
X106810Y-65412D01*
X106810Y-83770D01*
X103652Y-83770D01*
X104040Y-83609D01*
X104448Y-83202D01*
X104669Y-82669D01*
X104670Y-82092D01*
X104670Y-72252D01*
X104449Y-71719D01*
X104042Y-71311D01*
X103509Y-71090D01*
X102932Y-71089D01*
X102399Y-71310D01*
X101991Y-71717D01*
X101770Y-72250D01*
X101769Y-72827D01*
X101990Y-73360D01*
X102397Y-73768D01*
X102930Y-73989D01*
X103507Y-73990D01*
X104040Y-73769D01*
X104448Y-73362D01*
X104669Y-72829D01*
X104670Y-72252D01*
X104670Y-82092D01*
X104449Y-81559D01*
X104425Y-81534D01*
X104425Y-78952D01*
X104327Y-78715D01*
X104152Y-78539D01*
X104326Y-78365D01*
X104424Y-78128D01*
X104425Y-77872D01*
X104327Y-77635D01*
X104152Y-77459D01*
X104326Y-77285D01*
X104424Y-77048D01*
X104425Y-76792D01*
X104327Y-76555D01*
X104152Y-76379D01*
X104326Y-76205D01*
X104424Y-75968D01*
X104425Y-75712D01*
X104327Y-75475D01*
X104145Y-75293D01*
X103908Y-75195D01*
X103652Y-75194D01*
X103415Y-75292D01*
X103304Y-75402D01*
X103305Y-75172D01*
X103207Y-74935D01*
X103025Y-74753D01*
X102788Y-74655D01*
X102532Y-74654D01*
X102295Y-74752D01*
X102113Y-74934D01*
X102015Y-75171D01*
X102014Y-75427D01*
X102112Y-75664D01*
X102287Y-75840D01*
X102113Y-76014D01*
X102015Y-76251D01*
X102014Y-76507D01*
X102112Y-76744D01*
X102287Y-76920D01*
X102113Y-77094D01*
X102015Y-77331D01*
X102014Y-77587D01*
X102112Y-77824D01*
X102287Y-78000D01*
X102113Y-78174D01*
X102015Y-78411D01*
X102014Y-78667D01*
X102112Y-78904D01*
X102192Y-78984D01*
X102123Y-79012D01*
X102053Y-79083D01*
X102015Y-79175D01*
X102014Y-79274D01*
X102014Y-80064D01*
X102052Y-80156D01*
X102123Y-80226D01*
X102215Y-80264D01*
X102314Y-80265D01*
X103104Y-80265D01*
X103196Y-80227D01*
X103266Y-80156D01*
X103304Y-80064D01*
X103305Y-79965D01*
X103305Y-79517D01*
X103414Y-79626D01*
X103651Y-79724D01*
X103907Y-79725D01*
X104144Y-79627D01*
X104326Y-79445D01*
X104424Y-79208D01*
X104425Y-78952D01*
X104425Y-81534D01*
X104042Y-81151D01*
X103509Y-80930D01*
X102932Y-80929D01*
X102399Y-81150D01*
X101991Y-81557D01*
X101775Y-82078D01*
X101775Y-78819D01*
X101765Y-78795D01*
X101765Y-77319D01*
X101703Y-77170D01*
X101589Y-77056D01*
X101440Y-76995D01*
X101279Y-76994D01*
X101130Y-77056D01*
X101016Y-77170D01*
X100955Y-77319D01*
X100954Y-77480D01*
X101016Y-77629D01*
X101130Y-77743D01*
X101279Y-77804D01*
X101440Y-77805D01*
X101589Y-77743D01*
X101703Y-77629D01*
X101764Y-77480D01*
X101765Y-77319D01*
X101765Y-78795D01*
X101713Y-78670D01*
X101599Y-78556D01*
X101450Y-78495D01*
X101289Y-78494D01*
X101140Y-78556D01*
X101026Y-78670D01*
X100965Y-78819D01*
X100964Y-78980D01*
X101026Y-79129D01*
X101140Y-79243D01*
X101289Y-79304D01*
X101450Y-79305D01*
X101599Y-79243D01*
X101713Y-79129D01*
X101774Y-78980D01*
X101775Y-78819D01*
X101775Y-82078D01*
X101770Y-82090D01*
X101769Y-82667D01*
X101990Y-83200D01*
X102397Y-83608D01*
X102786Y-83770D01*
X100739Y-83770D01*
X100739Y-70425D01*
X100729Y-70200D01*
X100663Y-70043D01*
X100566Y-70013D01*
X100496Y-70084D01*
X100496Y-69943D01*
X100466Y-69846D01*
X100255Y-69770D01*
X100030Y-69780D01*
X99873Y-69846D01*
X99843Y-69943D01*
X100170Y-70269D01*
X100496Y-69943D01*
X100496Y-70084D01*
X100240Y-70340D01*
X100566Y-70666D01*
X100663Y-70636D01*
X100739Y-70425D01*
X100739Y-83770D01*
X100735Y-83770D01*
X100735Y-71028D01*
X100649Y-70820D01*
X100490Y-70661D01*
X100370Y-70611D01*
X100170Y-70410D01*
X100164Y-70416D01*
X100099Y-70351D01*
X100093Y-70345D01*
X100099Y-70340D01*
X99924Y-70164D01*
X99873Y-70043D01*
X99776Y-70013D01*
X99775Y-70015D01*
X99773Y-70013D01*
X99706Y-70034D01*
X99706Y-69943D01*
X99676Y-69846D01*
X99465Y-69770D01*
X99240Y-69780D01*
X99083Y-69846D01*
X99053Y-69943D01*
X99380Y-70269D01*
X99706Y-69943D01*
X99706Y-70034D01*
X99676Y-70043D01*
X99636Y-70154D01*
X99450Y-70340D01*
X99456Y-70345D01*
X99385Y-70416D01*
X99380Y-70410D01*
X99374Y-70416D01*
X99309Y-70351D01*
X99303Y-70345D01*
X99309Y-70340D01*
X99134Y-70164D01*
X99083Y-70043D01*
X98986Y-70013D01*
X98985Y-70015D01*
X98983Y-70013D01*
X98916Y-70034D01*
X98916Y-69943D01*
X98886Y-69846D01*
X98675Y-69770D01*
X98450Y-69780D01*
X98293Y-69846D01*
X98263Y-69943D01*
X98590Y-70269D01*
X98916Y-69943D01*
X98916Y-70034D01*
X98886Y-70043D01*
X98846Y-70154D01*
X98660Y-70340D01*
X98666Y-70345D01*
X98595Y-70416D01*
X98590Y-70410D01*
X98584Y-70416D01*
X98519Y-70351D01*
X98513Y-70345D01*
X98519Y-70340D01*
X98361Y-70181D01*
X98303Y-70043D01*
X98206Y-70013D01*
X98200Y-70020D01*
X98193Y-70013D01*
X98136Y-70031D01*
X98136Y-69943D01*
X98106Y-69846D01*
X97895Y-69770D01*
X97670Y-69780D01*
X97513Y-69846D01*
X97483Y-69943D01*
X97810Y-70269D01*
X98136Y-69943D01*
X98136Y-70031D01*
X98096Y-70043D01*
X98050Y-70169D01*
X97880Y-70340D01*
X97886Y-70345D01*
X97815Y-70416D01*
X97810Y-70410D01*
X97804Y-70416D01*
X97739Y-70351D01*
X97733Y-70345D01*
X97739Y-70340D01*
X97564Y-70164D01*
X97513Y-70043D01*
X97416Y-70013D01*
X97415Y-70015D01*
X97413Y-70013D01*
X97346Y-70034D01*
X97346Y-69943D01*
X97316Y-69846D01*
X97105Y-69770D01*
X96880Y-69780D01*
X96723Y-69846D01*
X96693Y-69943D01*
X97020Y-70269D01*
X97346Y-69943D01*
X97346Y-70034D01*
X97316Y-70043D01*
X97276Y-70154D01*
X97090Y-70340D01*
X97096Y-70345D01*
X97025Y-70416D01*
X97020Y-70410D01*
X97014Y-70416D01*
X96949Y-70351D01*
X96943Y-70345D01*
X96949Y-70340D01*
X96791Y-70181D01*
X96733Y-70043D01*
X96636Y-70013D01*
X96630Y-70020D01*
X96623Y-70013D01*
X96566Y-70031D01*
X96566Y-69943D01*
X96536Y-69846D01*
X96325Y-69770D01*
X96100Y-69780D01*
X95943Y-69846D01*
X95913Y-69943D01*
X96240Y-70269D01*
X96566Y-69943D01*
X96566Y-70031D01*
X96526Y-70043D01*
X96480Y-70169D01*
X96310Y-70340D01*
X96316Y-70345D01*
X96245Y-70416D01*
X96240Y-70410D01*
X96234Y-70416D01*
X96169Y-70351D01*
X96163Y-70345D01*
X96169Y-70340D01*
X95994Y-70164D01*
X95943Y-70043D01*
X95846Y-70013D01*
X95845Y-70015D01*
X95843Y-70013D01*
X95776Y-70034D01*
X95776Y-69943D01*
X95746Y-69846D01*
X95535Y-69770D01*
X95310Y-69780D01*
X95153Y-69846D01*
X95123Y-69943D01*
X95450Y-70269D01*
X95776Y-69943D01*
X95776Y-70034D01*
X95746Y-70043D01*
X95706Y-70154D01*
X95520Y-70340D01*
X95526Y-70345D01*
X95455Y-70416D01*
X95450Y-70410D01*
X95444Y-70416D01*
X95379Y-70351D01*
X95373Y-70345D01*
X95379Y-70340D01*
X95204Y-70164D01*
X95153Y-70043D01*
X95056Y-70013D01*
X95055Y-70015D01*
X95053Y-70013D01*
X94986Y-70034D01*
X94986Y-69943D01*
X94956Y-69846D01*
X94745Y-69770D01*
X94520Y-69780D01*
X94363Y-69846D01*
X94333Y-69943D01*
X94660Y-70269D01*
X94986Y-69943D01*
X94986Y-70034D01*
X94956Y-70043D01*
X94916Y-70154D01*
X94730Y-70340D01*
X94736Y-70345D01*
X94665Y-70416D01*
X94660Y-70410D01*
X94654Y-70416D01*
X94589Y-70351D01*
X94583Y-70345D01*
X94589Y-70340D01*
X94414Y-70164D01*
X94363Y-70043D01*
X94266Y-70013D01*
X94265Y-70015D01*
X94263Y-70013D01*
X94196Y-70034D01*
X94196Y-69943D01*
X94166Y-69846D01*
X93955Y-69770D01*
X93730Y-69780D01*
X93573Y-69846D01*
X93543Y-69943D01*
X93870Y-70269D01*
X94196Y-69943D01*
X94196Y-70034D01*
X94166Y-70043D01*
X94126Y-70154D01*
X93940Y-70340D01*
X93946Y-70345D01*
X93875Y-70416D01*
X93870Y-70410D01*
X93799Y-70481D01*
X93799Y-70340D01*
X93473Y-70013D01*
X93376Y-70043D01*
X93300Y-70254D01*
X93310Y-70479D01*
X93376Y-70636D01*
X93473Y-70666D01*
X93799Y-70340D01*
X93799Y-70481D01*
X93668Y-70611D01*
X93550Y-70660D01*
X93391Y-70819D01*
X93305Y-71027D01*
X93304Y-71251D01*
X93390Y-71459D01*
X93549Y-71618D01*
X93757Y-71704D01*
X93981Y-71705D01*
X94189Y-71619D01*
X94264Y-71544D01*
X94339Y-71618D01*
X94547Y-71704D01*
X94771Y-71705D01*
X94979Y-71619D01*
X95054Y-71544D01*
X95129Y-71618D01*
X95337Y-71704D01*
X95561Y-71705D01*
X95769Y-71619D01*
X95844Y-71544D01*
X95919Y-71618D01*
X96127Y-71704D01*
X96351Y-71705D01*
X96559Y-71619D01*
X96629Y-71549D01*
X96699Y-71618D01*
X96907Y-71704D01*
X97131Y-71705D01*
X97339Y-71619D01*
X97414Y-71544D01*
X97489Y-71618D01*
X97697Y-71704D01*
X97921Y-71705D01*
X98129Y-71619D01*
X98199Y-71549D01*
X98269Y-71618D01*
X98477Y-71704D01*
X98701Y-71705D01*
X98909Y-71619D01*
X98984Y-71544D01*
X99059Y-71618D01*
X99267Y-71704D01*
X99491Y-71705D01*
X99699Y-71619D01*
X99774Y-71544D01*
X99849Y-71618D01*
X100057Y-71704D01*
X100281Y-71705D01*
X100489Y-71619D01*
X100648Y-71460D01*
X100734Y-71252D01*
X100735Y-71028D01*
X100735Y-83770D01*
X100605Y-83770D01*
X100605Y-76319D01*
X100543Y-76170D01*
X100429Y-76056D01*
X100280Y-75995D01*
X100119Y-75994D01*
X99970Y-76056D01*
X99856Y-76170D01*
X99795Y-76319D01*
X99794Y-76480D01*
X99856Y-76629D01*
X99970Y-76743D01*
X100119Y-76804D01*
X100280Y-76805D01*
X100429Y-76743D01*
X100543Y-76629D01*
X100604Y-76480D01*
X100605Y-76319D01*
X100605Y-83770D01*
X100311Y-83770D01*
X100311Y-82821D01*
X100308Y-82403D01*
X100154Y-82031D01*
X100007Y-81943D01*
X99936Y-82014D01*
X99936Y-81872D01*
X99848Y-81725D01*
X99461Y-81568D01*
X99043Y-81571D01*
X98671Y-81725D01*
X98605Y-81836D01*
X98605Y-76829D01*
X98543Y-76680D01*
X98429Y-76566D01*
X98425Y-76564D01*
X98425Y-75899D01*
X98363Y-75750D01*
X98249Y-75636D01*
X98100Y-75575D01*
X97939Y-75574D01*
X97790Y-75636D01*
X97676Y-75750D01*
X97615Y-75899D01*
X97614Y-76060D01*
X97676Y-76209D01*
X97790Y-76323D01*
X97939Y-76384D01*
X98100Y-76385D01*
X98249Y-76323D01*
X98363Y-76209D01*
X98424Y-76060D01*
X98425Y-75899D01*
X98425Y-76564D01*
X98280Y-76505D01*
X98119Y-76504D01*
X97970Y-76566D01*
X97856Y-76680D01*
X97795Y-76829D01*
X97794Y-76990D01*
X97856Y-77139D01*
X97970Y-77253D01*
X98119Y-77314D01*
X98280Y-77315D01*
X98429Y-77253D01*
X98543Y-77139D01*
X98604Y-76990D01*
X98605Y-76829D01*
X98605Y-81836D01*
X98583Y-81872D01*
X99260Y-82549D01*
X99936Y-81872D01*
X99936Y-82014D01*
X99330Y-82620D01*
X100007Y-83296D01*
X100154Y-83208D01*
X100311Y-82821D01*
X100311Y-83770D01*
X99936Y-83770D01*
X99936Y-83367D01*
X99260Y-82690D01*
X99189Y-82761D01*
X99189Y-82620D01*
X98512Y-81943D01*
X98365Y-82031D01*
X98208Y-82418D01*
X98211Y-82836D01*
X98365Y-83208D01*
X98512Y-83296D01*
X99189Y-82620D01*
X99189Y-82761D01*
X98583Y-83367D01*
X98671Y-83514D01*
X99058Y-83671D01*
X99476Y-83668D01*
X99848Y-83514D01*
X99936Y-83367D01*
X99936Y-83770D01*
X98039Y-83770D01*
X98039Y-82074D01*
X98035Y-81961D01*
X98035Y-80842D01*
X97937Y-80605D01*
X97802Y-80469D01*
X97936Y-80335D01*
X98034Y-80098D01*
X98035Y-79842D01*
X97937Y-79605D01*
X97755Y-79423D01*
X97518Y-79325D01*
X97262Y-79324D01*
X97025Y-79422D01*
X96843Y-79604D01*
X96815Y-79672D01*
X96815Y-77839D01*
X96753Y-77690D01*
X96639Y-77576D01*
X96625Y-77570D01*
X96625Y-75689D01*
X96563Y-75540D01*
X96449Y-75426D01*
X96300Y-75365D01*
X96139Y-75364D01*
X95990Y-75426D01*
X95876Y-75540D01*
X95815Y-75689D01*
X95814Y-75850D01*
X95876Y-75999D01*
X95990Y-76113D01*
X96139Y-76174D01*
X96300Y-76175D01*
X96449Y-76113D01*
X96563Y-75999D01*
X96624Y-75850D01*
X96625Y-75689D01*
X96625Y-77570D01*
X96490Y-77515D01*
X96329Y-77514D01*
X96180Y-77576D01*
X96145Y-77612D01*
X96145Y-77279D01*
X96083Y-77130D01*
X95969Y-77016D01*
X95820Y-76955D01*
X95659Y-76954D01*
X95510Y-77016D01*
X95396Y-77130D01*
X95335Y-77279D01*
X95334Y-77440D01*
X95396Y-77589D01*
X95510Y-77703D01*
X95659Y-77764D01*
X95820Y-77765D01*
X95969Y-77703D01*
X96083Y-77589D01*
X96144Y-77440D01*
X96145Y-77279D01*
X96145Y-77612D01*
X96066Y-77690D01*
X96005Y-77839D01*
X96004Y-78000D01*
X96066Y-78149D01*
X96180Y-78263D01*
X96329Y-78324D01*
X96490Y-78325D01*
X96639Y-78263D01*
X96753Y-78149D01*
X96814Y-78000D01*
X96815Y-77839D01*
X96815Y-79672D01*
X96745Y-79841D01*
X96744Y-80097D01*
X96842Y-80334D01*
X96977Y-80470D01*
X96843Y-80604D01*
X96745Y-80841D01*
X96744Y-81097D01*
X96842Y-81334D01*
X97010Y-81502D01*
X97006Y-81515D01*
X97390Y-81899D01*
X97773Y-81515D01*
X97769Y-81502D01*
X97936Y-81335D01*
X98034Y-81098D01*
X98035Y-80842D01*
X98035Y-81961D01*
X98029Y-81818D01*
X97949Y-81625D01*
X97844Y-81586D01*
X97460Y-81970D01*
X97844Y-82353D01*
X97949Y-82314D01*
X98039Y-82074D01*
X98039Y-83770D01*
X97773Y-83770D01*
X97773Y-82424D01*
X97390Y-82040D01*
X97319Y-82111D01*
X97319Y-81970D01*
X96935Y-81586D01*
X96830Y-81625D01*
X96740Y-81865D01*
X96750Y-82121D01*
X96830Y-82314D01*
X96935Y-82353D01*
X97319Y-81970D01*
X97319Y-82111D01*
X97006Y-82424D01*
X97045Y-82529D01*
X97285Y-82619D01*
X97541Y-82609D01*
X97734Y-82529D01*
X97773Y-82424D01*
X97773Y-83770D01*
X96645Y-83770D01*
X96645Y-81886D01*
X96550Y-81656D01*
X96374Y-81480D01*
X96144Y-81385D01*
X95896Y-81384D01*
X95666Y-81479D01*
X95493Y-81652D01*
X95460Y-81640D01*
X95389Y-81711D01*
X95389Y-81569D01*
X95352Y-81466D01*
X95325Y-81456D01*
X95325Y-73889D01*
X95263Y-73740D01*
X95165Y-73642D01*
X95165Y-72069D01*
X95103Y-71920D01*
X94989Y-71806D01*
X94840Y-71745D01*
X94679Y-71744D01*
X94530Y-71806D01*
X94416Y-71920D01*
X94355Y-72069D01*
X94354Y-72230D01*
X94416Y-72379D01*
X94530Y-72493D01*
X94679Y-72554D01*
X94840Y-72555D01*
X94989Y-72493D01*
X95103Y-72379D01*
X95164Y-72230D01*
X95165Y-72069D01*
X95165Y-73642D01*
X95149Y-73626D01*
X95000Y-73565D01*
X94839Y-73564D01*
X94690Y-73626D01*
X94576Y-73740D01*
X94515Y-73889D01*
X94514Y-74050D01*
X94576Y-74199D01*
X94690Y-74313D01*
X94839Y-74374D01*
X95000Y-74375D01*
X95149Y-74313D01*
X95263Y-74199D01*
X95324Y-74050D01*
X95325Y-73889D01*
X95325Y-81456D01*
X95119Y-81380D01*
X94871Y-81390D01*
X94687Y-81466D01*
X94650Y-81569D01*
X95020Y-81939D01*
X95389Y-81569D01*
X95389Y-81711D01*
X95090Y-82010D01*
X95460Y-82379D01*
X95493Y-82367D01*
X95665Y-82539D01*
X95895Y-82634D01*
X96143Y-82635D01*
X96373Y-82540D01*
X96549Y-82364D01*
X96644Y-82134D01*
X96645Y-81886D01*
X96645Y-83770D01*
X95389Y-83770D01*
X95389Y-82450D01*
X95020Y-82080D01*
X94949Y-82151D01*
X94949Y-82010D01*
X94579Y-81640D01*
X94476Y-81677D01*
X94475Y-81681D01*
X94475Y-78369D01*
X94475Y-77299D01*
X94413Y-77150D01*
X94299Y-77036D01*
X94150Y-76975D01*
X93989Y-76974D01*
X93840Y-77036D01*
X93726Y-77150D01*
X93665Y-77299D01*
X93664Y-77460D01*
X93726Y-77609D01*
X93840Y-77723D01*
X93989Y-77784D01*
X94150Y-77785D01*
X94299Y-77723D01*
X94413Y-77609D01*
X94474Y-77460D01*
X94475Y-77299D01*
X94475Y-78369D01*
X94413Y-78220D01*
X94299Y-78106D01*
X94150Y-78045D01*
X93989Y-78044D01*
X93840Y-78106D01*
X93726Y-78220D01*
X93665Y-78369D01*
X93665Y-78374D01*
X93570Y-78335D01*
X93409Y-78334D01*
X93260Y-78396D01*
X93155Y-78502D01*
X93155Y-75219D01*
X93093Y-75070D01*
X92979Y-74956D01*
X92830Y-74895D01*
X92669Y-74894D01*
X92520Y-74956D01*
X92406Y-75070D01*
X92345Y-75219D01*
X92344Y-75380D01*
X92406Y-75529D01*
X92520Y-75643D01*
X92669Y-75704D01*
X92830Y-75705D01*
X92979Y-75643D01*
X93093Y-75529D01*
X93154Y-75380D01*
X93155Y-75219D01*
X93155Y-78502D01*
X93146Y-78510D01*
X93085Y-78659D01*
X93084Y-78820D01*
X93146Y-78969D01*
X93260Y-79083D01*
X93409Y-79144D01*
X93570Y-79145D01*
X93719Y-79083D01*
X93833Y-78969D01*
X93894Y-78820D01*
X93894Y-78815D01*
X93989Y-78854D01*
X94150Y-78855D01*
X94299Y-78793D01*
X94413Y-78679D01*
X94474Y-78530D01*
X94475Y-78369D01*
X94475Y-81681D01*
X94390Y-81910D01*
X94400Y-82158D01*
X94476Y-82342D01*
X94579Y-82379D01*
X94949Y-82010D01*
X94949Y-82151D01*
X94650Y-82450D01*
X94687Y-82553D01*
X94920Y-82639D01*
X95168Y-82629D01*
X95352Y-82553D01*
X95389Y-82450D01*
X95389Y-83770D01*
X92660Y-83770D01*
X92660Y-81301D01*
X92576Y-81098D01*
X92421Y-80944D01*
X92340Y-80910D01*
X92421Y-80876D01*
X92575Y-80721D01*
X92659Y-80519D01*
X92660Y-80301D01*
X92576Y-80098D01*
X92421Y-79944D01*
X92219Y-79860D01*
X92001Y-79859D01*
X91798Y-79943D01*
X91644Y-80098D01*
X91635Y-80119D01*
X91635Y-78939D01*
X91573Y-78790D01*
X91465Y-78682D01*
X91465Y-75129D01*
X91395Y-74962D01*
X91268Y-74834D01*
X91100Y-74765D01*
X90919Y-74764D01*
X90752Y-74834D01*
X90624Y-74961D01*
X90555Y-75129D01*
X90554Y-75310D01*
X90624Y-75477D01*
X90751Y-75605D01*
X90919Y-75674D01*
X91100Y-75675D01*
X91267Y-75605D01*
X91395Y-75478D01*
X91464Y-75310D01*
X91465Y-75129D01*
X91465Y-78682D01*
X91459Y-78676D01*
X91310Y-78615D01*
X91149Y-78614D01*
X91000Y-78676D01*
X90960Y-78717D01*
X90960Y-78285D01*
X90871Y-78071D01*
X90708Y-77908D01*
X90688Y-77900D01*
X90708Y-77891D01*
X90871Y-77728D01*
X90959Y-77515D01*
X90960Y-77285D01*
X90871Y-77071D01*
X90708Y-76908D01*
X90495Y-76820D01*
X90265Y-76819D01*
X90051Y-76908D01*
X89995Y-76964D01*
X89973Y-76910D01*
X89859Y-76796D01*
X89710Y-76735D01*
X89549Y-76734D01*
X89400Y-76796D01*
X89286Y-76910D01*
X89225Y-77059D01*
X89224Y-77220D01*
X89286Y-77369D01*
X89400Y-77483D01*
X89549Y-77544D01*
X89710Y-77545D01*
X89799Y-77508D01*
X89799Y-77514D01*
X89888Y-77728D01*
X90051Y-77891D01*
X90071Y-77899D01*
X90051Y-77908D01*
X89888Y-78071D01*
X89800Y-78284D01*
X89799Y-78514D01*
X89802Y-78520D01*
X89690Y-78566D01*
X89576Y-78680D01*
X89515Y-78829D01*
X89514Y-78990D01*
X89576Y-79139D01*
X89690Y-79253D01*
X89839Y-79314D01*
X90000Y-79315D01*
X90149Y-79253D01*
X90263Y-79139D01*
X90324Y-78990D01*
X90324Y-78979D01*
X90494Y-78980D01*
X90708Y-78891D01*
X90871Y-78728D01*
X90959Y-78515D01*
X90960Y-78285D01*
X90960Y-78717D01*
X90886Y-78790D01*
X90825Y-78939D01*
X90824Y-79100D01*
X90886Y-79249D01*
X91000Y-79363D01*
X91149Y-79424D01*
X91310Y-79425D01*
X91459Y-79363D01*
X91573Y-79249D01*
X91634Y-79100D01*
X91635Y-78939D01*
X91635Y-80119D01*
X91610Y-80179D01*
X91576Y-80098D01*
X91421Y-79944D01*
X91219Y-79860D01*
X91001Y-79859D01*
X90798Y-79943D01*
X90644Y-80098D01*
X90610Y-80179D01*
X90576Y-80098D01*
X90421Y-79944D01*
X90219Y-79860D01*
X90001Y-79859D01*
X89798Y-79943D01*
X89644Y-80098D01*
X89560Y-80300D01*
X89559Y-80518D01*
X89643Y-80721D01*
X89798Y-80875D01*
X89873Y-80907D01*
X89822Y-80928D01*
X89794Y-81024D01*
X90110Y-81339D01*
X90425Y-81024D01*
X90397Y-80928D01*
X90342Y-80909D01*
X90421Y-80876D01*
X90575Y-80721D01*
X90609Y-80640D01*
X90643Y-80721D01*
X90798Y-80875D01*
X90879Y-80909D01*
X90798Y-80943D01*
X90644Y-81098D01*
X90612Y-81173D01*
X90591Y-81122D01*
X90495Y-81094D01*
X90180Y-81410D01*
X90495Y-81725D01*
X90591Y-81697D01*
X90610Y-81642D01*
X90643Y-81721D01*
X90798Y-81875D01*
X91000Y-81959D01*
X91218Y-81960D01*
X91421Y-81876D01*
X91575Y-81721D01*
X91609Y-81640D01*
X91643Y-81721D01*
X91798Y-81875D01*
X92000Y-81959D01*
X92218Y-81960D01*
X92421Y-81876D01*
X92575Y-81721D01*
X92659Y-81519D01*
X92660Y-81301D01*
X92660Y-83770D01*
X90425Y-83770D01*
X90425Y-81795D01*
X90110Y-81480D01*
X90039Y-81551D01*
X90039Y-81410D01*
X89724Y-81094D01*
X89628Y-81122D01*
X89555Y-81328D01*
X89566Y-81546D01*
X89628Y-81697D01*
X89724Y-81725D01*
X90039Y-81410D01*
X90039Y-81551D01*
X89794Y-81795D01*
X89822Y-81891D01*
X90028Y-81964D01*
X90246Y-81953D01*
X90397Y-81891D01*
X90425Y-81795D01*
X90425Y-83770D01*
X88605Y-83770D01*
X88605Y-72139D01*
X88565Y-72043D01*
X88565Y-71179D01*
X88503Y-71030D01*
X88389Y-70916D01*
X88240Y-70855D01*
X88079Y-70854D01*
X87930Y-70916D01*
X87826Y-71021D01*
X87759Y-70860D01*
X87610Y-70710D01*
X87415Y-70630D01*
X87205Y-70629D01*
X87010Y-70710D01*
X86860Y-70859D01*
X86780Y-71054D01*
X86779Y-71264D01*
X86860Y-71459D01*
X87009Y-71609D01*
X87204Y-71689D01*
X87414Y-71690D01*
X87609Y-71609D01*
X87759Y-71460D01*
X87781Y-71405D01*
X87816Y-71489D01*
X87930Y-71603D01*
X88079Y-71664D01*
X88240Y-71665D01*
X88389Y-71603D01*
X88503Y-71489D01*
X88564Y-71340D01*
X88565Y-71179D01*
X88565Y-72043D01*
X88535Y-71972D01*
X88408Y-71844D01*
X88240Y-71775D01*
X88059Y-71774D01*
X87892Y-71844D01*
X87764Y-71971D01*
X87695Y-72139D01*
X87694Y-72320D01*
X87764Y-72487D01*
X87891Y-72615D01*
X88059Y-72684D01*
X88240Y-72685D01*
X88407Y-72615D01*
X88535Y-72488D01*
X88604Y-72320D01*
X88605Y-72139D01*
X88605Y-83770D01*
X87783Y-83770D01*
X87875Y-83678D01*
X87944Y-83510D01*
X87945Y-83329D01*
X87875Y-83162D01*
X87855Y-83141D01*
X87855Y-81529D01*
X87785Y-81362D01*
X87658Y-81234D01*
X87490Y-81165D01*
X87309Y-81164D01*
X87142Y-81234D01*
X87014Y-81361D01*
X86945Y-81529D01*
X86944Y-81710D01*
X87014Y-81877D01*
X87141Y-82005D01*
X87261Y-82055D01*
X87139Y-82054D01*
X86972Y-82124D01*
X86844Y-82251D01*
X86775Y-82419D01*
X86774Y-82600D01*
X86844Y-82767D01*
X86971Y-82895D01*
X87139Y-82964D01*
X87320Y-82965D01*
X87487Y-82895D01*
X87615Y-82768D01*
X87684Y-82600D01*
X87685Y-82419D01*
X87615Y-82252D01*
X87488Y-82124D01*
X87368Y-82074D01*
X87490Y-82075D01*
X87657Y-82005D01*
X87785Y-81878D01*
X87854Y-81710D01*
X87855Y-81529D01*
X87855Y-83141D01*
X87748Y-83034D01*
X87580Y-82965D01*
X87399Y-82964D01*
X87232Y-83034D01*
X87104Y-83161D01*
X87035Y-83329D01*
X87034Y-83510D01*
X87104Y-83677D01*
X87196Y-83770D01*
X86410Y-83770D01*
X86410Y-66985D01*
X86329Y-66790D01*
X86180Y-66640D01*
X86057Y-66589D01*
X86129Y-66559D01*
X86279Y-66410D01*
X86359Y-66215D01*
X86360Y-66005D01*
X86279Y-65810D01*
X86130Y-65660D01*
X85935Y-65580D01*
X85725Y-65579D01*
X85530Y-65660D01*
X85380Y-65809D01*
X85300Y-66004D01*
X85299Y-66214D01*
X85380Y-66409D01*
X85529Y-66559D01*
X85652Y-66610D01*
X85580Y-66640D01*
X85430Y-66789D01*
X85350Y-66984D01*
X85349Y-67194D01*
X85430Y-67389D01*
X85579Y-67539D01*
X85774Y-67619D01*
X85984Y-67620D01*
X86179Y-67539D01*
X86329Y-67390D01*
X86409Y-67195D01*
X86410Y-66985D01*
X86410Y-83770D01*
X86395Y-83770D01*
X86395Y-75299D01*
X86333Y-75150D01*
X86219Y-75036D01*
X86070Y-74975D01*
X85909Y-74974D01*
X85760Y-75036D01*
X85646Y-75150D01*
X85614Y-75227D01*
X85615Y-75089D01*
X85553Y-74940D01*
X85439Y-74826D01*
X85290Y-74765D01*
X85129Y-74764D01*
X84980Y-74826D01*
X84866Y-74940D01*
X84805Y-75089D01*
X84804Y-75250D01*
X84866Y-75399D01*
X84980Y-75513D01*
X85129Y-75574D01*
X85290Y-75575D01*
X85439Y-75513D01*
X85553Y-75399D01*
X85585Y-75322D01*
X85584Y-75460D01*
X85646Y-75609D01*
X85760Y-75723D01*
X85909Y-75784D01*
X86070Y-75785D01*
X86219Y-75723D01*
X86333Y-75609D01*
X86394Y-75460D01*
X86395Y-75299D01*
X86395Y-83770D01*
X86310Y-83770D01*
X86310Y-81875D01*
X86229Y-81680D01*
X86080Y-81530D01*
X85885Y-81450D01*
X85675Y-81449D01*
X85565Y-81495D01*
X85565Y-75899D01*
X85503Y-75750D01*
X85389Y-75636D01*
X85240Y-75575D01*
X85079Y-75574D01*
X84930Y-75636D01*
X84816Y-75750D01*
X84755Y-75899D01*
X84754Y-76060D01*
X84816Y-76209D01*
X84930Y-76323D01*
X85079Y-76384D01*
X85240Y-76385D01*
X85389Y-76323D01*
X85503Y-76209D01*
X85564Y-76060D01*
X85565Y-75899D01*
X85565Y-81495D01*
X85480Y-81530D01*
X85330Y-81679D01*
X85250Y-81874D01*
X85249Y-82084D01*
X85330Y-82279D01*
X85479Y-82429D01*
X85674Y-82509D01*
X85884Y-82510D01*
X86079Y-82429D01*
X86229Y-82280D01*
X86309Y-82085D01*
X86310Y-81875D01*
X86310Y-83770D01*
X84680Y-83770D01*
X84680Y-71235D01*
X84680Y-69235D01*
X84599Y-69040D01*
X84450Y-68890D01*
X84255Y-68810D01*
X84045Y-68809D01*
X83850Y-68890D01*
X83700Y-69039D01*
X83620Y-69234D01*
X83619Y-69444D01*
X83700Y-69639D01*
X83849Y-69789D01*
X84044Y-69869D01*
X84254Y-69870D01*
X84449Y-69789D01*
X84599Y-69640D01*
X84679Y-69445D01*
X84680Y-69235D01*
X84680Y-71235D01*
X84599Y-71040D01*
X84450Y-70890D01*
X84255Y-70810D01*
X84045Y-70809D01*
X83850Y-70890D01*
X83700Y-71039D01*
X83620Y-71234D01*
X83619Y-71444D01*
X83700Y-71639D01*
X83849Y-71789D01*
X84044Y-71869D01*
X84254Y-71870D01*
X84449Y-71789D01*
X84599Y-71640D01*
X84679Y-71445D01*
X84680Y-71235D01*
X84680Y-83770D01*
X81520Y-83770D01*
X81520Y-80911D01*
X81415Y-80657D01*
X81415Y-73079D01*
X81353Y-72930D01*
X81335Y-72912D01*
X81335Y-71399D01*
X81273Y-71250D01*
X81159Y-71136D01*
X81010Y-71075D01*
X80849Y-71074D01*
X80700Y-71136D01*
X80586Y-71250D01*
X80525Y-71399D01*
X80524Y-71560D01*
X80586Y-71709D01*
X80700Y-71823D01*
X80849Y-71884D01*
X81010Y-71885D01*
X81159Y-71823D01*
X81273Y-71709D01*
X81334Y-71560D01*
X81335Y-71399D01*
X81335Y-72912D01*
X81239Y-72816D01*
X81090Y-72755D01*
X80929Y-72754D01*
X80780Y-72816D01*
X80666Y-72930D01*
X80605Y-73079D01*
X80604Y-73240D01*
X80666Y-73389D01*
X80780Y-73503D01*
X80929Y-73564D01*
X81090Y-73565D01*
X81239Y-73503D01*
X81353Y-73389D01*
X81414Y-73240D01*
X81415Y-73079D01*
X81415Y-80657D01*
X81406Y-80635D01*
X81195Y-80424D01*
X80919Y-80310D01*
X80621Y-80309D01*
X80345Y-80423D01*
X80310Y-80459D01*
X80310Y-65412D01*
X80150Y-65026D01*
X79855Y-64730D01*
X79469Y-64570D01*
X79052Y-64569D01*
X78666Y-64729D01*
X78370Y-65024D01*
X78210Y-65410D01*
X78209Y-65827D01*
X78369Y-66214D01*
X78664Y-66509D01*
X79050Y-66669D01*
X79467Y-66670D01*
X79854Y-66510D01*
X80149Y-66215D01*
X80309Y-65829D01*
X80310Y-65412D01*
X80310Y-80459D01*
X80305Y-80464D01*
X80305Y-70189D01*
X80243Y-70040D01*
X80225Y-70022D01*
X80225Y-68329D01*
X80163Y-68180D01*
X80049Y-68066D01*
X79900Y-68005D01*
X79739Y-68004D01*
X79590Y-68066D01*
X79476Y-68180D01*
X79415Y-68329D01*
X79414Y-68490D01*
X79476Y-68639D01*
X79590Y-68753D01*
X79739Y-68814D01*
X79900Y-68815D01*
X80049Y-68753D01*
X80163Y-68639D01*
X80224Y-68490D01*
X80225Y-68329D01*
X80225Y-70022D01*
X80129Y-69926D01*
X79980Y-69865D01*
X79915Y-69865D01*
X79915Y-69219D01*
X79853Y-69070D01*
X79739Y-68956D01*
X79590Y-68895D01*
X79429Y-68894D01*
X79280Y-68956D01*
X79166Y-69070D01*
X79105Y-69219D01*
X79104Y-69380D01*
X79166Y-69529D01*
X79280Y-69643D01*
X79429Y-69704D01*
X79590Y-69705D01*
X79739Y-69643D01*
X79853Y-69529D01*
X79914Y-69380D01*
X79915Y-69219D01*
X79915Y-69865D01*
X79819Y-69864D01*
X79670Y-69926D01*
X79556Y-70040D01*
X79495Y-70189D01*
X79494Y-70350D01*
X79556Y-70499D01*
X79670Y-70613D01*
X79819Y-70674D01*
X79980Y-70675D01*
X80129Y-70613D01*
X80243Y-70499D01*
X80304Y-70350D01*
X80305Y-70189D01*
X80305Y-80464D01*
X80134Y-80634D01*
X80081Y-80761D01*
X80036Y-80651D01*
X79920Y-80600D01*
X79849Y-80670D01*
X79849Y-80529D01*
X79798Y-80413D01*
X79519Y-80306D01*
X79465Y-80307D01*
X79465Y-70259D01*
X79403Y-70110D01*
X79289Y-69996D01*
X79140Y-69935D01*
X78979Y-69934D01*
X78830Y-69996D01*
X78775Y-70052D01*
X78775Y-68709D01*
X78713Y-68560D01*
X78599Y-68446D01*
X78450Y-68385D01*
X78289Y-68384D01*
X78140Y-68446D01*
X78026Y-68560D01*
X77965Y-68709D01*
X77964Y-68870D01*
X78026Y-69019D01*
X78140Y-69133D01*
X78289Y-69194D01*
X78450Y-69195D01*
X78599Y-69133D01*
X78713Y-69019D01*
X78774Y-68870D01*
X78775Y-68709D01*
X78775Y-70052D01*
X78716Y-70110D01*
X78655Y-70259D01*
X78654Y-70420D01*
X78716Y-70569D01*
X78830Y-70683D01*
X78979Y-70744D01*
X79140Y-70745D01*
X79289Y-70683D01*
X79403Y-70569D01*
X79464Y-70420D01*
X79465Y-70259D01*
X79465Y-80307D01*
X79221Y-80314D01*
X78981Y-80413D01*
X78930Y-80529D01*
X79390Y-80989D01*
X79849Y-80529D01*
X79849Y-80670D01*
X79460Y-81060D01*
X79920Y-81519D01*
X80036Y-81468D01*
X80080Y-81354D01*
X80133Y-81484D01*
X80344Y-81695D01*
X80620Y-81809D01*
X80918Y-81810D01*
X81194Y-81696D01*
X81405Y-81485D01*
X81519Y-81209D01*
X81520Y-80911D01*
X81520Y-83770D01*
X79849Y-83770D01*
X79849Y-81590D01*
X79390Y-81130D01*
X79319Y-81201D01*
X79319Y-81060D01*
X78859Y-80600D01*
X78775Y-80637D01*
X78775Y-72899D01*
X78713Y-72750D01*
X78599Y-72636D01*
X78450Y-72575D01*
X78289Y-72574D01*
X78140Y-72636D01*
X78026Y-72750D01*
X77965Y-72899D01*
X77964Y-73060D01*
X78026Y-73209D01*
X78140Y-73323D01*
X78289Y-73384D01*
X78450Y-73385D01*
X78599Y-73323D01*
X78713Y-73209D01*
X78774Y-73060D01*
X78775Y-72899D01*
X78775Y-80637D01*
X78743Y-80651D01*
X78715Y-80725D01*
X78715Y-77889D01*
X78645Y-77722D01*
X78518Y-77594D01*
X78350Y-77525D01*
X78169Y-77524D01*
X78002Y-77594D01*
X77874Y-77721D01*
X77805Y-77889D01*
X77804Y-78070D01*
X77874Y-78237D01*
X78001Y-78365D01*
X78169Y-78434D01*
X78350Y-78435D01*
X78517Y-78365D01*
X78645Y-78238D01*
X78714Y-78070D01*
X78715Y-77889D01*
X78715Y-80725D01*
X78636Y-80930D01*
X78644Y-81228D01*
X78743Y-81468D01*
X78859Y-81519D01*
X79319Y-81060D01*
X79319Y-81201D01*
X78930Y-81590D01*
X78981Y-81706D01*
X79260Y-81813D01*
X79558Y-81805D01*
X79798Y-81706D01*
X79849Y-81590D01*
X79849Y-83770D01*
X72497Y-83770D01*
X72497Y-74803D01*
X72497Y-67083D01*
X72489Y-66780D01*
X72388Y-66536D01*
X72271Y-66482D01*
X72200Y-66553D01*
X72200Y-66412D01*
X72147Y-66294D01*
X71864Y-66186D01*
X71561Y-66193D01*
X71316Y-66294D01*
X71263Y-66412D01*
X71732Y-66880D01*
X72200Y-66412D01*
X72200Y-66553D01*
X71802Y-66951D01*
X72271Y-67419D01*
X72388Y-67366D01*
X72497Y-67083D01*
X72497Y-74803D01*
X72493Y-74667D01*
X72493Y-69477D01*
X72378Y-69197D01*
X72200Y-69019D01*
X72200Y-67490D01*
X71732Y-67022D01*
X71661Y-67092D01*
X71661Y-66951D01*
X71192Y-66482D01*
X71075Y-66536D01*
X71025Y-66666D01*
X70971Y-66536D01*
X70853Y-66482D01*
X70783Y-66553D01*
X70783Y-66412D01*
X70729Y-66294D01*
X70447Y-66186D01*
X70144Y-66193D01*
X69899Y-66294D01*
X69846Y-66412D01*
X70314Y-66880D01*
X70783Y-66412D01*
X70783Y-66553D01*
X70385Y-66951D01*
X70853Y-67419D01*
X70971Y-67366D01*
X71021Y-67235D01*
X71075Y-67366D01*
X71192Y-67419D01*
X71661Y-66951D01*
X71661Y-67092D01*
X71263Y-67490D01*
X71316Y-67607D01*
X71599Y-67716D01*
X71902Y-67709D01*
X72147Y-67607D01*
X72200Y-67490D01*
X72200Y-69019D01*
X72164Y-68983D01*
X71884Y-68866D01*
X71581Y-68866D01*
X71301Y-68982D01*
X71086Y-69196D01*
X71023Y-69348D01*
X70960Y-69197D01*
X70783Y-69019D01*
X70783Y-67490D01*
X70314Y-67022D01*
X70244Y-67092D01*
X70244Y-66951D01*
X69829Y-66537D01*
X69829Y-66536D01*
X69828Y-66535D01*
X69775Y-66482D01*
X69743Y-66497D01*
X69712Y-66482D01*
X69659Y-66535D01*
X69658Y-66536D01*
X69657Y-66537D01*
X69641Y-66553D01*
X69641Y-66412D01*
X69588Y-66294D01*
X69305Y-66186D01*
X69002Y-66193D01*
X68757Y-66294D01*
X68704Y-66412D01*
X69172Y-66880D01*
X69641Y-66412D01*
X69641Y-66553D01*
X69243Y-66951D01*
X69657Y-67365D01*
X69658Y-67366D01*
X69659Y-67367D01*
X69712Y-67419D01*
X69743Y-67405D01*
X69775Y-67419D01*
X69828Y-67367D01*
X69829Y-67366D01*
X69829Y-67365D01*
X70244Y-66951D01*
X70244Y-67092D01*
X69846Y-67490D01*
X69899Y-67607D01*
X70182Y-67716D01*
X70485Y-67709D01*
X70729Y-67607D01*
X70783Y-67490D01*
X70783Y-69019D01*
X70746Y-68983D01*
X70466Y-68866D01*
X70163Y-68866D01*
X69883Y-68982D01*
X69743Y-69122D01*
X69641Y-69019D01*
X69641Y-67490D01*
X69172Y-67022D01*
X69102Y-67092D01*
X69102Y-66951D01*
X68633Y-66482D01*
X68516Y-66536D01*
X68407Y-66819D01*
X68415Y-67122D01*
X68516Y-67366D01*
X68633Y-67419D01*
X69102Y-66951D01*
X69102Y-67092D01*
X68704Y-67490D01*
X68757Y-67607D01*
X69040Y-67716D01*
X69343Y-67709D01*
X69588Y-67607D01*
X69641Y-67490D01*
X69641Y-69019D01*
X69605Y-68983D01*
X69325Y-68866D01*
X69022Y-68866D01*
X68742Y-68982D01*
X68527Y-69196D01*
X68411Y-69476D01*
X68411Y-69779D01*
X68526Y-70059D01*
X68740Y-70274D01*
X69020Y-70390D01*
X69323Y-70390D01*
X69603Y-70274D01*
X69743Y-70135D01*
X69882Y-70274D01*
X70162Y-70390D01*
X70465Y-70390D01*
X70745Y-70274D01*
X70960Y-70060D01*
X71023Y-69908D01*
X71085Y-70059D01*
X71299Y-70274D01*
X71579Y-70390D01*
X71882Y-70390D01*
X72163Y-70274D01*
X72377Y-70060D01*
X72493Y-69780D01*
X72493Y-69477D01*
X72493Y-74667D01*
X72489Y-74500D01*
X72388Y-74256D01*
X72271Y-74202D01*
X72200Y-74273D01*
X72200Y-74132D01*
X72147Y-74014D01*
X71864Y-73906D01*
X71561Y-73913D01*
X71316Y-74014D01*
X71263Y-74132D01*
X71732Y-74600D01*
X72200Y-74132D01*
X72200Y-74273D01*
X71802Y-74671D01*
X72271Y-75139D01*
X72388Y-75086D01*
X72497Y-74803D01*
X72497Y-83770D01*
X72493Y-83770D01*
X72493Y-77197D01*
X72378Y-76917D01*
X72200Y-76739D01*
X72200Y-75210D01*
X71732Y-74742D01*
X71661Y-74812D01*
X71661Y-74671D01*
X71192Y-74202D01*
X71075Y-74256D01*
X71025Y-74386D01*
X70971Y-74256D01*
X70853Y-74202D01*
X70783Y-74273D01*
X70783Y-74132D01*
X70729Y-74014D01*
X70447Y-73906D01*
X70144Y-73913D01*
X69899Y-74014D01*
X69846Y-74132D01*
X70314Y-74600D01*
X70783Y-74132D01*
X70783Y-74273D01*
X70385Y-74671D01*
X70853Y-75139D01*
X70971Y-75086D01*
X71021Y-74955D01*
X71075Y-75086D01*
X71192Y-75139D01*
X71661Y-74671D01*
X71661Y-74812D01*
X71263Y-75210D01*
X71316Y-75327D01*
X71599Y-75436D01*
X71902Y-75429D01*
X72147Y-75327D01*
X72200Y-75210D01*
X72200Y-76739D01*
X72164Y-76703D01*
X71884Y-76586D01*
X71581Y-76586D01*
X71301Y-76702D01*
X71086Y-76916D01*
X71023Y-77068D01*
X70960Y-76917D01*
X70783Y-76739D01*
X70783Y-75210D01*
X70314Y-74742D01*
X70244Y-74812D01*
X70244Y-74671D01*
X69829Y-74257D01*
X69829Y-74256D01*
X69828Y-74255D01*
X69775Y-74202D01*
X69743Y-74217D01*
X69712Y-74202D01*
X69659Y-74255D01*
X69658Y-74256D01*
X69657Y-74257D01*
X69641Y-74273D01*
X69641Y-74132D01*
X69588Y-74014D01*
X69305Y-73906D01*
X69002Y-73913D01*
X68757Y-74014D01*
X68704Y-74132D01*
X69172Y-74600D01*
X69641Y-74132D01*
X69641Y-74273D01*
X69243Y-74671D01*
X69657Y-75085D01*
X69658Y-75086D01*
X69659Y-75087D01*
X69712Y-75139D01*
X69743Y-75125D01*
X69775Y-75139D01*
X69828Y-75087D01*
X69829Y-75086D01*
X69829Y-75085D01*
X70244Y-74671D01*
X70244Y-74812D01*
X69846Y-75210D01*
X69899Y-75327D01*
X70182Y-75436D01*
X70485Y-75429D01*
X70729Y-75327D01*
X70783Y-75210D01*
X70783Y-76739D01*
X70746Y-76703D01*
X70466Y-76586D01*
X70163Y-76586D01*
X69883Y-76702D01*
X69743Y-76842D01*
X69641Y-76739D01*
X69641Y-75210D01*
X69172Y-74742D01*
X69102Y-74812D01*
X69102Y-74671D01*
X68633Y-74202D01*
X68516Y-74256D01*
X68407Y-74539D01*
X68415Y-74842D01*
X68516Y-75086D01*
X68633Y-75139D01*
X69102Y-74671D01*
X69102Y-74812D01*
X68704Y-75210D01*
X68757Y-75327D01*
X69040Y-75436D01*
X69343Y-75429D01*
X69588Y-75327D01*
X69641Y-75210D01*
X69641Y-76739D01*
X69605Y-76703D01*
X69325Y-76586D01*
X69022Y-76586D01*
X68742Y-76702D01*
X68527Y-76916D01*
X68411Y-77196D01*
X68411Y-77499D01*
X68526Y-77779D01*
X68740Y-77994D01*
X69020Y-78110D01*
X69323Y-78110D01*
X69603Y-77994D01*
X69743Y-77855D01*
X69882Y-77994D01*
X70162Y-78110D01*
X70465Y-78110D01*
X70745Y-77994D01*
X70960Y-77780D01*
X71023Y-77628D01*
X71085Y-77779D01*
X71299Y-77994D01*
X71579Y-78110D01*
X71882Y-78110D01*
X72163Y-77994D01*
X72377Y-77780D01*
X72493Y-77500D01*
X72493Y-77197D01*
X72493Y-83770D01*
X69810Y-83770D01*
X69810Y-82412D01*
X69650Y-82026D01*
X69355Y-81730D01*
X68969Y-81570D01*
X68552Y-81569D01*
X68166Y-81729D01*
X67870Y-82024D01*
X67710Y-82410D01*
X67709Y-82827D01*
X67869Y-83214D01*
X68164Y-83509D01*
X68550Y-83669D01*
X68967Y-83670D01*
X69354Y-83510D01*
X69649Y-83215D01*
X69809Y-82829D01*
X69810Y-82412D01*
X69810Y-83770D01*
X67610Y-83770D01*
X67619Y-64470D01*
X106910Y-64470D01*
X106910Y-83770D01*
X106910Y-83770D01*
G37*
G54D25*
X106910Y-83770D02*
X106810Y-83770D01*
X106810Y-65412D01*
X106650Y-65026D01*
X106355Y-64730D01*
X105969Y-64570D01*
X105552Y-64569D01*
X105166Y-64729D01*
X104870Y-65024D01*
X104710Y-65410D01*
X104709Y-65827D01*
X104869Y-66214D01*
X105164Y-66509D01*
X105550Y-66669D01*
X105967Y-66670D01*
X106354Y-66510D01*
X106649Y-66215D01*
X106809Y-65829D01*
X106810Y-65412D01*
X106810Y-83770D01*
X103652Y-83770D01*
X104040Y-83609D01*
X104448Y-83202D01*
X104669Y-82669D01*
X104670Y-82092D01*
X104670Y-72252D01*
X104449Y-71719D01*
X104042Y-71311D01*
X103509Y-71090D01*
X102932Y-71089D01*
X102399Y-71310D01*
X101991Y-71717D01*
X101770Y-72250D01*
X101769Y-72827D01*
X101990Y-73360D01*
X102397Y-73768D01*
X102930Y-73989D01*
X103507Y-73990D01*
X104040Y-73769D01*
X104448Y-73362D01*
X104669Y-72829D01*
X104670Y-72252D01*
X104670Y-82092D01*
X104449Y-81559D01*
X104425Y-81534D01*
X104425Y-78952D01*
X104327Y-78715D01*
X104152Y-78539D01*
X104326Y-78365D01*
X104424Y-78128D01*
X104425Y-77872D01*
X104327Y-77635D01*
X104152Y-77459D01*
X104326Y-77285D01*
X104424Y-77048D01*
X104425Y-76792D01*
X104327Y-76555D01*
X104152Y-76379D01*
X104326Y-76205D01*
X104424Y-75968D01*
X104425Y-75712D01*
X104327Y-75475D01*
X104145Y-75293D01*
X103908Y-75195D01*
X103652Y-75194D01*
X103415Y-75292D01*
X103304Y-75402D01*
X103305Y-75172D01*
X103207Y-74935D01*
X103025Y-74753D01*
X102788Y-74655D01*
X102532Y-74654D01*
X102295Y-74752D01*
X102113Y-74934D01*
X102015Y-75171D01*
X102014Y-75427D01*
X102112Y-75664D01*
X102287Y-75840D01*
X102113Y-76014D01*
X102015Y-76251D01*
X102014Y-76507D01*
X102112Y-76744D01*
X102287Y-76920D01*
X102113Y-77094D01*
X102015Y-77331D01*
X102014Y-77587D01*
X102112Y-77824D01*
X102287Y-78000D01*
X102113Y-78174D01*
X102015Y-78411D01*
X102014Y-78667D01*
X102112Y-78904D01*
X102192Y-78984D01*
X102123Y-79012D01*
X102053Y-79083D01*
X102015Y-79175D01*
X102014Y-79274D01*
X102014Y-80064D01*
X102052Y-80156D01*
X102123Y-80226D01*
X102215Y-80264D01*
X102314Y-80265D01*
X103104Y-80265D01*
X103196Y-80227D01*
X103266Y-80156D01*
X103304Y-80064D01*
X103305Y-79965D01*
X103305Y-79517D01*
X103414Y-79626D01*
X103651Y-79724D01*
X103907Y-79725D01*
X104144Y-79627D01*
X104326Y-79445D01*
X104424Y-79208D01*
X104425Y-78952D01*
X104425Y-81534D01*
X104042Y-81151D01*
X103509Y-80930D01*
X102932Y-80929D01*
X102399Y-81150D01*
X101991Y-81557D01*
X101775Y-82078D01*
X101775Y-78819D01*
X101765Y-78795D01*
X101765Y-77319D01*
X101703Y-77170D01*
X101589Y-77056D01*
X101440Y-76995D01*
X101279Y-76994D01*
X101130Y-77056D01*
X101016Y-77170D01*
X100955Y-77319D01*
X100954Y-77480D01*
X101016Y-77629D01*
X101130Y-77743D01*
X101279Y-77804D01*
X101440Y-77805D01*
X101589Y-77743D01*
X101703Y-77629D01*
X101764Y-77480D01*
X101765Y-77319D01*
X101765Y-78795D01*
X101713Y-78670D01*
X101599Y-78556D01*
X101450Y-78495D01*
X101289Y-78494D01*
X101140Y-78556D01*
X101026Y-78670D01*
X100965Y-78819D01*
X100964Y-78980D01*
X101026Y-79129D01*
X101140Y-79243D01*
X101289Y-79304D01*
X101450Y-79305D01*
X101599Y-79243D01*
X101713Y-79129D01*
X101774Y-78980D01*
X101775Y-78819D01*
X101775Y-82078D01*
X101770Y-82090D01*
X101769Y-82667D01*
X101990Y-83200D01*
X102397Y-83608D01*
X102786Y-83770D01*
X100739Y-83770D01*
X100739Y-70425D01*
X100729Y-70200D01*
X100663Y-70043D01*
X100566Y-70013D01*
X100496Y-70084D01*
X100496Y-69943D01*
X100466Y-69846D01*
X100255Y-69770D01*
X100030Y-69780D01*
X99873Y-69846D01*
X99843Y-69943D01*
X100170Y-70269D01*
X100496Y-69943D01*
X100496Y-70084D01*
X100240Y-70340D01*
X100566Y-70666D01*
X100663Y-70636D01*
X100739Y-70425D01*
X100739Y-83770D01*
X100735Y-83770D01*
X100735Y-71028D01*
X100649Y-70820D01*
X100490Y-70661D01*
X100370Y-70611D01*
X100170Y-70410D01*
X100164Y-70416D01*
X100099Y-70351D01*
X100093Y-70345D01*
X100099Y-70340D01*
X99924Y-70164D01*
X99873Y-70043D01*
X99776Y-70013D01*
X99775Y-70015D01*
X99773Y-70013D01*
X99706Y-70034D01*
X99706Y-69943D01*
X99676Y-69846D01*
X99465Y-69770D01*
X99240Y-69780D01*
X99083Y-69846D01*
X99053Y-69943D01*
X99380Y-70269D01*
X99706Y-69943D01*
X99706Y-70034D01*
X99676Y-70043D01*
X99636Y-70154D01*
X99450Y-70340D01*
X99456Y-70345D01*
X99385Y-70416D01*
X99380Y-70410D01*
X99374Y-70416D01*
X99309Y-70351D01*
X99303Y-70345D01*
X99309Y-70340D01*
X99134Y-70164D01*
X99083Y-70043D01*
X98986Y-70013D01*
X98985Y-70015D01*
X98983Y-70013D01*
X98916Y-70034D01*
X98916Y-69943D01*
X98886Y-69846D01*
X98675Y-69770D01*
X98450Y-69780D01*
X98293Y-69846D01*
X98263Y-69943D01*
X98590Y-70269D01*
X98916Y-69943D01*
X98916Y-70034D01*
X98886Y-70043D01*
X98846Y-70154D01*
X98660Y-70340D01*
X98666Y-70345D01*
X98595Y-70416D01*
X98590Y-70410D01*
X98584Y-70416D01*
X98519Y-70351D01*
X98513Y-70345D01*
X98519Y-70340D01*
X98361Y-70181D01*
X98303Y-70043D01*
X98206Y-70013D01*
X98200Y-70020D01*
X98193Y-70013D01*
X98136Y-70031D01*
X98136Y-69943D01*
X98106Y-69846D01*
X97895Y-69770D01*
X97670Y-69780D01*
X97513Y-69846D01*
X97483Y-69943D01*
X97810Y-70269D01*
X98136Y-69943D01*
X98136Y-70031D01*
X98096Y-70043D01*
X98050Y-70169D01*
X97880Y-70340D01*
X97886Y-70345D01*
X97815Y-70416D01*
X97810Y-70410D01*
X97804Y-70416D01*
X97739Y-70351D01*
X97733Y-70345D01*
X97739Y-70340D01*
X97564Y-70164D01*
X97513Y-70043D01*
X97416Y-70013D01*
X97415Y-70015D01*
X97413Y-70013D01*
X97346Y-70034D01*
X97346Y-69943D01*
X97316Y-69846D01*
X97105Y-69770D01*
X96880Y-69780D01*
X96723Y-69846D01*
X96693Y-69943D01*
X97020Y-70269D01*
X97346Y-69943D01*
X97346Y-70034D01*
X97316Y-70043D01*
X97276Y-70154D01*
X97090Y-70340D01*
X97096Y-70345D01*
X97025Y-70416D01*
X97020Y-70410D01*
X97014Y-70416D01*
X96949Y-70351D01*
X96943Y-70345D01*
X96949Y-70340D01*
X96791Y-70181D01*
X96733Y-70043D01*
X96636Y-70013D01*
X96630Y-70020D01*
X96623Y-70013D01*
X96566Y-70031D01*
X96566Y-69943D01*
X96536Y-69846D01*
X96325Y-69770D01*
X96100Y-69780D01*
X95943Y-69846D01*
X95913Y-69943D01*
X96240Y-70269D01*
X96566Y-69943D01*
X96566Y-70031D01*
X96526Y-70043D01*
X96480Y-70169D01*
X96310Y-70340D01*
X96316Y-70345D01*
X96245Y-70416D01*
X96240Y-70410D01*
X96234Y-70416D01*
X96169Y-70351D01*
X96163Y-70345D01*
X96169Y-70340D01*
X95994Y-70164D01*
X95943Y-70043D01*
X95846Y-70013D01*
X95845Y-70015D01*
X95843Y-70013D01*
X95776Y-70034D01*
X95776Y-69943D01*
X95746Y-69846D01*
X95535Y-69770D01*
X95310Y-69780D01*
X95153Y-69846D01*
X95123Y-69943D01*
X95450Y-70269D01*
X95776Y-69943D01*
X95776Y-70034D01*
X95746Y-70043D01*
X95706Y-70154D01*
X95520Y-70340D01*
X95526Y-70345D01*
X95455Y-70416D01*
X95450Y-70410D01*
X95444Y-70416D01*
X95379Y-70351D01*
X95373Y-70345D01*
X95379Y-70340D01*
X95204Y-70164D01*
X95153Y-70043D01*
X95056Y-70013D01*
X95055Y-70015D01*
X95053Y-70013D01*
X94986Y-70034D01*
X94986Y-69943D01*
X94956Y-69846D01*
X94745Y-69770D01*
X94520Y-69780D01*
X94363Y-69846D01*
X94333Y-69943D01*
X94660Y-70269D01*
X94986Y-69943D01*
X94986Y-70034D01*
X94956Y-70043D01*
X94916Y-70154D01*
X94730Y-70340D01*
X94736Y-70345D01*
X94665Y-70416D01*
X94660Y-70410D01*
X94654Y-70416D01*
X94589Y-70351D01*
X94583Y-70345D01*
X94589Y-70340D01*
X94414Y-70164D01*
X94363Y-70043D01*
X94266Y-70013D01*
X94265Y-70015D01*
X94263Y-70013D01*
X94196Y-70034D01*
X94196Y-69943D01*
X94166Y-69846D01*
X93955Y-69770D01*
X93730Y-69780D01*
X93573Y-69846D01*
X93543Y-69943D01*
X93870Y-70269D01*
X94196Y-69943D01*
X94196Y-70034D01*
X94166Y-70043D01*
X94126Y-70154D01*
X93940Y-70340D01*
X93946Y-70345D01*
X93875Y-70416D01*
X93870Y-70410D01*
X93799Y-70481D01*
X93799Y-70340D01*
X93473Y-70013D01*
X93376Y-70043D01*
X93300Y-70254D01*
X93310Y-70479D01*
X93376Y-70636D01*
X93473Y-70666D01*
X93799Y-70340D01*
X93799Y-70481D01*
X93668Y-70611D01*
X93550Y-70660D01*
X93391Y-70819D01*
X93305Y-71027D01*
X93304Y-71251D01*
X93390Y-71459D01*
X93549Y-71618D01*
X93757Y-71704D01*
X93981Y-71705D01*
X94189Y-71619D01*
X94264Y-71544D01*
X94339Y-71618D01*
X94547Y-71704D01*
X94771Y-71705D01*
X94979Y-71619D01*
X95054Y-71544D01*
X95129Y-71618D01*
X95337Y-71704D01*
X95561Y-71705D01*
X95769Y-71619D01*
X95844Y-71544D01*
X95919Y-71618D01*
X96127Y-71704D01*
X96351Y-71705D01*
X96559Y-71619D01*
X96629Y-71549D01*
X96699Y-71618D01*
X96907Y-71704D01*
X97131Y-71705D01*
X97339Y-71619D01*
X97414Y-71544D01*
X97489Y-71618D01*
X97697Y-71704D01*
X97921Y-71705D01*
X98129Y-71619D01*
X98199Y-71549D01*
X98269Y-71618D01*
X98477Y-71704D01*
X98701Y-71705D01*
X98909Y-71619D01*
X98984Y-71544D01*
X99059Y-71618D01*
X99267Y-71704D01*
X99491Y-71705D01*
X99699Y-71619D01*
X99774Y-71544D01*
X99849Y-71618D01*
X100057Y-71704D01*
X100281Y-71705D01*
X100489Y-71619D01*
X100648Y-71460D01*
X100734Y-71252D01*
X100735Y-71028D01*
X100735Y-83770D01*
X100605Y-83770D01*
X100605Y-76319D01*
X100543Y-76170D01*
X100429Y-76056D01*
X100280Y-75995D01*
X100119Y-75994D01*
X99970Y-76056D01*
X99856Y-76170D01*
X99795Y-76319D01*
X99794Y-76480D01*
X99856Y-76629D01*
X99970Y-76743D01*
X100119Y-76804D01*
X100280Y-76805D01*
X100429Y-76743D01*
X100543Y-76629D01*
X100604Y-76480D01*
X100605Y-76319D01*
X100605Y-83770D01*
X100311Y-83770D01*
X100311Y-82821D01*
X100308Y-82403D01*
X100154Y-82031D01*
X100007Y-81943D01*
X99936Y-82014D01*
X99936Y-81872D01*
X99848Y-81725D01*
X99461Y-81568D01*
X99043Y-81571D01*
X98671Y-81725D01*
X98605Y-81836D01*
X98605Y-76829D01*
X98543Y-76680D01*
X98429Y-76566D01*
X98425Y-76564D01*
X98425Y-75899D01*
X98363Y-75750D01*
X98249Y-75636D01*
X98100Y-75575D01*
X97939Y-75574D01*
X97790Y-75636D01*
X97676Y-75750D01*
X97615Y-75899D01*
X97614Y-76060D01*
X97676Y-76209D01*
X97790Y-76323D01*
X97939Y-76384D01*
X98100Y-76385D01*
X98249Y-76323D01*
X98363Y-76209D01*
X98424Y-76060D01*
X98425Y-75899D01*
X98425Y-76564D01*
X98280Y-76505D01*
X98119Y-76504D01*
X97970Y-76566D01*
X97856Y-76680D01*
X97795Y-76829D01*
X97794Y-76990D01*
X97856Y-77139D01*
X97970Y-77253D01*
X98119Y-77314D01*
X98280Y-77315D01*
X98429Y-77253D01*
X98543Y-77139D01*
X98604Y-76990D01*
X98605Y-76829D01*
X98605Y-81836D01*
X98583Y-81872D01*
X99260Y-82549D01*
X99936Y-81872D01*
X99936Y-82014D01*
X99330Y-82620D01*
X100007Y-83296D01*
X100154Y-83208D01*
X100311Y-82821D01*
X100311Y-83770D01*
X99936Y-83770D01*
X99936Y-83367D01*
X99260Y-82690D01*
X99189Y-82761D01*
X99189Y-82620D01*
X98512Y-81943D01*
X98365Y-82031D01*
X98208Y-82418D01*
X98211Y-82836D01*
X98365Y-83208D01*
X98512Y-83296D01*
X99189Y-82620D01*
X99189Y-82761D01*
X98583Y-83367D01*
X98671Y-83514D01*
X99058Y-83671D01*
X99476Y-83668D01*
X99848Y-83514D01*
X99936Y-83367D01*
X99936Y-83770D01*
X98039Y-83770D01*
X98039Y-82074D01*
X98035Y-81961D01*
X98035Y-80842D01*
X97937Y-80605D01*
X97802Y-80469D01*
X97936Y-80335D01*
X98034Y-80098D01*
X98035Y-79842D01*
X97937Y-79605D01*
X97755Y-79423D01*
X97518Y-79325D01*
X97262Y-79324D01*
X97025Y-79422D01*
X96843Y-79604D01*
X96815Y-79672D01*
X96815Y-77839D01*
X96753Y-77690D01*
X96639Y-77576D01*
X96625Y-77570D01*
X96625Y-75689D01*
X96563Y-75540D01*
X96449Y-75426D01*
X96300Y-75365D01*
X96139Y-75364D01*
X95990Y-75426D01*
X95876Y-75540D01*
X95815Y-75689D01*
X95814Y-75850D01*
X95876Y-75999D01*
X95990Y-76113D01*
X96139Y-76174D01*
X96300Y-76175D01*
X96449Y-76113D01*
X96563Y-75999D01*
X96624Y-75850D01*
X96625Y-75689D01*
X96625Y-77570D01*
X96490Y-77515D01*
X96329Y-77514D01*
X96180Y-77576D01*
X96145Y-77612D01*
X96145Y-77279D01*
X96083Y-77130D01*
X95969Y-77016D01*
X95820Y-76955D01*
X95659Y-76954D01*
X95510Y-77016D01*
X95396Y-77130D01*
X95335Y-77279D01*
X95334Y-77440D01*
X95396Y-77589D01*
X95510Y-77703D01*
X95659Y-77764D01*
X95820Y-77765D01*
X95969Y-77703D01*
X96083Y-77589D01*
X96144Y-77440D01*
X96145Y-77279D01*
X96145Y-77612D01*
X96066Y-77690D01*
X96005Y-77839D01*
X96004Y-78000D01*
X96066Y-78149D01*
X96180Y-78263D01*
X96329Y-78324D01*
X96490Y-78325D01*
X96639Y-78263D01*
X96753Y-78149D01*
X96814Y-78000D01*
X96815Y-77839D01*
X96815Y-79672D01*
X96745Y-79841D01*
X96744Y-80097D01*
X96842Y-80334D01*
X96977Y-80470D01*
X96843Y-80604D01*
X96745Y-80841D01*
X96744Y-81097D01*
X96842Y-81334D01*
X97010Y-81502D01*
X97006Y-81515D01*
X97390Y-81899D01*
X97773Y-81515D01*
X97769Y-81502D01*
X97936Y-81335D01*
X98034Y-81098D01*
X98035Y-80842D01*
X98035Y-81961D01*
X98029Y-81818D01*
X97949Y-81625D01*
X97844Y-81586D01*
X97460Y-81970D01*
X97844Y-82353D01*
X97949Y-82314D01*
X98039Y-82074D01*
X98039Y-83770D01*
X97773Y-83770D01*
X97773Y-82424D01*
X97390Y-82040D01*
X97319Y-82111D01*
X97319Y-81970D01*
X96935Y-81586D01*
X96830Y-81625D01*
X96740Y-81865D01*
X96750Y-82121D01*
X96830Y-82314D01*
X96935Y-82353D01*
X97319Y-81970D01*
X97319Y-82111D01*
X97006Y-82424D01*
X97045Y-82529D01*
X97285Y-82619D01*
X97541Y-82609D01*
X97734Y-82529D01*
X97773Y-82424D01*
X97773Y-83770D01*
X96645Y-83770D01*
X96645Y-81886D01*
X96550Y-81656D01*
X96374Y-81480D01*
X96144Y-81385D01*
X95896Y-81384D01*
X95666Y-81479D01*
X95493Y-81652D01*
X95460Y-81640D01*
X95389Y-81711D01*
X95389Y-81569D01*
X95352Y-81466D01*
X95325Y-81456D01*
X95325Y-73889D01*
X95263Y-73740D01*
X95165Y-73642D01*
X95165Y-72069D01*
X95103Y-71920D01*
X94989Y-71806D01*
X94840Y-71745D01*
X94679Y-71744D01*
X94530Y-71806D01*
X94416Y-71920D01*
X94355Y-72069D01*
X94354Y-72230D01*
X94416Y-72379D01*
X94530Y-72493D01*
X94679Y-72554D01*
X94840Y-72555D01*
X94989Y-72493D01*
X95103Y-72379D01*
X95164Y-72230D01*
X95165Y-72069D01*
X95165Y-73642D01*
X95149Y-73626D01*
X95000Y-73565D01*
X94839Y-73564D01*
X94690Y-73626D01*
X94576Y-73740D01*
X94515Y-73889D01*
X94514Y-74050D01*
X94576Y-74199D01*
X94690Y-74313D01*
X94839Y-74374D01*
X95000Y-74375D01*
X95149Y-74313D01*
X95263Y-74199D01*
X95324Y-74050D01*
X95325Y-73889D01*
X95325Y-81456D01*
X95119Y-81380D01*
X94871Y-81390D01*
X94687Y-81466D01*
X94650Y-81569D01*
X95020Y-81939D01*
X95389Y-81569D01*
X95389Y-81711D01*
X95090Y-82010D01*
X95460Y-82379D01*
X95493Y-82367D01*
X95665Y-82539D01*
X95895Y-82634D01*
X96143Y-82635D01*
X96373Y-82540D01*
X96549Y-82364D01*
X96644Y-82134D01*
X96645Y-81886D01*
X96645Y-83770D01*
X95389Y-83770D01*
X95389Y-82450D01*
X95020Y-82080D01*
X94949Y-82151D01*
X94949Y-82010D01*
X94579Y-81640D01*
X94476Y-81677D01*
X94475Y-81681D01*
X94475Y-78369D01*
X94475Y-77299D01*
X94413Y-77150D01*
X94299Y-77036D01*
X94150Y-76975D01*
X93989Y-76974D01*
X93840Y-77036D01*
X93726Y-77150D01*
X93665Y-77299D01*
X93664Y-77460D01*
X93726Y-77609D01*
X93840Y-77723D01*
X93989Y-77784D01*
X94150Y-77785D01*
X94299Y-77723D01*
X94413Y-77609D01*
X94474Y-77460D01*
X94475Y-77299D01*
X94475Y-78369D01*
X94413Y-78220D01*
X94299Y-78106D01*
X94150Y-78045D01*
X93989Y-78044D01*
X93840Y-78106D01*
X93726Y-78220D01*
X93665Y-78369D01*
X93665Y-78374D01*
X93570Y-78335D01*
X93409Y-78334D01*
X93260Y-78396D01*
X93155Y-78502D01*
X93155Y-75219D01*
X93093Y-75070D01*
X92979Y-74956D01*
X92830Y-74895D01*
X92669Y-74894D01*
X92520Y-74956D01*
X92406Y-75070D01*
X92345Y-75219D01*
X92344Y-75380D01*
X92406Y-75529D01*
X92520Y-75643D01*
X92669Y-75704D01*
X92830Y-75705D01*
X92979Y-75643D01*
X93093Y-75529D01*
X93154Y-75380D01*
X93155Y-75219D01*
X93155Y-78502D01*
X93146Y-78510D01*
X93085Y-78659D01*
X93084Y-78820D01*
X93146Y-78969D01*
X93260Y-79083D01*
X93409Y-79144D01*
X93570Y-79145D01*
X93719Y-79083D01*
X93833Y-78969D01*
X93894Y-78820D01*
X93894Y-78815D01*
X93989Y-78854D01*
X94150Y-78855D01*
X94299Y-78793D01*
X94413Y-78679D01*
X94474Y-78530D01*
X94475Y-78369D01*
X94475Y-81681D01*
X94390Y-81910D01*
X94400Y-82158D01*
X94476Y-82342D01*
X94579Y-82379D01*
X94949Y-82010D01*
X94949Y-82151D01*
X94650Y-82450D01*
X94687Y-82553D01*
X94920Y-82639D01*
X95168Y-82629D01*
X95352Y-82553D01*
X95389Y-82450D01*
X95389Y-83770D01*
X92660Y-83770D01*
X92660Y-81301D01*
X92576Y-81098D01*
X92421Y-80944D01*
X92340Y-80910D01*
X92421Y-80876D01*
X92575Y-80721D01*
X92659Y-80519D01*
X92660Y-80301D01*
X92576Y-80098D01*
X92421Y-79944D01*
X92219Y-79860D01*
X92001Y-79859D01*
X91798Y-79943D01*
X91644Y-80098D01*
X91635Y-80119D01*
X91635Y-78939D01*
X91573Y-78790D01*
X91465Y-78682D01*
X91465Y-75129D01*
X91395Y-74962D01*
X91268Y-74834D01*
X91100Y-74765D01*
X90919Y-74764D01*
X90752Y-74834D01*
X90624Y-74961D01*
X90555Y-75129D01*
X90554Y-75310D01*
X90624Y-75477D01*
X90751Y-75605D01*
X90919Y-75674D01*
X91100Y-75675D01*
X91267Y-75605D01*
X91395Y-75478D01*
X91464Y-75310D01*
X91465Y-75129D01*
X91465Y-78682D01*
X91459Y-78676D01*
X91310Y-78615D01*
X91149Y-78614D01*
X91000Y-78676D01*
X90960Y-78717D01*
X90960Y-78285D01*
X90871Y-78071D01*
X90708Y-77908D01*
X90688Y-77900D01*
X90708Y-77891D01*
X90871Y-77728D01*
X90959Y-77515D01*
X90960Y-77285D01*
X90871Y-77071D01*
X90708Y-76908D01*
X90495Y-76820D01*
X90265Y-76819D01*
X90051Y-76908D01*
X89995Y-76964D01*
X89973Y-76910D01*
X89859Y-76796D01*
X89710Y-76735D01*
X89549Y-76734D01*
X89400Y-76796D01*
X89286Y-76910D01*
X89225Y-77059D01*
X89224Y-77220D01*
X89286Y-77369D01*
X89400Y-77483D01*
X89549Y-77544D01*
X89710Y-77545D01*
X89799Y-77508D01*
X89799Y-77514D01*
X89888Y-77728D01*
X90051Y-77891D01*
X90071Y-77899D01*
X90051Y-77908D01*
X89888Y-78071D01*
X89800Y-78284D01*
X89799Y-78514D01*
X89802Y-78520D01*
X89690Y-78566D01*
X89576Y-78680D01*
X89515Y-78829D01*
X89514Y-78990D01*
X89576Y-79139D01*
X89690Y-79253D01*
X89839Y-79314D01*
X90000Y-79315D01*
X90149Y-79253D01*
X90263Y-79139D01*
X90324Y-78990D01*
X90324Y-78979D01*
X90494Y-78980D01*
X90708Y-78891D01*
X90871Y-78728D01*
X90959Y-78515D01*
X90960Y-78285D01*
X90960Y-78717D01*
X90886Y-78790D01*
X90825Y-78939D01*
X90824Y-79100D01*
X90886Y-79249D01*
X91000Y-79363D01*
X91149Y-79424D01*
X91310Y-79425D01*
X91459Y-79363D01*
X91573Y-79249D01*
X91634Y-79100D01*
X91635Y-78939D01*
X91635Y-80119D01*
X91610Y-80179D01*
X91576Y-80098D01*
X91421Y-79944D01*
X91219Y-79860D01*
X91001Y-79859D01*
X90798Y-79943D01*
X90644Y-80098D01*
X90610Y-80179D01*
X90576Y-80098D01*
X90421Y-79944D01*
X90219Y-79860D01*
X90001Y-79859D01*
X89798Y-79943D01*
X89644Y-80098D01*
X89560Y-80300D01*
X89559Y-80518D01*
X89643Y-80721D01*
X89798Y-80875D01*
X89873Y-80907D01*
X89822Y-80928D01*
X89794Y-81024D01*
X90110Y-81339D01*
X90425Y-81024D01*
X90397Y-80928D01*
X90342Y-80909D01*
X90421Y-80876D01*
X90575Y-80721D01*
X90609Y-80640D01*
X90643Y-80721D01*
X90798Y-80875D01*
X90879Y-80909D01*
X90798Y-80943D01*
X90644Y-81098D01*
X90612Y-81173D01*
X90591Y-81122D01*
X90495Y-81094D01*
X90180Y-81410D01*
X90495Y-81725D01*
X90591Y-81697D01*
X90610Y-81642D01*
X90643Y-81721D01*
X90798Y-81875D01*
X91000Y-81959D01*
X91218Y-81960D01*
X91421Y-81876D01*
X91575Y-81721D01*
X91609Y-81640D01*
X91643Y-81721D01*
X91798Y-81875D01*
X92000Y-81959D01*
X92218Y-81960D01*
X92421Y-81876D01*
X92575Y-81721D01*
X92659Y-81519D01*
X92660Y-81301D01*
X92660Y-83770D01*
X90425Y-83770D01*
X90425Y-81795D01*
X90110Y-81480D01*
X90039Y-81551D01*
X90039Y-81410D01*
X89724Y-81094D01*
X89628Y-81122D01*
X89555Y-81328D01*
X89566Y-81546D01*
X89628Y-81697D01*
X89724Y-81725D01*
X90039Y-81410D01*
X90039Y-81551D01*
X89794Y-81795D01*
X89822Y-81891D01*
X90028Y-81964D01*
X90246Y-81953D01*
X90397Y-81891D01*
X90425Y-81795D01*
X90425Y-83770D01*
X88605Y-83770D01*
X88605Y-72139D01*
X88565Y-72043D01*
X88565Y-71179D01*
X88503Y-71030D01*
X88389Y-70916D01*
X88240Y-70855D01*
X88079Y-70854D01*
X87930Y-70916D01*
X87826Y-71021D01*
X87759Y-70860D01*
X87610Y-70710D01*
X87415Y-70630D01*
X87205Y-70629D01*
X87010Y-70710D01*
X86860Y-70859D01*
X86780Y-71054D01*
X86779Y-71264D01*
X86860Y-71459D01*
X87009Y-71609D01*
X87204Y-71689D01*
X87414Y-71690D01*
X87609Y-71609D01*
X87759Y-71460D01*
X87781Y-71405D01*
X87816Y-71489D01*
X87930Y-71603D01*
X88079Y-71664D01*
X88240Y-71665D01*
X88389Y-71603D01*
X88503Y-71489D01*
X88564Y-71340D01*
X88565Y-71179D01*
X88565Y-72043D01*
X88535Y-71972D01*
X88408Y-71844D01*
X88240Y-71775D01*
X88059Y-71774D01*
X87892Y-71844D01*
X87764Y-71971D01*
X87695Y-72139D01*
X87694Y-72320D01*
X87764Y-72487D01*
X87891Y-72615D01*
X88059Y-72684D01*
X88240Y-72685D01*
X88407Y-72615D01*
X88535Y-72488D01*
X88604Y-72320D01*
X88605Y-72139D01*
X88605Y-83770D01*
X87783Y-83770D01*
X87875Y-83678D01*
X87944Y-83510D01*
X87945Y-83329D01*
X87875Y-83162D01*
X87855Y-83141D01*
X87855Y-81529D01*
X87785Y-81362D01*
X87658Y-81234D01*
X87490Y-81165D01*
X87309Y-81164D01*
X87142Y-81234D01*
X87014Y-81361D01*
X86945Y-81529D01*
X86944Y-81710D01*
X87014Y-81877D01*
X87141Y-82005D01*
X87261Y-82055D01*
X87139Y-82054D01*
X86972Y-82124D01*
X86844Y-82251D01*
X86775Y-82419D01*
X86774Y-82600D01*
X86844Y-82767D01*
X86971Y-82895D01*
X87139Y-82964D01*
X87320Y-82965D01*
X87487Y-82895D01*
X87615Y-82768D01*
X87684Y-82600D01*
X87685Y-82419D01*
X87615Y-82252D01*
X87488Y-82124D01*
X87368Y-82074D01*
X87490Y-82075D01*
X87657Y-82005D01*
X87785Y-81878D01*
X87854Y-81710D01*
X87855Y-81529D01*
X87855Y-83141D01*
X87748Y-83034D01*
X87580Y-82965D01*
X87399Y-82964D01*
X87232Y-83034D01*
X87104Y-83161D01*
X87035Y-83329D01*
X87034Y-83510D01*
X87104Y-83677D01*
X87196Y-83770D01*
X86410Y-83770D01*
X86410Y-66985D01*
X86329Y-66790D01*
X86180Y-66640D01*
X86057Y-66589D01*
X86129Y-66559D01*
X86279Y-66410D01*
X86359Y-66215D01*
X86360Y-66005D01*
X86279Y-65810D01*
X86130Y-65660D01*
X85935Y-65580D01*
X85725Y-65579D01*
X85530Y-65660D01*
X85380Y-65809D01*
X85300Y-66004D01*
X85299Y-66214D01*
X85380Y-66409D01*
X85529Y-66559D01*
X85652Y-66610D01*
X85580Y-66640D01*
X85430Y-66789D01*
X85350Y-66984D01*
X85349Y-67194D01*
X85430Y-67389D01*
X85579Y-67539D01*
X85774Y-67619D01*
X85984Y-67620D01*
X86179Y-67539D01*
X86329Y-67390D01*
X86409Y-67195D01*
X86410Y-66985D01*
X86410Y-83770D01*
X86395Y-83770D01*
X86395Y-75299D01*
X86333Y-75150D01*
X86219Y-75036D01*
X86070Y-74975D01*
X85909Y-74974D01*
X85760Y-75036D01*
X85646Y-75150D01*
X85614Y-75227D01*
X85615Y-75089D01*
X85553Y-74940D01*
X85439Y-74826D01*
X85290Y-74765D01*
X85129Y-74764D01*
X84980Y-74826D01*
X84866Y-74940D01*
X84805Y-75089D01*
X84804Y-75250D01*
X84866Y-75399D01*
X84980Y-75513D01*
X85129Y-75574D01*
X85290Y-75575D01*
X85439Y-75513D01*
X85553Y-75399D01*
X85585Y-75322D01*
X85584Y-75460D01*
X85646Y-75609D01*
X85760Y-75723D01*
X85909Y-75784D01*
X86070Y-75785D01*
X86219Y-75723D01*
X86333Y-75609D01*
X86394Y-75460D01*
X86395Y-75299D01*
X86395Y-83770D01*
X86310Y-83770D01*
X86310Y-81875D01*
X86229Y-81680D01*
X86080Y-81530D01*
X85885Y-81450D01*
X85675Y-81449D01*
X85565Y-81495D01*
X85565Y-75899D01*
X85503Y-75750D01*
X85389Y-75636D01*
X85240Y-75575D01*
X85079Y-75574D01*
X84930Y-75636D01*
X84816Y-75750D01*
X84755Y-75899D01*
X84754Y-76060D01*
X84816Y-76209D01*
X84930Y-76323D01*
X85079Y-76384D01*
X85240Y-76385D01*
X85389Y-76323D01*
X85503Y-76209D01*
X85564Y-76060D01*
X85565Y-75899D01*
X85565Y-81495D01*
X85480Y-81530D01*
X85330Y-81679D01*
X85250Y-81874D01*
X85249Y-82084D01*
X85330Y-82279D01*
X85479Y-82429D01*
X85674Y-82509D01*
X85884Y-82510D01*
X86079Y-82429D01*
X86229Y-82280D01*
X86309Y-82085D01*
X86310Y-81875D01*
X86310Y-83770D01*
X84680Y-83770D01*
X84680Y-71235D01*
X84680Y-69235D01*
X84599Y-69040D01*
X84450Y-68890D01*
X84255Y-68810D01*
X84045Y-68809D01*
X83850Y-68890D01*
X83700Y-69039D01*
X83620Y-69234D01*
X83619Y-69444D01*
X83700Y-69639D01*
X83849Y-69789D01*
X84044Y-69869D01*
X84254Y-69870D01*
X84449Y-69789D01*
X84599Y-69640D01*
X84679Y-69445D01*
X84680Y-69235D01*
X84680Y-71235D01*
X84599Y-71040D01*
X84450Y-70890D01*
X84255Y-70810D01*
X84045Y-70809D01*
X83850Y-70890D01*
X83700Y-71039D01*
X83620Y-71234D01*
X83619Y-71444D01*
X83700Y-71639D01*
X83849Y-71789D01*
X84044Y-71869D01*
X84254Y-71870D01*
X84449Y-71789D01*
X84599Y-71640D01*
X84679Y-71445D01*
X84680Y-71235D01*
X84680Y-83770D01*
X81520Y-83770D01*
X81520Y-80911D01*
X81415Y-80657D01*
X81415Y-73079D01*
X81353Y-72930D01*
X81335Y-72912D01*
X81335Y-71399D01*
X81273Y-71250D01*
X81159Y-71136D01*
X81010Y-71075D01*
X80849Y-71074D01*
X80700Y-71136D01*
X80586Y-71250D01*
X80525Y-71399D01*
X80524Y-71560D01*
X80586Y-71709D01*
X80700Y-71823D01*
X80849Y-71884D01*
X81010Y-71885D01*
X81159Y-71823D01*
X81273Y-71709D01*
X81334Y-71560D01*
X81335Y-71399D01*
X81335Y-72912D01*
X81239Y-72816D01*
X81090Y-72755D01*
X80929Y-72754D01*
X80780Y-72816D01*
X80666Y-72930D01*
X80605Y-73079D01*
X80604Y-73240D01*
X80666Y-73389D01*
X80780Y-73503D01*
X80929Y-73564D01*
X81090Y-73565D01*
X81239Y-73503D01*
X81353Y-73389D01*
X81414Y-73240D01*
X81415Y-73079D01*
X81415Y-80657D01*
X81406Y-80635D01*
X81195Y-80424D01*
X80919Y-80310D01*
X80621Y-80309D01*
X80345Y-80423D01*
X80310Y-80459D01*
X80310Y-65412D01*
X80150Y-65026D01*
X79855Y-64730D01*
X79469Y-64570D01*
X79052Y-64569D01*
X78666Y-64729D01*
X78370Y-65024D01*
X78210Y-65410D01*
X78209Y-65827D01*
X78369Y-66214D01*
X78664Y-66509D01*
X79050Y-66669D01*
X79467Y-66670D01*
X79854Y-66510D01*
X80149Y-66215D01*
X80309Y-65829D01*
X80310Y-65412D01*
X80310Y-80459D01*
X80305Y-80464D01*
X80305Y-70189D01*
X80243Y-70040D01*
X80225Y-70022D01*
X80225Y-68329D01*
X80163Y-68180D01*
X80049Y-68066D01*
X79900Y-68005D01*
X79739Y-68004D01*
X79590Y-68066D01*
X79476Y-68180D01*
X79415Y-68329D01*
X79414Y-68490D01*
X79476Y-68639D01*
X79590Y-68753D01*
X79739Y-68814D01*
X79900Y-68815D01*
X80049Y-68753D01*
X80163Y-68639D01*
X80224Y-68490D01*
X80225Y-68329D01*
X80225Y-70022D01*
X80129Y-69926D01*
X79980Y-69865D01*
X79915Y-69865D01*
X79915Y-69219D01*
X79853Y-69070D01*
X79739Y-68956D01*
X79590Y-68895D01*
X79429Y-68894D01*
X79280Y-68956D01*
X79166Y-69070D01*
X79105Y-69219D01*
X79104Y-69380D01*
X79166Y-69529D01*
X79280Y-69643D01*
X79429Y-69704D01*
X79590Y-69705D01*
X79739Y-69643D01*
X79853Y-69529D01*
X79914Y-69380D01*
X79915Y-69219D01*
X79915Y-69865D01*
X79819Y-69864D01*
X79670Y-69926D01*
X79556Y-70040D01*
X79495Y-70189D01*
X79494Y-70350D01*
X79556Y-70499D01*
X79670Y-70613D01*
X79819Y-70674D01*
X79980Y-70675D01*
X80129Y-70613D01*
X80243Y-70499D01*
X80304Y-70350D01*
X80305Y-70189D01*
X80305Y-80464D01*
X80134Y-80634D01*
X80081Y-80761D01*
X80036Y-80651D01*
X79920Y-80600D01*
X79849Y-80670D01*
X79849Y-80529D01*
X79798Y-80413D01*
X79519Y-80306D01*
X79465Y-80307D01*
X79465Y-70259D01*
X79403Y-70110D01*
X79289Y-69996D01*
X79140Y-69935D01*
X78979Y-69934D01*
X78830Y-69996D01*
X78775Y-70052D01*
X78775Y-68709D01*
X78713Y-68560D01*
X78599Y-68446D01*
X78450Y-68385D01*
X78289Y-68384D01*
X78140Y-68446D01*
X78026Y-68560D01*
X77965Y-68709D01*
X77964Y-68870D01*
X78026Y-69019D01*
X78140Y-69133D01*
X78289Y-69194D01*
X78450Y-69195D01*
X78599Y-69133D01*
X78713Y-69019D01*
X78774Y-68870D01*
X78775Y-68709D01*
X78775Y-70052D01*
X78716Y-70110D01*
X78655Y-70259D01*
X78654Y-70420D01*
X78716Y-70569D01*
X78830Y-70683D01*
X78979Y-70744D01*
X79140Y-70745D01*
X79289Y-70683D01*
X79403Y-70569D01*
X79464Y-70420D01*
X79465Y-70259D01*
X79465Y-80307D01*
X79221Y-80314D01*
X78981Y-80413D01*
X78930Y-80529D01*
X79390Y-80989D01*
X79849Y-80529D01*
X79849Y-80670D01*
X79460Y-81060D01*
X79920Y-81519D01*
X80036Y-81468D01*
X80080Y-81354D01*
X80133Y-81484D01*
X80344Y-81695D01*
X80620Y-81809D01*
X80918Y-81810D01*
X81194Y-81696D01*
X81405Y-81485D01*
X81519Y-81209D01*
X81520Y-80911D01*
X81520Y-83770D01*
X79849Y-83770D01*
X79849Y-81590D01*
X79390Y-81130D01*
X79319Y-81201D01*
X79319Y-81060D01*
X78859Y-80600D01*
X78775Y-80637D01*
X78775Y-72899D01*
X78713Y-72750D01*
X78599Y-72636D01*
X78450Y-72575D01*
X78289Y-72574D01*
X78140Y-72636D01*
X78026Y-72750D01*
X77965Y-72899D01*
X77964Y-73060D01*
X78026Y-73209D01*
X78140Y-73323D01*
X78289Y-73384D01*
X78450Y-73385D01*
X78599Y-73323D01*
X78713Y-73209D01*
X78774Y-73060D01*
X78775Y-72899D01*
X78775Y-80637D01*
X78743Y-80651D01*
X78715Y-80725D01*
X78715Y-77889D01*
X78645Y-77722D01*
X78518Y-77594D01*
X78350Y-77525D01*
X78169Y-77524D01*
X78002Y-77594D01*
X77874Y-77721D01*
X77805Y-77889D01*
X77804Y-78070D01*
X77874Y-78237D01*
X78001Y-78365D01*
X78169Y-78434D01*
X78350Y-78435D01*
X78517Y-78365D01*
X78645Y-78238D01*
X78714Y-78070D01*
X78715Y-77889D01*
X78715Y-80725D01*
X78636Y-80930D01*
X78644Y-81228D01*
X78743Y-81468D01*
X78859Y-81519D01*
X79319Y-81060D01*
X79319Y-81201D01*
X78930Y-81590D01*
X78981Y-81706D01*
X79260Y-81813D01*
X79558Y-81805D01*
X79798Y-81706D01*
X79849Y-81590D01*
X79849Y-83770D01*
X72497Y-83770D01*
X72497Y-74803D01*
X72497Y-67083D01*
X72489Y-66780D01*
X72388Y-66536D01*
X72271Y-66482D01*
X72200Y-66553D01*
X72200Y-66412D01*
X72147Y-66294D01*
X71864Y-66186D01*
X71561Y-66193D01*
X71316Y-66294D01*
X71263Y-66412D01*
X71732Y-66880D01*
X72200Y-66412D01*
X72200Y-66553D01*
X71802Y-66951D01*
X72271Y-67419D01*
X72388Y-67366D01*
X72497Y-67083D01*
X72497Y-74803D01*
X72493Y-74667D01*
X72493Y-69477D01*
X72378Y-69197D01*
X72200Y-69019D01*
X72200Y-67490D01*
X71732Y-67022D01*
X71661Y-67092D01*
X71661Y-66951D01*
X71192Y-66482D01*
X71075Y-66536D01*
X71025Y-66666D01*
X70971Y-66536D01*
X70853Y-66482D01*
X70783Y-66553D01*
X70783Y-66412D01*
X70729Y-66294D01*
X70447Y-66186D01*
X70144Y-66193D01*
X69899Y-66294D01*
X69846Y-66412D01*
X70314Y-66880D01*
X70783Y-66412D01*
X70783Y-66553D01*
X70385Y-66951D01*
X70853Y-67419D01*
X70971Y-67366D01*
X71021Y-67235D01*
X71075Y-67366D01*
X71192Y-67419D01*
X71661Y-66951D01*
X71661Y-67092D01*
X71263Y-67490D01*
X71316Y-67607D01*
X71599Y-67716D01*
X71902Y-67709D01*
X72147Y-67607D01*
X72200Y-67490D01*
X72200Y-69019D01*
X72164Y-68983D01*
X71884Y-68866D01*
X71581Y-68866D01*
X71301Y-68982D01*
X71086Y-69196D01*
X71023Y-69348D01*
X70960Y-69197D01*
X70783Y-69019D01*
X70783Y-67490D01*
X70314Y-67022D01*
X70244Y-67092D01*
X70244Y-66951D01*
X69829Y-66537D01*
X69829Y-66536D01*
X69828Y-66535D01*
X69775Y-66482D01*
X69743Y-66497D01*
X69712Y-66482D01*
X69659Y-66535D01*
X69658Y-66536D01*
X69657Y-66537D01*
X69641Y-66553D01*
X69641Y-66412D01*
X69588Y-66294D01*
X69305Y-66186D01*
X69002Y-66193D01*
X68757Y-66294D01*
X68704Y-66412D01*
X69172Y-66880D01*
X69641Y-66412D01*
X69641Y-66553D01*
X69243Y-66951D01*
X69657Y-67365D01*
X69658Y-67366D01*
X69659Y-67367D01*
X69712Y-67419D01*
X69743Y-67405D01*
X69775Y-67419D01*
X69828Y-67367D01*
X69829Y-67366D01*
X69829Y-67365D01*
X70244Y-66951D01*
X70244Y-67092D01*
X69846Y-67490D01*
X69899Y-67607D01*
X70182Y-67716D01*
X70485Y-67709D01*
X70729Y-67607D01*
X70783Y-67490D01*
X70783Y-69019D01*
X70746Y-68983D01*
X70466Y-68866D01*
X70163Y-68866D01*
X69883Y-68982D01*
X69743Y-69122D01*
X69641Y-69019D01*
X69641Y-67490D01*
X69172Y-67022D01*
X69102Y-67092D01*
X69102Y-66951D01*
X68633Y-66482D01*
X68516Y-66536D01*
X68407Y-66819D01*
X68415Y-67122D01*
X68516Y-67366D01*
X68633Y-67419D01*
X69102Y-66951D01*
X69102Y-67092D01*
X68704Y-67490D01*
X68757Y-67607D01*
X69040Y-67716D01*
X69343Y-67709D01*
X69588Y-67607D01*
X69641Y-67490D01*
X69641Y-69019D01*
X69605Y-68983D01*
X69325Y-68866D01*
X69022Y-68866D01*
X68742Y-68982D01*
X68527Y-69196D01*
X68411Y-69476D01*
X68411Y-69779D01*
X68526Y-70059D01*
X68740Y-70274D01*
X69020Y-70390D01*
X69323Y-70390D01*
X69603Y-70274D01*
X69743Y-70135D01*
X69882Y-70274D01*
X70162Y-70390D01*
X70465Y-70390D01*
X70745Y-70274D01*
X70960Y-70060D01*
X71023Y-69908D01*
X71085Y-70059D01*
X71299Y-70274D01*
X71579Y-70390D01*
X71882Y-70390D01*
X72163Y-70274D01*
X72377Y-70060D01*
X72493Y-69780D01*
X72493Y-69477D01*
X72493Y-74667D01*
X72489Y-74500D01*
X72388Y-74256D01*
X72271Y-74202D01*
X72200Y-74273D01*
X72200Y-74132D01*
X72147Y-74014D01*
X71864Y-73906D01*
X71561Y-73913D01*
X71316Y-74014D01*
X71263Y-74132D01*
X71732Y-74600D01*
X72200Y-74132D01*
X72200Y-74273D01*
X71802Y-74671D01*
X72271Y-75139D01*
X72388Y-75086D01*
X72497Y-74803D01*
X72497Y-83770D01*
X72493Y-83770D01*
X72493Y-77197D01*
X72378Y-76917D01*
X72200Y-76739D01*
X72200Y-75210D01*
X71732Y-74742D01*
X71661Y-74812D01*
X71661Y-74671D01*
X71192Y-74202D01*
X71075Y-74256D01*
X71025Y-74386D01*
X70971Y-74256D01*
X70853Y-74202D01*
X70783Y-74273D01*
X70783Y-74132D01*
X70729Y-74014D01*
X70447Y-73906D01*
X70144Y-73913D01*
X69899Y-74014D01*
X69846Y-74132D01*
X70314Y-74600D01*
X70783Y-74132D01*
X70783Y-74273D01*
X70385Y-74671D01*
X70853Y-75139D01*
X70971Y-75086D01*
X71021Y-74955D01*
X71075Y-75086D01*
X71192Y-75139D01*
X71661Y-74671D01*
X71661Y-74812D01*
X71263Y-75210D01*
X71316Y-75327D01*
X71599Y-75436D01*
X71902Y-75429D01*
X72147Y-75327D01*
X72200Y-75210D01*
X72200Y-76739D01*
X72164Y-76703D01*
X71884Y-76586D01*
X71581Y-76586D01*
X71301Y-76702D01*
X71086Y-76916D01*
X71023Y-77068D01*
X70960Y-76917D01*
X70783Y-76739D01*
X70783Y-75210D01*
X70314Y-74742D01*
X70244Y-74812D01*
X70244Y-74671D01*
X69829Y-74257D01*
X69829Y-74256D01*
X69828Y-74255D01*
X69775Y-74202D01*
X69743Y-74217D01*
X69712Y-74202D01*
X69659Y-74255D01*
X69658Y-74256D01*
X69657Y-74257D01*
X69641Y-74273D01*
X69641Y-74132D01*
X69588Y-74014D01*
X69305Y-73906D01*
X69002Y-73913D01*
X68757Y-74014D01*
X68704Y-74132D01*
X69172Y-74600D01*
X69641Y-74132D01*
X69641Y-74273D01*
X69243Y-74671D01*
X69657Y-75085D01*
X69658Y-75086D01*
X69659Y-75087D01*
X69712Y-75139D01*
X69743Y-75125D01*
X69775Y-75139D01*
X69828Y-75087D01*
X69829Y-75086D01*
X69829Y-75085D01*
X70244Y-74671D01*
X70244Y-74812D01*
X69846Y-75210D01*
X69899Y-75327D01*
X70182Y-75436D01*
X70485Y-75429D01*
X70729Y-75327D01*
X70783Y-75210D01*
X70783Y-76739D01*
X70746Y-76703D01*
X70466Y-76586D01*
X70163Y-76586D01*
X69883Y-76702D01*
X69743Y-76842D01*
X69641Y-76739D01*
X69641Y-75210D01*
X69172Y-74742D01*
X69102Y-74812D01*
X69102Y-74671D01*
X68633Y-74202D01*
X68516Y-74256D01*
X68407Y-74539D01*
X68415Y-74842D01*
X68516Y-75086D01*
X68633Y-75139D01*
X69102Y-74671D01*
X69102Y-74812D01*
X68704Y-75210D01*
X68757Y-75327D01*
X69040Y-75436D01*
X69343Y-75429D01*
X69588Y-75327D01*
X69641Y-75210D01*
X69641Y-76739D01*
X69605Y-76703D01*
X69325Y-76586D01*
X69022Y-76586D01*
X68742Y-76702D01*
X68527Y-76916D01*
X68411Y-77196D01*
X68411Y-77499D01*
X68526Y-77779D01*
X68740Y-77994D01*
X69020Y-78110D01*
X69323Y-78110D01*
X69603Y-77994D01*
X69743Y-77855D01*
X69882Y-77994D01*
X70162Y-78110D01*
X70465Y-78110D01*
X70745Y-77994D01*
X70960Y-77780D01*
X71023Y-77628D01*
X71085Y-77779D01*
X71299Y-77994D01*
X71579Y-78110D01*
X71882Y-78110D01*
X72163Y-77994D01*
X72377Y-77780D01*
X72493Y-77500D01*
X72493Y-77197D01*
X72493Y-83770D01*
X69810Y-83770D01*
X69810Y-82412D01*
X69650Y-82026D01*
X69355Y-81730D01*
X68969Y-81570D01*
X68552Y-81569D01*
X68166Y-81729D01*
X67870Y-82024D01*
X67710Y-82410D01*
X67709Y-82827D01*
X67869Y-83214D01*
X68164Y-83509D01*
X68550Y-83669D01*
X68967Y-83670D01*
X69354Y-83510D01*
X69649Y-83215D01*
X69809Y-82829D01*
X69810Y-82412D01*
X69810Y-83770D01*
X67610Y-83770D01*
X67619Y-64470D01*
X106910Y-64470D01*
X106910Y-83770D01*
M02*
