M48
;DRILL file {Pcbnew (2013-04-19 BZR 4011)-stable} date 23/05/2013 19:49:01
;FORMAT={-:-/ absolute / inch / decimal}
FMAT,2
INCH,TZ
T1C0.014
T2C0.020
T3C0.029
T4C0.030
T5C0.032
T6C0.035
T7C0.040
T8C0.046
T9C0.069
T10C0.120
T11C0.141
%
G90
G05
M72
T1
X7.837Y-6.879
X7.837Y-7.298
X7.906Y-7.034
X7.909Y-7.087
X7.922Y-6.84
X7.951Y-6.93
X7.958Y-7.326
X7.978Y-7.142
X7.978Y-7.243
X7.982Y-6.841
X7.99Y-7.027
X7.99Y-7.087
X8.093Y-7.148
X8.101Y-7.316
X8.144Y-7.148
X8.161Y-7.317
X8.448Y-7.517
X8.456Y-7.598
X8.516Y-7.598
X8.521Y-7.517
X8.599Y-7.478
X8.599Y-7.538
X8.67Y-6.611
X8.816Y-7.126
X8.894Y-7.126
X8.963Y-7.714
X8.992Y-7.891
X9.123Y-7.902
X9.123Y-7.955
X9.275Y-7.53
X9.275Y-7.571
X9.349Y-7.874
X9.407Y-7.738
X9.407Y-7.845
X9.418Y-7.215
X9.439Y-7.397
X9.448Y-7.84
X9.461Y-7.738
X9.476Y-7.215
X9.492Y-7.397
X9.574Y-7.736
X9.622Y-7.577
X9.623Y-7.535
X9.641Y-7.792
X9.8Y-7.54
X9.802Y-7.598
X9.82Y-7.691
X9.943Y-7.94
X10.02Y-7.64
X10.021Y-7.69
X10.022Y-7.94
X10.136Y-7.74
X10.137Y-7.89
T2
X7.826Y-7.798
X8.024Y-7.695
X8.208Y-8.306
X8.237Y-6.956
X8.297Y-7.153
X8.723Y-8.251
X8.74Y-8.162
X8.749Y-8.342
X8.807Y-8.161
X8.808Y-8.251
X8.808Y-8.341
X8.815Y-7.223
X8.894Y-7.218
X9.1Y-7.58
X9.101Y-7.522
X9.364Y-7.94
X9.591Y-7.925
T3
X8.115Y-7.757
X8.175Y-8.006
X8.18Y-7.651
X8.393Y-7.638
X8.578Y-8.198
X8.583Y-6.611
X8.588Y-6.709
X8.655Y-6.71
X8.666Y-7.652
X8.731Y-7.116
X8.731Y-7.186
X8.828Y-8.091
X8.852Y-7.652
X8.915Y-7.802
X10.482Y-7.564
T4
X8.415Y-6.934
X8.415Y-7.134
T5
X9.038Y-7.74
X9.038Y-7.84
T6
X9.387Y-7.034
X9.387Y-7.114
X9.466Y-7.034
X9.466Y-7.114
X9.545Y-7.034
X9.545Y-7.114
X9.624Y-7.034
X9.624Y-7.114
X9.702Y-7.034
X9.702Y-7.114
X9.781Y-7.034
X9.781Y-7.114
X9.859Y-7.034
X9.859Y-7.114
X9.938Y-7.034
X9.938Y-7.114
X10.017Y-7.034
X10.017Y-7.114
T7
X9.011Y-8.041
X9.011Y-8.141
X9.111Y-8.041
X9.111Y-8.141
X9.211Y-8.041
X9.211Y-8.141
X9.502Y-8.201
X9.602Y-8.201
T8
X7.939Y-8.106
X8.077Y-8.106
X9.739Y-7.997
X9.739Y-8.097
X9.739Y-8.197
X10.266Y-7.53
X10.266Y-7.638
X10.266Y-7.746
X10.266Y-7.854
X10.266Y-7.962
X10.378Y-7.584
X10.378Y-7.692
X10.378Y-7.8
X10.378Y-7.908
T9
X6.9173Y-6.6951
X6.9173Y-6.9629
X6.9173Y-7.4671
X6.9173Y-7.7349
X7.0315Y-6.6951
X7.0315Y-6.9629
X7.0315Y-7.4671
X7.0315Y-7.7349
X7.1732Y-6.6951
X7.1732Y-6.9629
X7.1732Y-7.4671
X7.1732Y-7.7349
T10
X6.876Y-8.262
X7.926Y-6.562
X9.926Y-8.262
X10.576Y-6.562
T11
X10.322Y-7.254
X10.322Y-8.238
T0
M30
