G04 (created by PCBNEW (2013-04-19 BZR 4011)-stable) date 23/05/2013 19:48:57*
%MOIN*%
G04 Gerber Fmt 3.4, Leading zero omitted, Abs format*
%FSLAX34Y34*%
G01*
G70*
G90*
G04 APERTURE LIST*
%ADD10C,0.006*%
%ADD11C,0.1*%
%ADD12C,0.079*%
%ADD13C,0.075*%
%ADD14C,0.066*%
%ADD15C,0.056*%
%ADD16C,0.24*%
%ADD17R,0.079X0.079*%
%ADD18C,0.102362*%
%ADD19C,0.06*%
%ADD20C,0.16*%
%ADD21C,0.063*%
%ADD22C,0.041*%
%ADD23C,0.031*%
%ADD24C,0.025*%
%ADD25C,0.01*%
G04 APERTURE END LIST*
G54D10*
G54D11*
X79390Y-81060D03*
X80770Y-81060D03*
G54D12*
X97390Y-79970D03*
X97390Y-80970D03*
X97390Y-81970D03*
G54D13*
X96020Y-82010D03*
X95020Y-82010D03*
G54D14*
X90380Y-77400D03*
X90380Y-78400D03*
G54D15*
X84150Y-69340D03*
X84150Y-71340D03*
G54D16*
X103220Y-82380D03*
X103220Y-72540D03*
G54D17*
X102660Y-79620D03*
G54D12*
X102660Y-78540D03*
X102660Y-77460D03*
X102660Y-76380D03*
X102660Y-75300D03*
X103780Y-75840D03*
X103780Y-76920D03*
X103780Y-78000D03*
X103780Y-79080D03*
G54D18*
X69172Y-74671D03*
X69172Y-77348D03*
X70314Y-77348D03*
X71732Y-77348D03*
X70314Y-74671D03*
X71732Y-74671D03*
X69172Y-66951D03*
X69172Y-69628D03*
X70314Y-69628D03*
X71732Y-69628D03*
X70314Y-66951D03*
X71732Y-66951D03*
G54D19*
X92110Y-80410D03*
X92110Y-81410D03*
X91110Y-80410D03*
X91110Y-81410D03*
X90110Y-80410D03*
X90110Y-81410D03*
G54D20*
X99260Y-82620D03*
G54D21*
X100170Y-71140D03*
X99380Y-71140D03*
X98590Y-71140D03*
X97810Y-71140D03*
X97020Y-71140D03*
X96240Y-71140D03*
X95450Y-71140D03*
X94660Y-71140D03*
X93870Y-71140D03*
X100170Y-70340D03*
X99380Y-70340D03*
X98590Y-70340D03*
X97810Y-70340D03*
X97020Y-70340D03*
X96240Y-70340D03*
X95450Y-70340D03*
X94660Y-70340D03*
X93870Y-70340D03*
G54D20*
X68760Y-82620D03*
X79260Y-65620D03*
X105760Y-65620D03*
G54D15*
X85880Y-67090D03*
X85830Y-66110D03*
G54D22*
X88150Y-72230D03*
G54D23*
X88160Y-71260D03*
G54D15*
X87310Y-71160D03*
G54D23*
X89630Y-77140D03*
X79820Y-68410D03*
X79060Y-70340D03*
X79900Y-70270D03*
X80930Y-71480D03*
X81010Y-73160D03*
X85990Y-75380D03*
X85160Y-75980D03*
X85210Y-75170D03*
G54D22*
X78260Y-77980D03*
G54D15*
X85780Y-81980D03*
G54D23*
X92750Y-75300D03*
G54D22*
X91010Y-75220D03*
G54D23*
X94920Y-73970D03*
X96220Y-75770D03*
X94070Y-77380D03*
X91230Y-79020D03*
X94070Y-78450D03*
X94760Y-72150D03*
X98020Y-75980D03*
X100200Y-76400D03*
G54D22*
X87230Y-82510D03*
X87400Y-81620D03*
X87490Y-83420D03*
G54D23*
X78370Y-68790D03*
X78370Y-72980D03*
X101360Y-77400D03*
X96410Y-77920D03*
X98200Y-76910D03*
X101370Y-78900D03*
G54D15*
X81750Y-80060D03*
X81150Y-77570D03*
X81800Y-76510D03*
X83930Y-76380D03*
X89150Y-78020D03*
X88280Y-80910D03*
X88520Y-76520D03*
X86660Y-76520D03*
X86550Y-67100D03*
G54D24*
X86700Y-66110D03*
G54D22*
X82970Y-71530D03*
X82370Y-69560D03*
X88940Y-72180D03*
G54D24*
X88940Y-71260D03*
G54D15*
X87310Y-71860D03*
G54D23*
X79220Y-68400D03*
X79090Y-70870D03*
X79900Y-70870D03*
X79780Y-71420D03*
X81440Y-71480D03*
X81610Y-73170D03*
X79780Y-72430D03*
X79580Y-73260D03*
X84560Y-75980D03*
G54D24*
X84480Y-75170D03*
G54D23*
X85990Y-74780D03*
G54D22*
X80240Y-76950D03*
X88080Y-82510D03*
X88080Y-83410D03*
X88070Y-81610D03*
X82080Y-83060D03*
G54D23*
X92750Y-75710D03*
G54D22*
X91000Y-75800D03*
G54D23*
X94390Y-73970D03*
X96230Y-75350D03*
X94610Y-77380D03*
X91230Y-79550D03*
X94480Y-78400D03*
X94180Y-72150D03*
X98000Y-75400D03*
G54D15*
X104820Y-75640D03*
G54D23*
X100210Y-76900D03*
X100220Y-79400D03*
X99430Y-79400D03*
G54D22*
X95910Y-79250D03*
X93640Y-79400D03*
G54D23*
X79510Y-69300D03*
X89920Y-78910D03*
X93490Y-78740D03*
X95740Y-77360D03*
G54D10*
G36*
X106910Y-83770D02*
X106810Y-83770D01*
X106810Y-65412D01*
X106650Y-65026D01*
X106355Y-64730D01*
X105969Y-64570D01*
X105552Y-64569D01*
X105166Y-64729D01*
X104870Y-65024D01*
X104710Y-65410D01*
X104709Y-65827D01*
X104869Y-66214D01*
X105164Y-66509D01*
X105550Y-66669D01*
X105967Y-66670D01*
X106354Y-66510D01*
X106649Y-66215D01*
X106809Y-65829D01*
X106810Y-65412D01*
X106810Y-83770D01*
X105350Y-83770D01*
X105350Y-75535D01*
X105269Y-75340D01*
X105120Y-75190D01*
X104925Y-75110D01*
X104715Y-75109D01*
X104670Y-75128D01*
X104670Y-72252D01*
X104449Y-71719D01*
X104042Y-71311D01*
X103509Y-71090D01*
X102932Y-71089D01*
X102399Y-71310D01*
X101991Y-71717D01*
X101770Y-72250D01*
X101769Y-72827D01*
X101990Y-73360D01*
X102397Y-73768D01*
X102930Y-73989D01*
X103507Y-73990D01*
X104040Y-73769D01*
X104448Y-73362D01*
X104669Y-72829D01*
X104670Y-72252D01*
X104670Y-75128D01*
X104520Y-75190D01*
X104370Y-75339D01*
X104318Y-75466D01*
X104145Y-75293D01*
X103908Y-75195D01*
X103652Y-75194D01*
X103415Y-75292D01*
X103304Y-75402D01*
X103305Y-75172D01*
X103207Y-74935D01*
X103025Y-74753D01*
X102788Y-74655D01*
X102532Y-74654D01*
X102295Y-74752D01*
X102113Y-74934D01*
X102015Y-75171D01*
X102014Y-75427D01*
X102112Y-75664D01*
X102287Y-75840D01*
X102113Y-76014D01*
X102015Y-76251D01*
X102014Y-76507D01*
X102112Y-76744D01*
X102287Y-76920D01*
X102113Y-77094D01*
X102015Y-77331D01*
X102014Y-77587D01*
X102112Y-77824D01*
X102287Y-78000D01*
X102113Y-78174D01*
X102015Y-78411D01*
X102014Y-78667D01*
X102112Y-78904D01*
X102192Y-78984D01*
X102123Y-79012D01*
X102053Y-79083D01*
X102015Y-79175D01*
X102014Y-79274D01*
X102014Y-80064D01*
X102052Y-80156D01*
X102123Y-80226D01*
X102215Y-80264D01*
X102314Y-80265D01*
X103104Y-80265D01*
X103196Y-80227D01*
X103266Y-80156D01*
X103304Y-80064D01*
X103305Y-79965D01*
X103305Y-79517D01*
X103414Y-79626D01*
X103651Y-79724D01*
X103907Y-79725D01*
X104144Y-79627D01*
X104326Y-79445D01*
X104424Y-79208D01*
X104425Y-78952D01*
X104327Y-78715D01*
X104152Y-78539D01*
X104326Y-78365D01*
X104424Y-78128D01*
X104425Y-77872D01*
X104327Y-77635D01*
X104152Y-77459D01*
X104326Y-77285D01*
X104424Y-77048D01*
X104425Y-76792D01*
X104327Y-76555D01*
X104152Y-76379D01*
X104326Y-76205D01*
X104417Y-75986D01*
X104519Y-76089D01*
X104714Y-76169D01*
X104924Y-76170D01*
X105119Y-76089D01*
X105269Y-75940D01*
X105349Y-75745D01*
X105350Y-75535D01*
X105350Y-83770D01*
X103652Y-83770D01*
X104040Y-83609D01*
X104448Y-83202D01*
X104669Y-82669D01*
X104670Y-82092D01*
X104449Y-81559D01*
X104042Y-81151D01*
X103509Y-80930D01*
X102932Y-80929D01*
X102399Y-81150D01*
X101991Y-81557D01*
X101775Y-82078D01*
X101775Y-78819D01*
X101765Y-78795D01*
X101765Y-77319D01*
X101703Y-77170D01*
X101589Y-77056D01*
X101440Y-76995D01*
X101279Y-76994D01*
X101130Y-77056D01*
X101016Y-77170D01*
X100955Y-77319D01*
X100954Y-77480D01*
X101016Y-77629D01*
X101130Y-77743D01*
X101279Y-77804D01*
X101440Y-77805D01*
X101589Y-77743D01*
X101703Y-77629D01*
X101764Y-77480D01*
X101765Y-77319D01*
X101765Y-78795D01*
X101713Y-78670D01*
X101599Y-78556D01*
X101450Y-78495D01*
X101289Y-78494D01*
X101140Y-78556D01*
X101026Y-78670D01*
X100965Y-78819D01*
X100964Y-78980D01*
X101026Y-79129D01*
X101140Y-79243D01*
X101289Y-79304D01*
X101450Y-79305D01*
X101599Y-79243D01*
X101713Y-79129D01*
X101774Y-78980D01*
X101775Y-78819D01*
X101775Y-82078D01*
X101770Y-82090D01*
X101769Y-82667D01*
X101990Y-83200D01*
X102397Y-83608D01*
X102786Y-83770D01*
X100735Y-83770D01*
X100735Y-71028D01*
X100649Y-70820D01*
X100569Y-70739D01*
X100648Y-70660D01*
X100734Y-70452D01*
X100735Y-70228D01*
X100649Y-70020D01*
X100490Y-69861D01*
X100282Y-69775D01*
X100058Y-69774D01*
X99850Y-69860D01*
X99775Y-69935D01*
X99700Y-69861D01*
X99492Y-69775D01*
X99268Y-69774D01*
X99060Y-69860D01*
X98985Y-69935D01*
X98910Y-69861D01*
X98702Y-69775D01*
X98478Y-69774D01*
X98270Y-69860D01*
X98200Y-69930D01*
X98130Y-69861D01*
X97922Y-69775D01*
X97698Y-69774D01*
X97490Y-69860D01*
X97415Y-69935D01*
X97340Y-69861D01*
X97132Y-69775D01*
X96908Y-69774D01*
X96700Y-69860D01*
X96630Y-69930D01*
X96560Y-69861D01*
X96352Y-69775D01*
X96128Y-69774D01*
X95920Y-69860D01*
X95845Y-69935D01*
X95770Y-69861D01*
X95562Y-69775D01*
X95338Y-69774D01*
X95130Y-69860D01*
X95055Y-69935D01*
X94980Y-69861D01*
X94772Y-69775D01*
X94548Y-69774D01*
X94340Y-69860D01*
X94265Y-69935D01*
X94190Y-69861D01*
X93982Y-69775D01*
X93758Y-69774D01*
X93550Y-69860D01*
X93391Y-70019D01*
X93305Y-70227D01*
X93304Y-70451D01*
X93390Y-70659D01*
X93470Y-70740D01*
X93391Y-70819D01*
X93305Y-71027D01*
X93304Y-71251D01*
X93390Y-71459D01*
X93549Y-71618D01*
X93757Y-71704D01*
X93981Y-71705D01*
X94189Y-71619D01*
X94264Y-71544D01*
X94339Y-71618D01*
X94547Y-71704D01*
X94771Y-71705D01*
X94979Y-71619D01*
X95054Y-71544D01*
X95129Y-71618D01*
X95337Y-71704D01*
X95561Y-71705D01*
X95769Y-71619D01*
X95844Y-71544D01*
X95919Y-71618D01*
X96127Y-71704D01*
X96351Y-71705D01*
X96559Y-71619D01*
X96629Y-71549D01*
X96699Y-71618D01*
X96907Y-71704D01*
X97131Y-71705D01*
X97339Y-71619D01*
X97414Y-71544D01*
X97489Y-71618D01*
X97697Y-71704D01*
X97921Y-71705D01*
X98129Y-71619D01*
X98199Y-71549D01*
X98269Y-71618D01*
X98477Y-71704D01*
X98701Y-71705D01*
X98909Y-71619D01*
X98984Y-71544D01*
X99059Y-71618D01*
X99267Y-71704D01*
X99491Y-71705D01*
X99699Y-71619D01*
X99774Y-71544D01*
X99849Y-71618D01*
X100057Y-71704D01*
X100281Y-71705D01*
X100489Y-71619D01*
X100648Y-71460D01*
X100734Y-71252D01*
X100735Y-71028D01*
X100735Y-83770D01*
X100625Y-83770D01*
X100625Y-79319D01*
X100615Y-79295D01*
X100615Y-76819D01*
X100553Y-76670D01*
X100439Y-76556D01*
X100290Y-76495D01*
X100129Y-76494D01*
X99980Y-76556D01*
X99866Y-76670D01*
X99805Y-76819D01*
X99804Y-76980D01*
X99866Y-77129D01*
X99980Y-77243D01*
X100129Y-77304D01*
X100290Y-77305D01*
X100439Y-77243D01*
X100553Y-77129D01*
X100614Y-76980D01*
X100615Y-76819D01*
X100615Y-79295D01*
X100563Y-79170D01*
X100449Y-79056D01*
X100300Y-78995D01*
X100139Y-78994D01*
X99990Y-79056D01*
X99876Y-79170D01*
X99824Y-79295D01*
X99773Y-79170D01*
X99659Y-79056D01*
X99510Y-78995D01*
X99349Y-78994D01*
X99200Y-79056D01*
X99086Y-79170D01*
X99025Y-79319D01*
X99024Y-79480D01*
X99086Y-79629D01*
X99200Y-79743D01*
X99349Y-79804D01*
X99510Y-79805D01*
X99659Y-79743D01*
X99773Y-79629D01*
X99825Y-79504D01*
X99876Y-79629D01*
X99990Y-79743D01*
X100139Y-79804D01*
X100300Y-79805D01*
X100449Y-79743D01*
X100563Y-79629D01*
X100624Y-79480D01*
X100625Y-79319D01*
X100625Y-83770D01*
X100310Y-83770D01*
X100310Y-82412D01*
X100150Y-82026D01*
X99855Y-81730D01*
X99469Y-81570D01*
X99052Y-81569D01*
X98666Y-81729D01*
X98605Y-81790D01*
X98605Y-76829D01*
X98543Y-76680D01*
X98429Y-76566D01*
X98405Y-76556D01*
X98405Y-75319D01*
X98343Y-75170D01*
X98229Y-75056D01*
X98080Y-74995D01*
X97919Y-74994D01*
X97770Y-75056D01*
X97656Y-75170D01*
X97595Y-75319D01*
X97594Y-75480D01*
X97656Y-75629D01*
X97770Y-75743D01*
X97919Y-75804D01*
X98080Y-75805D01*
X98229Y-75743D01*
X98343Y-75629D01*
X98404Y-75480D01*
X98405Y-75319D01*
X98405Y-76556D01*
X98280Y-76505D01*
X98119Y-76504D01*
X97970Y-76566D01*
X97856Y-76680D01*
X97795Y-76829D01*
X97794Y-76990D01*
X97856Y-77139D01*
X97970Y-77253D01*
X98119Y-77314D01*
X98280Y-77315D01*
X98429Y-77253D01*
X98543Y-77139D01*
X98604Y-76990D01*
X98605Y-76829D01*
X98605Y-81790D01*
X98370Y-82024D01*
X98210Y-82410D01*
X98209Y-82827D01*
X98369Y-83214D01*
X98664Y-83509D01*
X99050Y-83669D01*
X99467Y-83670D01*
X99854Y-83510D01*
X100149Y-83215D01*
X100309Y-82829D01*
X100310Y-82412D01*
X100310Y-83770D01*
X98039Y-83770D01*
X98039Y-80074D01*
X98029Y-79818D01*
X97949Y-79625D01*
X97844Y-79586D01*
X97773Y-79656D01*
X97773Y-79515D01*
X97734Y-79410D01*
X97494Y-79320D01*
X97238Y-79330D01*
X97045Y-79410D01*
X97006Y-79515D01*
X97390Y-79899D01*
X97773Y-79515D01*
X97773Y-79656D01*
X97460Y-79970D01*
X97844Y-80353D01*
X97949Y-80314D01*
X98039Y-80074D01*
X98039Y-83770D01*
X98035Y-83770D01*
X98035Y-81842D01*
X97937Y-81605D01*
X97802Y-81469D01*
X97936Y-81335D01*
X98034Y-81098D01*
X98035Y-80842D01*
X97937Y-80605D01*
X97769Y-80437D01*
X97773Y-80424D01*
X97390Y-80040D01*
X97319Y-80111D01*
X97319Y-79970D01*
X96935Y-79586D01*
X96830Y-79625D01*
X96815Y-79665D01*
X96815Y-77839D01*
X96753Y-77690D01*
X96639Y-77576D01*
X96635Y-77574D01*
X96635Y-75269D01*
X96573Y-75120D01*
X96459Y-75006D01*
X96310Y-74945D01*
X96149Y-74944D01*
X96000Y-75006D01*
X95886Y-75120D01*
X95825Y-75269D01*
X95824Y-75430D01*
X95886Y-75579D01*
X96000Y-75693D01*
X96149Y-75754D01*
X96310Y-75755D01*
X96459Y-75693D01*
X96573Y-75579D01*
X96634Y-75430D01*
X96635Y-75269D01*
X96635Y-77574D01*
X96490Y-77515D01*
X96329Y-77514D01*
X96180Y-77576D01*
X96145Y-77612D01*
X96145Y-77279D01*
X96083Y-77130D01*
X95969Y-77016D01*
X95820Y-76955D01*
X95659Y-76954D01*
X95510Y-77016D01*
X95396Y-77130D01*
X95335Y-77279D01*
X95334Y-77440D01*
X95396Y-77589D01*
X95510Y-77703D01*
X95659Y-77764D01*
X95820Y-77765D01*
X95969Y-77703D01*
X96083Y-77589D01*
X96144Y-77440D01*
X96145Y-77279D01*
X96145Y-77612D01*
X96066Y-77690D01*
X96005Y-77839D01*
X96004Y-78000D01*
X96066Y-78149D01*
X96180Y-78263D01*
X96329Y-78324D01*
X96490Y-78325D01*
X96639Y-78263D01*
X96753Y-78149D01*
X96814Y-78000D01*
X96815Y-77839D01*
X96815Y-79665D01*
X96740Y-79865D01*
X96750Y-80121D01*
X96830Y-80314D01*
X96935Y-80353D01*
X97319Y-79970D01*
X97319Y-80111D01*
X97006Y-80424D01*
X97010Y-80437D01*
X96843Y-80604D01*
X96745Y-80841D01*
X96744Y-81097D01*
X96842Y-81334D01*
X96977Y-81470D01*
X96843Y-81604D01*
X96745Y-81841D01*
X96744Y-82097D01*
X96842Y-82334D01*
X97024Y-82516D01*
X97261Y-82614D01*
X97517Y-82615D01*
X97754Y-82517D01*
X97936Y-82335D01*
X98034Y-82098D01*
X98035Y-81842D01*
X98035Y-83770D01*
X96645Y-83770D01*
X96645Y-81886D01*
X96550Y-81656D01*
X96374Y-81480D01*
X96365Y-81476D01*
X96365Y-79159D01*
X96295Y-78992D01*
X96168Y-78864D01*
X96000Y-78795D01*
X95819Y-78794D01*
X95652Y-78864D01*
X95524Y-78991D01*
X95455Y-79159D01*
X95454Y-79340D01*
X95524Y-79507D01*
X95651Y-79635D01*
X95819Y-79704D01*
X96000Y-79705D01*
X96167Y-79635D01*
X96295Y-79508D01*
X96364Y-79340D01*
X96365Y-79159D01*
X96365Y-81476D01*
X96144Y-81385D01*
X95896Y-81384D01*
X95666Y-81479D01*
X95519Y-81626D01*
X95374Y-81480D01*
X95144Y-81385D01*
X95015Y-81384D01*
X95015Y-77299D01*
X94953Y-77150D01*
X94839Y-77036D01*
X94795Y-77018D01*
X94795Y-73889D01*
X94733Y-73740D01*
X94619Y-73626D01*
X94585Y-73612D01*
X94585Y-72069D01*
X94523Y-71920D01*
X94409Y-71806D01*
X94260Y-71745D01*
X94099Y-71744D01*
X93950Y-71806D01*
X93836Y-71920D01*
X93775Y-72069D01*
X93774Y-72230D01*
X93836Y-72379D01*
X93950Y-72493D01*
X94099Y-72554D01*
X94260Y-72555D01*
X94409Y-72493D01*
X94523Y-72379D01*
X94584Y-72230D01*
X94585Y-72069D01*
X94585Y-73612D01*
X94470Y-73565D01*
X94309Y-73564D01*
X94160Y-73626D01*
X94046Y-73740D01*
X93985Y-73889D01*
X93984Y-74050D01*
X94046Y-74199D01*
X94160Y-74313D01*
X94309Y-74374D01*
X94470Y-74375D01*
X94619Y-74313D01*
X94733Y-74199D01*
X94794Y-74050D01*
X94795Y-73889D01*
X94795Y-77018D01*
X94690Y-76975D01*
X94529Y-76974D01*
X94380Y-77036D01*
X94266Y-77150D01*
X94205Y-77299D01*
X94204Y-77460D01*
X94266Y-77609D01*
X94380Y-77723D01*
X94529Y-77784D01*
X94690Y-77785D01*
X94839Y-77723D01*
X94953Y-77609D01*
X95014Y-77460D01*
X95015Y-77299D01*
X95015Y-81384D01*
X94896Y-81384D01*
X94885Y-81389D01*
X94885Y-78319D01*
X94823Y-78170D01*
X94709Y-78056D01*
X94560Y-77995D01*
X94399Y-77994D01*
X94250Y-78056D01*
X94136Y-78170D01*
X94075Y-78319D01*
X94074Y-78480D01*
X94136Y-78629D01*
X94250Y-78743D01*
X94399Y-78804D01*
X94560Y-78805D01*
X94709Y-78743D01*
X94823Y-78629D01*
X94884Y-78480D01*
X94885Y-78319D01*
X94885Y-81389D01*
X94666Y-81479D01*
X94490Y-81655D01*
X94395Y-81885D01*
X94394Y-82133D01*
X94489Y-82363D01*
X94665Y-82539D01*
X94895Y-82634D01*
X95143Y-82635D01*
X95373Y-82540D01*
X95520Y-82393D01*
X95665Y-82539D01*
X95895Y-82634D01*
X96143Y-82635D01*
X96373Y-82540D01*
X96549Y-82364D01*
X96644Y-82134D01*
X96645Y-81886D01*
X96645Y-83770D01*
X94095Y-83770D01*
X94095Y-79309D01*
X94025Y-79142D01*
X93898Y-79014D01*
X93820Y-78982D01*
X93833Y-78969D01*
X93894Y-78820D01*
X93895Y-78659D01*
X93833Y-78510D01*
X93719Y-78396D01*
X93570Y-78335D01*
X93409Y-78334D01*
X93260Y-78396D01*
X93155Y-78502D01*
X93155Y-75629D01*
X93093Y-75480D01*
X92979Y-75366D01*
X92830Y-75305D01*
X92669Y-75304D01*
X92520Y-75366D01*
X92406Y-75480D01*
X92345Y-75629D01*
X92344Y-75790D01*
X92406Y-75939D01*
X92520Y-76053D01*
X92669Y-76114D01*
X92830Y-76115D01*
X92979Y-76053D01*
X93093Y-75939D01*
X93154Y-75790D01*
X93155Y-75629D01*
X93155Y-78502D01*
X93146Y-78510D01*
X93085Y-78659D01*
X93084Y-78820D01*
X93146Y-78969D01*
X93260Y-79083D01*
X93297Y-79098D01*
X93254Y-79141D01*
X93185Y-79309D01*
X93184Y-79490D01*
X93254Y-79657D01*
X93381Y-79785D01*
X93549Y-79854D01*
X93730Y-79855D01*
X93897Y-79785D01*
X94025Y-79658D01*
X94094Y-79490D01*
X94095Y-79309D01*
X94095Y-83770D01*
X92664Y-83770D01*
X92664Y-81491D01*
X92660Y-81398D01*
X92660Y-80301D01*
X92576Y-80098D01*
X92421Y-79944D01*
X92219Y-79860D01*
X92001Y-79859D01*
X91798Y-79943D01*
X91644Y-80098D01*
X91610Y-80179D01*
X91576Y-80098D01*
X91421Y-79944D01*
X91379Y-79926D01*
X91459Y-79893D01*
X91573Y-79779D01*
X91634Y-79630D01*
X91635Y-79469D01*
X91573Y-79320D01*
X91459Y-79206D01*
X91455Y-79204D01*
X91455Y-75709D01*
X91385Y-75542D01*
X91258Y-75414D01*
X91090Y-75345D01*
X90909Y-75344D01*
X90742Y-75414D01*
X90614Y-75541D01*
X90545Y-75709D01*
X90544Y-75890D01*
X90614Y-76057D01*
X90741Y-76185D01*
X90909Y-76254D01*
X91090Y-76255D01*
X91257Y-76185D01*
X91385Y-76058D01*
X91454Y-75890D01*
X91455Y-75709D01*
X91455Y-79204D01*
X91310Y-79145D01*
X91149Y-79144D01*
X91000Y-79206D01*
X90960Y-79247D01*
X90960Y-78285D01*
X90871Y-78071D01*
X90708Y-77908D01*
X90688Y-77900D01*
X90708Y-77891D01*
X90871Y-77728D01*
X90959Y-77515D01*
X90960Y-77285D01*
X90871Y-77071D01*
X90708Y-76908D01*
X90495Y-76820D01*
X90265Y-76819D01*
X90051Y-76908D01*
X89888Y-77071D01*
X89800Y-77284D01*
X89799Y-77514D01*
X89888Y-77728D01*
X90051Y-77891D01*
X90071Y-77899D01*
X90051Y-77908D01*
X89888Y-78071D01*
X89800Y-78284D01*
X89799Y-78514D01*
X89802Y-78520D01*
X89690Y-78566D01*
X89680Y-78577D01*
X89680Y-77915D01*
X89599Y-77720D01*
X89450Y-77570D01*
X89395Y-77547D01*
X89395Y-72089D01*
X89325Y-71922D01*
X89315Y-71911D01*
X89315Y-71185D01*
X89258Y-71047D01*
X89152Y-70942D01*
X89014Y-70885D01*
X88865Y-70884D01*
X88727Y-70941D01*
X88622Y-71047D01*
X88565Y-71185D01*
X88564Y-71334D01*
X88621Y-71472D01*
X88727Y-71577D01*
X88865Y-71634D01*
X89014Y-71635D01*
X89152Y-71578D01*
X89257Y-71472D01*
X89314Y-71334D01*
X89315Y-71185D01*
X89315Y-71911D01*
X89198Y-71794D01*
X89030Y-71725D01*
X88849Y-71724D01*
X88682Y-71794D01*
X88554Y-71921D01*
X88485Y-72089D01*
X88484Y-72270D01*
X88554Y-72437D01*
X88681Y-72565D01*
X88849Y-72634D01*
X89030Y-72635D01*
X89197Y-72565D01*
X89325Y-72438D01*
X89394Y-72270D01*
X89395Y-72089D01*
X89395Y-77547D01*
X89255Y-77490D01*
X89050Y-77489D01*
X89050Y-76415D01*
X88969Y-76220D01*
X88820Y-76070D01*
X88625Y-75990D01*
X88415Y-75989D01*
X88220Y-76070D01*
X88070Y-76219D01*
X87990Y-76414D01*
X87989Y-76624D01*
X88070Y-76819D01*
X88219Y-76969D01*
X88414Y-77049D01*
X88624Y-77050D01*
X88819Y-76969D01*
X88969Y-76820D01*
X89049Y-76625D01*
X89050Y-76415D01*
X89050Y-77489D01*
X89045Y-77489D01*
X88850Y-77570D01*
X88700Y-77719D01*
X88620Y-77914D01*
X88619Y-78124D01*
X88700Y-78319D01*
X88849Y-78469D01*
X89044Y-78549D01*
X89254Y-78550D01*
X89449Y-78469D01*
X89599Y-78320D01*
X89679Y-78125D01*
X89680Y-77915D01*
X89680Y-78577D01*
X89576Y-78680D01*
X89515Y-78829D01*
X89514Y-78990D01*
X89576Y-79139D01*
X89690Y-79253D01*
X89839Y-79314D01*
X90000Y-79315D01*
X90149Y-79253D01*
X90263Y-79139D01*
X90324Y-78990D01*
X90324Y-78979D01*
X90494Y-78980D01*
X90708Y-78891D01*
X90871Y-78728D01*
X90959Y-78515D01*
X90960Y-78285D01*
X90960Y-79247D01*
X90886Y-79320D01*
X90825Y-79469D01*
X90824Y-79630D01*
X90886Y-79779D01*
X90977Y-79869D01*
X90798Y-79943D01*
X90644Y-80098D01*
X90610Y-80179D01*
X90576Y-80098D01*
X90421Y-79944D01*
X90219Y-79860D01*
X90001Y-79859D01*
X89798Y-79943D01*
X89644Y-80098D01*
X89560Y-80300D01*
X89559Y-80518D01*
X89643Y-80721D01*
X89798Y-80875D01*
X89879Y-80909D01*
X89798Y-80943D01*
X89644Y-81098D01*
X89560Y-81300D01*
X89559Y-81518D01*
X89643Y-81721D01*
X89798Y-81875D01*
X90000Y-81959D01*
X90218Y-81960D01*
X90421Y-81876D01*
X90575Y-81721D01*
X90609Y-81640D01*
X90643Y-81721D01*
X90798Y-81875D01*
X91000Y-81959D01*
X91218Y-81960D01*
X91421Y-81876D01*
X91575Y-81721D01*
X91607Y-81646D01*
X91628Y-81697D01*
X91724Y-81725D01*
X92039Y-81410D01*
X91724Y-81094D01*
X91628Y-81122D01*
X91609Y-81177D01*
X91576Y-81098D01*
X91421Y-80944D01*
X91340Y-80910D01*
X91421Y-80876D01*
X91575Y-80721D01*
X91609Y-80640D01*
X91643Y-80721D01*
X91798Y-80875D01*
X91873Y-80907D01*
X91822Y-80928D01*
X91794Y-81024D01*
X92110Y-81339D01*
X92425Y-81024D01*
X92397Y-80928D01*
X92342Y-80909D01*
X92421Y-80876D01*
X92575Y-80721D01*
X92659Y-80519D01*
X92660Y-80301D01*
X92660Y-81398D01*
X92653Y-81273D01*
X92591Y-81122D01*
X92495Y-81094D01*
X92180Y-81410D01*
X92495Y-81725D01*
X92591Y-81697D01*
X92664Y-81491D01*
X92664Y-83770D01*
X92425Y-83770D01*
X92425Y-81795D01*
X92110Y-81480D01*
X91794Y-81795D01*
X91822Y-81891D01*
X92028Y-81964D01*
X92246Y-81953D01*
X92397Y-81891D01*
X92425Y-81795D01*
X92425Y-83770D01*
X88363Y-83770D01*
X88465Y-83668D01*
X88534Y-83500D01*
X88535Y-83319D01*
X88465Y-83152D01*
X88338Y-83024D01*
X88182Y-82959D01*
X88337Y-82895D01*
X88465Y-82768D01*
X88534Y-82600D01*
X88535Y-82419D01*
X88465Y-82252D01*
X88338Y-82124D01*
X88177Y-82057D01*
X88327Y-81995D01*
X88455Y-81868D01*
X88524Y-81700D01*
X88525Y-81519D01*
X88476Y-81402D01*
X88579Y-81359D01*
X88729Y-81210D01*
X88809Y-81015D01*
X88810Y-80805D01*
X88729Y-80610D01*
X88580Y-80460D01*
X88385Y-80380D01*
X88175Y-80379D01*
X87980Y-80460D01*
X87840Y-80600D01*
X87840Y-71755D01*
X87759Y-71560D01*
X87610Y-71410D01*
X87415Y-71330D01*
X87205Y-71329D01*
X87080Y-71381D01*
X87080Y-66995D01*
X87075Y-66982D01*
X87075Y-66035D01*
X87018Y-65897D01*
X86912Y-65792D01*
X86774Y-65735D01*
X86625Y-65734D01*
X86487Y-65791D01*
X86382Y-65897D01*
X86325Y-66035D01*
X86324Y-66184D01*
X86381Y-66322D01*
X86487Y-66427D01*
X86625Y-66484D01*
X86774Y-66485D01*
X86912Y-66428D01*
X87017Y-66322D01*
X87074Y-66184D01*
X87075Y-66035D01*
X87075Y-66982D01*
X86999Y-66800D01*
X86850Y-66650D01*
X86655Y-66570D01*
X86445Y-66569D01*
X86250Y-66650D01*
X86100Y-66799D01*
X86020Y-66994D01*
X86019Y-67204D01*
X86100Y-67399D01*
X86249Y-67549D01*
X86444Y-67629D01*
X86654Y-67630D01*
X86849Y-67549D01*
X86999Y-67400D01*
X87079Y-67205D01*
X87080Y-66995D01*
X87080Y-71381D01*
X87010Y-71410D01*
X86860Y-71559D01*
X86780Y-71754D01*
X86779Y-71964D01*
X86860Y-72159D01*
X87009Y-72309D01*
X87204Y-72389D01*
X87414Y-72390D01*
X87609Y-72309D01*
X87759Y-72160D01*
X87839Y-71965D01*
X87840Y-71755D01*
X87840Y-80600D01*
X87830Y-80609D01*
X87750Y-80804D01*
X87749Y-81014D01*
X87830Y-81209D01*
X87835Y-81214D01*
X87812Y-81224D01*
X87684Y-81351D01*
X87615Y-81519D01*
X87614Y-81700D01*
X87684Y-81867D01*
X87811Y-81995D01*
X87972Y-82062D01*
X87822Y-82124D01*
X87694Y-82251D01*
X87625Y-82419D01*
X87624Y-82600D01*
X87694Y-82767D01*
X87821Y-82895D01*
X87977Y-82960D01*
X87822Y-83024D01*
X87694Y-83151D01*
X87625Y-83319D01*
X87624Y-83500D01*
X87694Y-83667D01*
X87796Y-83770D01*
X87190Y-83770D01*
X87190Y-76415D01*
X87109Y-76220D01*
X86960Y-76070D01*
X86765Y-75990D01*
X86555Y-75989D01*
X86395Y-76056D01*
X86395Y-74699D01*
X86333Y-74550D01*
X86219Y-74436D01*
X86070Y-74375D01*
X85909Y-74374D01*
X85760Y-74436D01*
X85646Y-74550D01*
X85585Y-74699D01*
X85584Y-74860D01*
X85646Y-75009D01*
X85760Y-75123D01*
X85909Y-75184D01*
X86070Y-75185D01*
X86219Y-75123D01*
X86333Y-75009D01*
X86394Y-74860D01*
X86395Y-74699D01*
X86395Y-76056D01*
X86360Y-76070D01*
X86210Y-76219D01*
X86130Y-76414D01*
X86129Y-76624D01*
X86210Y-76819D01*
X86359Y-76969D01*
X86554Y-77049D01*
X86764Y-77050D01*
X86959Y-76969D01*
X87109Y-76820D01*
X87189Y-76625D01*
X87190Y-76415D01*
X87190Y-83770D01*
X84965Y-83770D01*
X84965Y-75899D01*
X84903Y-75750D01*
X84855Y-75702D01*
X84855Y-75095D01*
X84798Y-74957D01*
X84692Y-74852D01*
X84680Y-74847D01*
X84680Y-71235D01*
X84680Y-69235D01*
X84599Y-69040D01*
X84450Y-68890D01*
X84255Y-68810D01*
X84045Y-68809D01*
X83850Y-68890D01*
X83700Y-69039D01*
X83620Y-69234D01*
X83619Y-69444D01*
X83700Y-69639D01*
X83849Y-69789D01*
X84044Y-69869D01*
X84254Y-69870D01*
X84449Y-69789D01*
X84599Y-69640D01*
X84679Y-69445D01*
X84680Y-69235D01*
X84680Y-71235D01*
X84599Y-71040D01*
X84450Y-70890D01*
X84255Y-70810D01*
X84045Y-70809D01*
X83850Y-70890D01*
X83700Y-71039D01*
X83620Y-71234D01*
X83619Y-71444D01*
X83700Y-71639D01*
X83849Y-71789D01*
X84044Y-71869D01*
X84254Y-71870D01*
X84449Y-71789D01*
X84599Y-71640D01*
X84679Y-71445D01*
X84680Y-71235D01*
X84680Y-74847D01*
X84554Y-74795D01*
X84405Y-74794D01*
X84267Y-74851D01*
X84162Y-74957D01*
X84105Y-75095D01*
X84104Y-75244D01*
X84161Y-75382D01*
X84267Y-75487D01*
X84405Y-75544D01*
X84554Y-75545D01*
X84692Y-75488D01*
X84797Y-75382D01*
X84854Y-75244D01*
X84855Y-75095D01*
X84855Y-75702D01*
X84789Y-75636D01*
X84640Y-75575D01*
X84479Y-75574D01*
X84330Y-75636D01*
X84216Y-75750D01*
X84155Y-75899D01*
X84155Y-75899D01*
X84035Y-75850D01*
X83825Y-75849D01*
X83630Y-75930D01*
X83480Y-76079D01*
X83425Y-76213D01*
X83425Y-71439D01*
X83355Y-71272D01*
X83228Y-71144D01*
X83060Y-71075D01*
X82879Y-71074D01*
X82825Y-71097D01*
X82825Y-69469D01*
X82755Y-69302D01*
X82628Y-69174D01*
X82460Y-69105D01*
X82279Y-69104D01*
X82112Y-69174D01*
X81984Y-69301D01*
X81915Y-69469D01*
X81914Y-69650D01*
X81984Y-69817D01*
X82111Y-69945D01*
X82279Y-70014D01*
X82460Y-70015D01*
X82627Y-69945D01*
X82755Y-69818D01*
X82824Y-69650D01*
X82825Y-69469D01*
X82825Y-71097D01*
X82712Y-71144D01*
X82584Y-71271D01*
X82515Y-71439D01*
X82514Y-71620D01*
X82584Y-71787D01*
X82711Y-71915D01*
X82879Y-71984D01*
X83060Y-71985D01*
X83227Y-71915D01*
X83355Y-71788D01*
X83424Y-71620D01*
X83425Y-71439D01*
X83425Y-76213D01*
X83400Y-76274D01*
X83399Y-76484D01*
X83480Y-76679D01*
X83629Y-76829D01*
X83824Y-76909D01*
X84034Y-76910D01*
X84229Y-76829D01*
X84379Y-76680D01*
X84459Y-76485D01*
X84460Y-76377D01*
X84479Y-76384D01*
X84640Y-76385D01*
X84789Y-76323D01*
X84903Y-76209D01*
X84964Y-76060D01*
X84965Y-75899D01*
X84965Y-83770D01*
X82535Y-83770D01*
X82535Y-82969D01*
X82465Y-82802D01*
X82338Y-82674D01*
X82330Y-82671D01*
X82330Y-76405D01*
X82249Y-76210D01*
X82100Y-76060D01*
X82015Y-76025D01*
X82015Y-73089D01*
X81953Y-72940D01*
X81845Y-72832D01*
X81845Y-71399D01*
X81783Y-71250D01*
X81669Y-71136D01*
X81520Y-71075D01*
X81359Y-71074D01*
X81210Y-71136D01*
X81096Y-71250D01*
X81035Y-71399D01*
X81034Y-71560D01*
X81096Y-71709D01*
X81210Y-71823D01*
X81359Y-71884D01*
X81520Y-71885D01*
X81669Y-71823D01*
X81783Y-71709D01*
X81844Y-71560D01*
X81845Y-71399D01*
X81845Y-72832D01*
X81839Y-72826D01*
X81690Y-72765D01*
X81529Y-72764D01*
X81380Y-72826D01*
X81266Y-72940D01*
X81205Y-73089D01*
X81204Y-73250D01*
X81266Y-73399D01*
X81380Y-73513D01*
X81529Y-73574D01*
X81690Y-73575D01*
X81839Y-73513D01*
X81953Y-73399D01*
X82014Y-73250D01*
X82015Y-73089D01*
X82015Y-76025D01*
X81905Y-75980D01*
X81695Y-75979D01*
X81500Y-76060D01*
X81350Y-76209D01*
X81270Y-76404D01*
X81269Y-76614D01*
X81350Y-76809D01*
X81499Y-76959D01*
X81694Y-77039D01*
X81904Y-77040D01*
X82099Y-76959D01*
X82249Y-76810D01*
X82329Y-76615D01*
X82330Y-76405D01*
X82330Y-82671D01*
X82280Y-82650D01*
X82280Y-79955D01*
X82199Y-79760D01*
X82050Y-79610D01*
X81855Y-79530D01*
X81680Y-79529D01*
X81680Y-77465D01*
X81599Y-77270D01*
X81450Y-77120D01*
X81255Y-77040D01*
X81045Y-77039D01*
X80850Y-77120D01*
X80700Y-77269D01*
X80695Y-77283D01*
X80695Y-76859D01*
X80625Y-76692D01*
X80498Y-76564D01*
X80330Y-76495D01*
X80310Y-76495D01*
X80310Y-65412D01*
X80150Y-65026D01*
X79855Y-64730D01*
X79469Y-64570D01*
X79052Y-64569D01*
X78666Y-64729D01*
X78370Y-65024D01*
X78210Y-65410D01*
X78209Y-65827D01*
X78369Y-66214D01*
X78664Y-66509D01*
X79050Y-66669D01*
X79467Y-66670D01*
X79854Y-66510D01*
X80149Y-66215D01*
X80309Y-65829D01*
X80310Y-65412D01*
X80310Y-76495D01*
X80305Y-76495D01*
X80305Y-70789D01*
X80243Y-70640D01*
X80129Y-70526D01*
X79980Y-70465D01*
X79915Y-70465D01*
X79915Y-69219D01*
X79853Y-69070D01*
X79739Y-68956D01*
X79625Y-68909D01*
X79625Y-68319D01*
X79563Y-68170D01*
X79449Y-68056D01*
X79300Y-67995D01*
X79139Y-67994D01*
X78990Y-68056D01*
X78876Y-68170D01*
X78815Y-68319D01*
X78814Y-68480D01*
X78876Y-68629D01*
X78990Y-68743D01*
X79139Y-68804D01*
X79300Y-68805D01*
X79449Y-68743D01*
X79563Y-68629D01*
X79624Y-68480D01*
X79625Y-68319D01*
X79625Y-68909D01*
X79590Y-68895D01*
X79429Y-68894D01*
X79280Y-68956D01*
X79166Y-69070D01*
X79105Y-69219D01*
X79104Y-69380D01*
X79166Y-69529D01*
X79280Y-69643D01*
X79429Y-69704D01*
X79590Y-69705D01*
X79739Y-69643D01*
X79853Y-69529D01*
X79914Y-69380D01*
X79915Y-69219D01*
X79915Y-70465D01*
X79819Y-70464D01*
X79670Y-70526D01*
X79556Y-70640D01*
X79495Y-70789D01*
X79495Y-70789D01*
X79433Y-70640D01*
X79319Y-70526D01*
X79170Y-70465D01*
X79009Y-70464D01*
X78860Y-70526D01*
X78775Y-70612D01*
X78775Y-68709D01*
X78713Y-68560D01*
X78599Y-68446D01*
X78450Y-68385D01*
X78289Y-68384D01*
X78140Y-68446D01*
X78026Y-68560D01*
X77965Y-68709D01*
X77964Y-68870D01*
X78026Y-69019D01*
X78140Y-69133D01*
X78289Y-69194D01*
X78450Y-69195D01*
X78599Y-69133D01*
X78713Y-69019D01*
X78774Y-68870D01*
X78775Y-68709D01*
X78775Y-70612D01*
X78746Y-70640D01*
X78685Y-70789D01*
X78684Y-70950D01*
X78746Y-71099D01*
X78860Y-71213D01*
X79009Y-71274D01*
X79170Y-71275D01*
X79319Y-71213D01*
X79433Y-71099D01*
X79494Y-70950D01*
X79494Y-70950D01*
X79548Y-71079D01*
X79436Y-71190D01*
X79375Y-71339D01*
X79374Y-71500D01*
X79436Y-71649D01*
X79550Y-71763D01*
X79699Y-71824D01*
X79860Y-71825D01*
X80009Y-71763D01*
X80123Y-71649D01*
X80184Y-71500D01*
X80185Y-71339D01*
X80131Y-71210D01*
X80243Y-71099D01*
X80304Y-70950D01*
X80305Y-70789D01*
X80305Y-76495D01*
X80185Y-76494D01*
X80185Y-72349D01*
X80123Y-72200D01*
X80009Y-72086D01*
X79860Y-72025D01*
X79699Y-72024D01*
X79550Y-72086D01*
X79436Y-72200D01*
X79375Y-72349D01*
X79374Y-72510D01*
X79436Y-72659D01*
X79550Y-72773D01*
X79699Y-72834D01*
X79860Y-72835D01*
X80009Y-72773D01*
X80123Y-72659D01*
X80184Y-72510D01*
X80185Y-72349D01*
X80185Y-76494D01*
X80149Y-76494D01*
X79985Y-76563D01*
X79985Y-73179D01*
X79923Y-73030D01*
X79809Y-72916D01*
X79660Y-72855D01*
X79499Y-72854D01*
X79350Y-72916D01*
X79236Y-73030D01*
X79175Y-73179D01*
X79174Y-73340D01*
X79236Y-73489D01*
X79350Y-73603D01*
X79499Y-73664D01*
X79660Y-73665D01*
X79809Y-73603D01*
X79923Y-73489D01*
X79984Y-73340D01*
X79985Y-73179D01*
X79985Y-76563D01*
X79982Y-76564D01*
X79854Y-76691D01*
X79785Y-76859D01*
X79784Y-77040D01*
X79854Y-77207D01*
X79981Y-77335D01*
X80149Y-77404D01*
X80330Y-77405D01*
X80497Y-77335D01*
X80625Y-77208D01*
X80694Y-77040D01*
X80695Y-76859D01*
X80695Y-77283D01*
X80620Y-77464D01*
X80619Y-77674D01*
X80700Y-77869D01*
X80849Y-78019D01*
X81044Y-78099D01*
X81254Y-78100D01*
X81449Y-78019D01*
X81599Y-77870D01*
X81679Y-77675D01*
X81680Y-77465D01*
X81680Y-79529D01*
X81645Y-79529D01*
X81450Y-79610D01*
X81300Y-79759D01*
X81220Y-79954D01*
X81219Y-80164D01*
X81300Y-80359D01*
X81449Y-80509D01*
X81644Y-80589D01*
X81854Y-80590D01*
X82049Y-80509D01*
X82199Y-80360D01*
X82279Y-80165D01*
X82280Y-79955D01*
X82280Y-82650D01*
X82170Y-82605D01*
X81989Y-82604D01*
X81822Y-82674D01*
X81694Y-82801D01*
X81625Y-82969D01*
X81624Y-83150D01*
X81694Y-83317D01*
X81821Y-83445D01*
X81989Y-83514D01*
X82170Y-83515D01*
X82337Y-83445D01*
X82465Y-83318D01*
X82534Y-83150D01*
X82535Y-82969D01*
X82535Y-83770D01*
X81520Y-83770D01*
X81520Y-80911D01*
X81406Y-80635D01*
X81195Y-80424D01*
X80919Y-80310D01*
X80621Y-80309D01*
X80345Y-80423D01*
X80134Y-80634D01*
X80080Y-80765D01*
X80026Y-80635D01*
X79815Y-80424D01*
X79539Y-80310D01*
X79241Y-80309D01*
X78965Y-80423D01*
X78775Y-80614D01*
X78775Y-72899D01*
X78713Y-72750D01*
X78599Y-72636D01*
X78450Y-72575D01*
X78289Y-72574D01*
X78140Y-72636D01*
X78026Y-72750D01*
X77965Y-72899D01*
X77964Y-73060D01*
X78026Y-73209D01*
X78140Y-73323D01*
X78289Y-73384D01*
X78450Y-73385D01*
X78599Y-73323D01*
X78713Y-73209D01*
X78774Y-73060D01*
X78775Y-72899D01*
X78775Y-80614D01*
X78754Y-80634D01*
X78640Y-80910D01*
X78639Y-81208D01*
X78753Y-81484D01*
X78964Y-81695D01*
X79240Y-81809D01*
X79538Y-81810D01*
X79814Y-81696D01*
X80025Y-81485D01*
X80079Y-81354D01*
X80133Y-81484D01*
X80344Y-81695D01*
X80620Y-81809D01*
X80918Y-81810D01*
X81194Y-81696D01*
X81405Y-81485D01*
X81519Y-81209D01*
X81520Y-80911D01*
X81520Y-83770D01*
X72493Y-83770D01*
X72493Y-77197D01*
X72493Y-74520D01*
X72493Y-69477D01*
X72493Y-66800D01*
X72378Y-66520D01*
X72164Y-66305D01*
X71884Y-66189D01*
X71581Y-66189D01*
X71301Y-66305D01*
X71086Y-66519D01*
X71023Y-66671D01*
X70960Y-66520D01*
X70746Y-66305D01*
X70466Y-66189D01*
X70163Y-66189D01*
X69883Y-66305D01*
X69743Y-66444D01*
X69605Y-66305D01*
X69325Y-66189D01*
X69022Y-66189D01*
X68742Y-66305D01*
X68527Y-66519D01*
X68411Y-66799D01*
X68411Y-67102D01*
X68526Y-67382D01*
X68740Y-67596D01*
X69020Y-67713D01*
X69323Y-67713D01*
X69603Y-67597D01*
X69743Y-67457D01*
X69882Y-67596D01*
X70162Y-67713D01*
X70465Y-67713D01*
X70745Y-67597D01*
X70960Y-67383D01*
X71023Y-67231D01*
X71085Y-67382D01*
X71299Y-67596D01*
X71579Y-67713D01*
X71882Y-67713D01*
X72163Y-67597D01*
X72377Y-67383D01*
X72493Y-67103D01*
X72493Y-66800D01*
X72493Y-69477D01*
X72378Y-69197D01*
X72164Y-68983D01*
X71884Y-68866D01*
X71581Y-68866D01*
X71301Y-68982D01*
X71086Y-69196D01*
X71023Y-69348D01*
X70960Y-69197D01*
X70746Y-68983D01*
X70466Y-68866D01*
X70163Y-68866D01*
X69883Y-68982D01*
X69743Y-69122D01*
X69605Y-68983D01*
X69325Y-68866D01*
X69022Y-68866D01*
X68742Y-68982D01*
X68527Y-69196D01*
X68411Y-69476D01*
X68411Y-69779D01*
X68526Y-70059D01*
X68740Y-70274D01*
X69020Y-70390D01*
X69323Y-70390D01*
X69603Y-70274D01*
X69743Y-70135D01*
X69882Y-70274D01*
X70162Y-70390D01*
X70465Y-70390D01*
X70745Y-70274D01*
X70960Y-70060D01*
X71023Y-69908D01*
X71085Y-70059D01*
X71299Y-70274D01*
X71579Y-70390D01*
X71882Y-70390D01*
X72163Y-70274D01*
X72377Y-70060D01*
X72493Y-69780D01*
X72493Y-69477D01*
X72493Y-74520D01*
X72378Y-74240D01*
X72164Y-74025D01*
X71884Y-73909D01*
X71581Y-73909D01*
X71301Y-74025D01*
X71086Y-74239D01*
X71023Y-74391D01*
X70960Y-74240D01*
X70746Y-74025D01*
X70466Y-73909D01*
X70163Y-73909D01*
X69883Y-74025D01*
X69743Y-74164D01*
X69605Y-74025D01*
X69325Y-73909D01*
X69022Y-73909D01*
X68742Y-74025D01*
X68527Y-74239D01*
X68411Y-74519D01*
X68411Y-74822D01*
X68526Y-75102D01*
X68740Y-75316D01*
X69020Y-75433D01*
X69323Y-75433D01*
X69603Y-75317D01*
X69743Y-75177D01*
X69882Y-75316D01*
X70162Y-75433D01*
X70465Y-75433D01*
X70745Y-75317D01*
X70960Y-75103D01*
X71023Y-74951D01*
X71085Y-75102D01*
X71299Y-75316D01*
X71579Y-75433D01*
X71882Y-75433D01*
X72163Y-75317D01*
X72377Y-75103D01*
X72493Y-74823D01*
X72493Y-74520D01*
X72493Y-77197D01*
X72378Y-76917D01*
X72164Y-76703D01*
X71884Y-76586D01*
X71581Y-76586D01*
X71301Y-76702D01*
X71086Y-76916D01*
X71023Y-77068D01*
X70960Y-76917D01*
X70746Y-76703D01*
X70466Y-76586D01*
X70163Y-76586D01*
X69883Y-76702D01*
X69743Y-76842D01*
X69605Y-76703D01*
X69325Y-76586D01*
X69022Y-76586D01*
X68742Y-76702D01*
X68527Y-76916D01*
X68411Y-77196D01*
X68411Y-77499D01*
X68526Y-77779D01*
X68740Y-77994D01*
X69020Y-78110D01*
X69323Y-78110D01*
X69603Y-77994D01*
X69743Y-77855D01*
X69882Y-77994D01*
X70162Y-78110D01*
X70465Y-78110D01*
X70745Y-77994D01*
X70960Y-77780D01*
X71023Y-77628D01*
X71085Y-77779D01*
X71299Y-77994D01*
X71579Y-78110D01*
X71882Y-78110D01*
X72163Y-77994D01*
X72377Y-77780D01*
X72493Y-77500D01*
X72493Y-77197D01*
X72493Y-83770D01*
X69810Y-83770D01*
X69810Y-82412D01*
X69650Y-82026D01*
X69355Y-81730D01*
X68969Y-81570D01*
X68552Y-81569D01*
X68166Y-81729D01*
X67870Y-82024D01*
X67710Y-82410D01*
X67709Y-82827D01*
X67869Y-83214D01*
X68164Y-83509D01*
X68550Y-83669D01*
X68967Y-83670D01*
X69354Y-83510D01*
X69649Y-83215D01*
X69809Y-82829D01*
X69810Y-82412D01*
X69810Y-83770D01*
X67610Y-83770D01*
X67610Y-64470D01*
X106910Y-64470D01*
X106910Y-83770D01*
X106910Y-83770D01*
G37*
G54D25*
X106910Y-83770D02*
X106810Y-83770D01*
X106810Y-65412D01*
X106650Y-65026D01*
X106355Y-64730D01*
X105969Y-64570D01*
X105552Y-64569D01*
X105166Y-64729D01*
X104870Y-65024D01*
X104710Y-65410D01*
X104709Y-65827D01*
X104869Y-66214D01*
X105164Y-66509D01*
X105550Y-66669D01*
X105967Y-66670D01*
X106354Y-66510D01*
X106649Y-66215D01*
X106809Y-65829D01*
X106810Y-65412D01*
X106810Y-83770D01*
X105350Y-83770D01*
X105350Y-75535D01*
X105269Y-75340D01*
X105120Y-75190D01*
X104925Y-75110D01*
X104715Y-75109D01*
X104670Y-75128D01*
X104670Y-72252D01*
X104449Y-71719D01*
X104042Y-71311D01*
X103509Y-71090D01*
X102932Y-71089D01*
X102399Y-71310D01*
X101991Y-71717D01*
X101770Y-72250D01*
X101769Y-72827D01*
X101990Y-73360D01*
X102397Y-73768D01*
X102930Y-73989D01*
X103507Y-73990D01*
X104040Y-73769D01*
X104448Y-73362D01*
X104669Y-72829D01*
X104670Y-72252D01*
X104670Y-75128D01*
X104520Y-75190D01*
X104370Y-75339D01*
X104318Y-75466D01*
X104145Y-75293D01*
X103908Y-75195D01*
X103652Y-75194D01*
X103415Y-75292D01*
X103304Y-75402D01*
X103305Y-75172D01*
X103207Y-74935D01*
X103025Y-74753D01*
X102788Y-74655D01*
X102532Y-74654D01*
X102295Y-74752D01*
X102113Y-74934D01*
X102015Y-75171D01*
X102014Y-75427D01*
X102112Y-75664D01*
X102287Y-75840D01*
X102113Y-76014D01*
X102015Y-76251D01*
X102014Y-76507D01*
X102112Y-76744D01*
X102287Y-76920D01*
X102113Y-77094D01*
X102015Y-77331D01*
X102014Y-77587D01*
X102112Y-77824D01*
X102287Y-78000D01*
X102113Y-78174D01*
X102015Y-78411D01*
X102014Y-78667D01*
X102112Y-78904D01*
X102192Y-78984D01*
X102123Y-79012D01*
X102053Y-79083D01*
X102015Y-79175D01*
X102014Y-79274D01*
X102014Y-80064D01*
X102052Y-80156D01*
X102123Y-80226D01*
X102215Y-80264D01*
X102314Y-80265D01*
X103104Y-80265D01*
X103196Y-80227D01*
X103266Y-80156D01*
X103304Y-80064D01*
X103305Y-79965D01*
X103305Y-79517D01*
X103414Y-79626D01*
X103651Y-79724D01*
X103907Y-79725D01*
X104144Y-79627D01*
X104326Y-79445D01*
X104424Y-79208D01*
X104425Y-78952D01*
X104327Y-78715D01*
X104152Y-78539D01*
X104326Y-78365D01*
X104424Y-78128D01*
X104425Y-77872D01*
X104327Y-77635D01*
X104152Y-77459D01*
X104326Y-77285D01*
X104424Y-77048D01*
X104425Y-76792D01*
X104327Y-76555D01*
X104152Y-76379D01*
X104326Y-76205D01*
X104417Y-75986D01*
X104519Y-76089D01*
X104714Y-76169D01*
X104924Y-76170D01*
X105119Y-76089D01*
X105269Y-75940D01*
X105349Y-75745D01*
X105350Y-75535D01*
X105350Y-83770D01*
X103652Y-83770D01*
X104040Y-83609D01*
X104448Y-83202D01*
X104669Y-82669D01*
X104670Y-82092D01*
X104449Y-81559D01*
X104042Y-81151D01*
X103509Y-80930D01*
X102932Y-80929D01*
X102399Y-81150D01*
X101991Y-81557D01*
X101775Y-82078D01*
X101775Y-78819D01*
X101765Y-78795D01*
X101765Y-77319D01*
X101703Y-77170D01*
X101589Y-77056D01*
X101440Y-76995D01*
X101279Y-76994D01*
X101130Y-77056D01*
X101016Y-77170D01*
X100955Y-77319D01*
X100954Y-77480D01*
X101016Y-77629D01*
X101130Y-77743D01*
X101279Y-77804D01*
X101440Y-77805D01*
X101589Y-77743D01*
X101703Y-77629D01*
X101764Y-77480D01*
X101765Y-77319D01*
X101765Y-78795D01*
X101713Y-78670D01*
X101599Y-78556D01*
X101450Y-78495D01*
X101289Y-78494D01*
X101140Y-78556D01*
X101026Y-78670D01*
X100965Y-78819D01*
X100964Y-78980D01*
X101026Y-79129D01*
X101140Y-79243D01*
X101289Y-79304D01*
X101450Y-79305D01*
X101599Y-79243D01*
X101713Y-79129D01*
X101774Y-78980D01*
X101775Y-78819D01*
X101775Y-82078D01*
X101770Y-82090D01*
X101769Y-82667D01*
X101990Y-83200D01*
X102397Y-83608D01*
X102786Y-83770D01*
X100735Y-83770D01*
X100735Y-71028D01*
X100649Y-70820D01*
X100569Y-70739D01*
X100648Y-70660D01*
X100734Y-70452D01*
X100735Y-70228D01*
X100649Y-70020D01*
X100490Y-69861D01*
X100282Y-69775D01*
X100058Y-69774D01*
X99850Y-69860D01*
X99775Y-69935D01*
X99700Y-69861D01*
X99492Y-69775D01*
X99268Y-69774D01*
X99060Y-69860D01*
X98985Y-69935D01*
X98910Y-69861D01*
X98702Y-69775D01*
X98478Y-69774D01*
X98270Y-69860D01*
X98200Y-69930D01*
X98130Y-69861D01*
X97922Y-69775D01*
X97698Y-69774D01*
X97490Y-69860D01*
X97415Y-69935D01*
X97340Y-69861D01*
X97132Y-69775D01*
X96908Y-69774D01*
X96700Y-69860D01*
X96630Y-69930D01*
X96560Y-69861D01*
X96352Y-69775D01*
X96128Y-69774D01*
X95920Y-69860D01*
X95845Y-69935D01*
X95770Y-69861D01*
X95562Y-69775D01*
X95338Y-69774D01*
X95130Y-69860D01*
X95055Y-69935D01*
X94980Y-69861D01*
X94772Y-69775D01*
X94548Y-69774D01*
X94340Y-69860D01*
X94265Y-69935D01*
X94190Y-69861D01*
X93982Y-69775D01*
X93758Y-69774D01*
X93550Y-69860D01*
X93391Y-70019D01*
X93305Y-70227D01*
X93304Y-70451D01*
X93390Y-70659D01*
X93470Y-70740D01*
X93391Y-70819D01*
X93305Y-71027D01*
X93304Y-71251D01*
X93390Y-71459D01*
X93549Y-71618D01*
X93757Y-71704D01*
X93981Y-71705D01*
X94189Y-71619D01*
X94264Y-71544D01*
X94339Y-71618D01*
X94547Y-71704D01*
X94771Y-71705D01*
X94979Y-71619D01*
X95054Y-71544D01*
X95129Y-71618D01*
X95337Y-71704D01*
X95561Y-71705D01*
X95769Y-71619D01*
X95844Y-71544D01*
X95919Y-71618D01*
X96127Y-71704D01*
X96351Y-71705D01*
X96559Y-71619D01*
X96629Y-71549D01*
X96699Y-71618D01*
X96907Y-71704D01*
X97131Y-71705D01*
X97339Y-71619D01*
X97414Y-71544D01*
X97489Y-71618D01*
X97697Y-71704D01*
X97921Y-71705D01*
X98129Y-71619D01*
X98199Y-71549D01*
X98269Y-71618D01*
X98477Y-71704D01*
X98701Y-71705D01*
X98909Y-71619D01*
X98984Y-71544D01*
X99059Y-71618D01*
X99267Y-71704D01*
X99491Y-71705D01*
X99699Y-71619D01*
X99774Y-71544D01*
X99849Y-71618D01*
X100057Y-71704D01*
X100281Y-71705D01*
X100489Y-71619D01*
X100648Y-71460D01*
X100734Y-71252D01*
X100735Y-71028D01*
X100735Y-83770D01*
X100625Y-83770D01*
X100625Y-79319D01*
X100615Y-79295D01*
X100615Y-76819D01*
X100553Y-76670D01*
X100439Y-76556D01*
X100290Y-76495D01*
X100129Y-76494D01*
X99980Y-76556D01*
X99866Y-76670D01*
X99805Y-76819D01*
X99804Y-76980D01*
X99866Y-77129D01*
X99980Y-77243D01*
X100129Y-77304D01*
X100290Y-77305D01*
X100439Y-77243D01*
X100553Y-77129D01*
X100614Y-76980D01*
X100615Y-76819D01*
X100615Y-79295D01*
X100563Y-79170D01*
X100449Y-79056D01*
X100300Y-78995D01*
X100139Y-78994D01*
X99990Y-79056D01*
X99876Y-79170D01*
X99824Y-79295D01*
X99773Y-79170D01*
X99659Y-79056D01*
X99510Y-78995D01*
X99349Y-78994D01*
X99200Y-79056D01*
X99086Y-79170D01*
X99025Y-79319D01*
X99024Y-79480D01*
X99086Y-79629D01*
X99200Y-79743D01*
X99349Y-79804D01*
X99510Y-79805D01*
X99659Y-79743D01*
X99773Y-79629D01*
X99825Y-79504D01*
X99876Y-79629D01*
X99990Y-79743D01*
X100139Y-79804D01*
X100300Y-79805D01*
X100449Y-79743D01*
X100563Y-79629D01*
X100624Y-79480D01*
X100625Y-79319D01*
X100625Y-83770D01*
X100310Y-83770D01*
X100310Y-82412D01*
X100150Y-82026D01*
X99855Y-81730D01*
X99469Y-81570D01*
X99052Y-81569D01*
X98666Y-81729D01*
X98605Y-81790D01*
X98605Y-76829D01*
X98543Y-76680D01*
X98429Y-76566D01*
X98405Y-76556D01*
X98405Y-75319D01*
X98343Y-75170D01*
X98229Y-75056D01*
X98080Y-74995D01*
X97919Y-74994D01*
X97770Y-75056D01*
X97656Y-75170D01*
X97595Y-75319D01*
X97594Y-75480D01*
X97656Y-75629D01*
X97770Y-75743D01*
X97919Y-75804D01*
X98080Y-75805D01*
X98229Y-75743D01*
X98343Y-75629D01*
X98404Y-75480D01*
X98405Y-75319D01*
X98405Y-76556D01*
X98280Y-76505D01*
X98119Y-76504D01*
X97970Y-76566D01*
X97856Y-76680D01*
X97795Y-76829D01*
X97794Y-76990D01*
X97856Y-77139D01*
X97970Y-77253D01*
X98119Y-77314D01*
X98280Y-77315D01*
X98429Y-77253D01*
X98543Y-77139D01*
X98604Y-76990D01*
X98605Y-76829D01*
X98605Y-81790D01*
X98370Y-82024D01*
X98210Y-82410D01*
X98209Y-82827D01*
X98369Y-83214D01*
X98664Y-83509D01*
X99050Y-83669D01*
X99467Y-83670D01*
X99854Y-83510D01*
X100149Y-83215D01*
X100309Y-82829D01*
X100310Y-82412D01*
X100310Y-83770D01*
X98039Y-83770D01*
X98039Y-80074D01*
X98029Y-79818D01*
X97949Y-79625D01*
X97844Y-79586D01*
X97773Y-79656D01*
X97773Y-79515D01*
X97734Y-79410D01*
X97494Y-79320D01*
X97238Y-79330D01*
X97045Y-79410D01*
X97006Y-79515D01*
X97390Y-79899D01*
X97773Y-79515D01*
X97773Y-79656D01*
X97460Y-79970D01*
X97844Y-80353D01*
X97949Y-80314D01*
X98039Y-80074D01*
X98039Y-83770D01*
X98035Y-83770D01*
X98035Y-81842D01*
X97937Y-81605D01*
X97802Y-81469D01*
X97936Y-81335D01*
X98034Y-81098D01*
X98035Y-80842D01*
X97937Y-80605D01*
X97769Y-80437D01*
X97773Y-80424D01*
X97390Y-80040D01*
X97319Y-80111D01*
X97319Y-79970D01*
X96935Y-79586D01*
X96830Y-79625D01*
X96815Y-79665D01*
X96815Y-77839D01*
X96753Y-77690D01*
X96639Y-77576D01*
X96635Y-77574D01*
X96635Y-75269D01*
X96573Y-75120D01*
X96459Y-75006D01*
X96310Y-74945D01*
X96149Y-74944D01*
X96000Y-75006D01*
X95886Y-75120D01*
X95825Y-75269D01*
X95824Y-75430D01*
X95886Y-75579D01*
X96000Y-75693D01*
X96149Y-75754D01*
X96310Y-75755D01*
X96459Y-75693D01*
X96573Y-75579D01*
X96634Y-75430D01*
X96635Y-75269D01*
X96635Y-77574D01*
X96490Y-77515D01*
X96329Y-77514D01*
X96180Y-77576D01*
X96145Y-77612D01*
X96145Y-77279D01*
X96083Y-77130D01*
X95969Y-77016D01*
X95820Y-76955D01*
X95659Y-76954D01*
X95510Y-77016D01*
X95396Y-77130D01*
X95335Y-77279D01*
X95334Y-77440D01*
X95396Y-77589D01*
X95510Y-77703D01*
X95659Y-77764D01*
X95820Y-77765D01*
X95969Y-77703D01*
X96083Y-77589D01*
X96144Y-77440D01*
X96145Y-77279D01*
X96145Y-77612D01*
X96066Y-77690D01*
X96005Y-77839D01*
X96004Y-78000D01*
X96066Y-78149D01*
X96180Y-78263D01*
X96329Y-78324D01*
X96490Y-78325D01*
X96639Y-78263D01*
X96753Y-78149D01*
X96814Y-78000D01*
X96815Y-77839D01*
X96815Y-79665D01*
X96740Y-79865D01*
X96750Y-80121D01*
X96830Y-80314D01*
X96935Y-80353D01*
X97319Y-79970D01*
X97319Y-80111D01*
X97006Y-80424D01*
X97010Y-80437D01*
X96843Y-80604D01*
X96745Y-80841D01*
X96744Y-81097D01*
X96842Y-81334D01*
X96977Y-81470D01*
X96843Y-81604D01*
X96745Y-81841D01*
X96744Y-82097D01*
X96842Y-82334D01*
X97024Y-82516D01*
X97261Y-82614D01*
X97517Y-82615D01*
X97754Y-82517D01*
X97936Y-82335D01*
X98034Y-82098D01*
X98035Y-81842D01*
X98035Y-83770D01*
X96645Y-83770D01*
X96645Y-81886D01*
X96550Y-81656D01*
X96374Y-81480D01*
X96365Y-81476D01*
X96365Y-79159D01*
X96295Y-78992D01*
X96168Y-78864D01*
X96000Y-78795D01*
X95819Y-78794D01*
X95652Y-78864D01*
X95524Y-78991D01*
X95455Y-79159D01*
X95454Y-79340D01*
X95524Y-79507D01*
X95651Y-79635D01*
X95819Y-79704D01*
X96000Y-79705D01*
X96167Y-79635D01*
X96295Y-79508D01*
X96364Y-79340D01*
X96365Y-79159D01*
X96365Y-81476D01*
X96144Y-81385D01*
X95896Y-81384D01*
X95666Y-81479D01*
X95519Y-81626D01*
X95374Y-81480D01*
X95144Y-81385D01*
X95015Y-81384D01*
X95015Y-77299D01*
X94953Y-77150D01*
X94839Y-77036D01*
X94795Y-77018D01*
X94795Y-73889D01*
X94733Y-73740D01*
X94619Y-73626D01*
X94585Y-73612D01*
X94585Y-72069D01*
X94523Y-71920D01*
X94409Y-71806D01*
X94260Y-71745D01*
X94099Y-71744D01*
X93950Y-71806D01*
X93836Y-71920D01*
X93775Y-72069D01*
X93774Y-72230D01*
X93836Y-72379D01*
X93950Y-72493D01*
X94099Y-72554D01*
X94260Y-72555D01*
X94409Y-72493D01*
X94523Y-72379D01*
X94584Y-72230D01*
X94585Y-72069D01*
X94585Y-73612D01*
X94470Y-73565D01*
X94309Y-73564D01*
X94160Y-73626D01*
X94046Y-73740D01*
X93985Y-73889D01*
X93984Y-74050D01*
X94046Y-74199D01*
X94160Y-74313D01*
X94309Y-74374D01*
X94470Y-74375D01*
X94619Y-74313D01*
X94733Y-74199D01*
X94794Y-74050D01*
X94795Y-73889D01*
X94795Y-77018D01*
X94690Y-76975D01*
X94529Y-76974D01*
X94380Y-77036D01*
X94266Y-77150D01*
X94205Y-77299D01*
X94204Y-77460D01*
X94266Y-77609D01*
X94380Y-77723D01*
X94529Y-77784D01*
X94690Y-77785D01*
X94839Y-77723D01*
X94953Y-77609D01*
X95014Y-77460D01*
X95015Y-77299D01*
X95015Y-81384D01*
X94896Y-81384D01*
X94885Y-81389D01*
X94885Y-78319D01*
X94823Y-78170D01*
X94709Y-78056D01*
X94560Y-77995D01*
X94399Y-77994D01*
X94250Y-78056D01*
X94136Y-78170D01*
X94075Y-78319D01*
X94074Y-78480D01*
X94136Y-78629D01*
X94250Y-78743D01*
X94399Y-78804D01*
X94560Y-78805D01*
X94709Y-78743D01*
X94823Y-78629D01*
X94884Y-78480D01*
X94885Y-78319D01*
X94885Y-81389D01*
X94666Y-81479D01*
X94490Y-81655D01*
X94395Y-81885D01*
X94394Y-82133D01*
X94489Y-82363D01*
X94665Y-82539D01*
X94895Y-82634D01*
X95143Y-82635D01*
X95373Y-82540D01*
X95520Y-82393D01*
X95665Y-82539D01*
X95895Y-82634D01*
X96143Y-82635D01*
X96373Y-82540D01*
X96549Y-82364D01*
X96644Y-82134D01*
X96645Y-81886D01*
X96645Y-83770D01*
X94095Y-83770D01*
X94095Y-79309D01*
X94025Y-79142D01*
X93898Y-79014D01*
X93820Y-78982D01*
X93833Y-78969D01*
X93894Y-78820D01*
X93895Y-78659D01*
X93833Y-78510D01*
X93719Y-78396D01*
X93570Y-78335D01*
X93409Y-78334D01*
X93260Y-78396D01*
X93155Y-78502D01*
X93155Y-75629D01*
X93093Y-75480D01*
X92979Y-75366D01*
X92830Y-75305D01*
X92669Y-75304D01*
X92520Y-75366D01*
X92406Y-75480D01*
X92345Y-75629D01*
X92344Y-75790D01*
X92406Y-75939D01*
X92520Y-76053D01*
X92669Y-76114D01*
X92830Y-76115D01*
X92979Y-76053D01*
X93093Y-75939D01*
X93154Y-75790D01*
X93155Y-75629D01*
X93155Y-78502D01*
X93146Y-78510D01*
X93085Y-78659D01*
X93084Y-78820D01*
X93146Y-78969D01*
X93260Y-79083D01*
X93297Y-79098D01*
X93254Y-79141D01*
X93185Y-79309D01*
X93184Y-79490D01*
X93254Y-79657D01*
X93381Y-79785D01*
X93549Y-79854D01*
X93730Y-79855D01*
X93897Y-79785D01*
X94025Y-79658D01*
X94094Y-79490D01*
X94095Y-79309D01*
X94095Y-83770D01*
X92664Y-83770D01*
X92664Y-81491D01*
X92660Y-81398D01*
X92660Y-80301D01*
X92576Y-80098D01*
X92421Y-79944D01*
X92219Y-79860D01*
X92001Y-79859D01*
X91798Y-79943D01*
X91644Y-80098D01*
X91610Y-80179D01*
X91576Y-80098D01*
X91421Y-79944D01*
X91379Y-79926D01*
X91459Y-79893D01*
X91573Y-79779D01*
X91634Y-79630D01*
X91635Y-79469D01*
X91573Y-79320D01*
X91459Y-79206D01*
X91455Y-79204D01*
X91455Y-75709D01*
X91385Y-75542D01*
X91258Y-75414D01*
X91090Y-75345D01*
X90909Y-75344D01*
X90742Y-75414D01*
X90614Y-75541D01*
X90545Y-75709D01*
X90544Y-75890D01*
X90614Y-76057D01*
X90741Y-76185D01*
X90909Y-76254D01*
X91090Y-76255D01*
X91257Y-76185D01*
X91385Y-76058D01*
X91454Y-75890D01*
X91455Y-75709D01*
X91455Y-79204D01*
X91310Y-79145D01*
X91149Y-79144D01*
X91000Y-79206D01*
X90960Y-79247D01*
X90960Y-78285D01*
X90871Y-78071D01*
X90708Y-77908D01*
X90688Y-77900D01*
X90708Y-77891D01*
X90871Y-77728D01*
X90959Y-77515D01*
X90960Y-77285D01*
X90871Y-77071D01*
X90708Y-76908D01*
X90495Y-76820D01*
X90265Y-76819D01*
X90051Y-76908D01*
X89888Y-77071D01*
X89800Y-77284D01*
X89799Y-77514D01*
X89888Y-77728D01*
X90051Y-77891D01*
X90071Y-77899D01*
X90051Y-77908D01*
X89888Y-78071D01*
X89800Y-78284D01*
X89799Y-78514D01*
X89802Y-78520D01*
X89690Y-78566D01*
X89680Y-78577D01*
X89680Y-77915D01*
X89599Y-77720D01*
X89450Y-77570D01*
X89395Y-77547D01*
X89395Y-72089D01*
X89325Y-71922D01*
X89315Y-71911D01*
X89315Y-71185D01*
X89258Y-71047D01*
X89152Y-70942D01*
X89014Y-70885D01*
X88865Y-70884D01*
X88727Y-70941D01*
X88622Y-71047D01*
X88565Y-71185D01*
X88564Y-71334D01*
X88621Y-71472D01*
X88727Y-71577D01*
X88865Y-71634D01*
X89014Y-71635D01*
X89152Y-71578D01*
X89257Y-71472D01*
X89314Y-71334D01*
X89315Y-71185D01*
X89315Y-71911D01*
X89198Y-71794D01*
X89030Y-71725D01*
X88849Y-71724D01*
X88682Y-71794D01*
X88554Y-71921D01*
X88485Y-72089D01*
X88484Y-72270D01*
X88554Y-72437D01*
X88681Y-72565D01*
X88849Y-72634D01*
X89030Y-72635D01*
X89197Y-72565D01*
X89325Y-72438D01*
X89394Y-72270D01*
X89395Y-72089D01*
X89395Y-77547D01*
X89255Y-77490D01*
X89050Y-77489D01*
X89050Y-76415D01*
X88969Y-76220D01*
X88820Y-76070D01*
X88625Y-75990D01*
X88415Y-75989D01*
X88220Y-76070D01*
X88070Y-76219D01*
X87990Y-76414D01*
X87989Y-76624D01*
X88070Y-76819D01*
X88219Y-76969D01*
X88414Y-77049D01*
X88624Y-77050D01*
X88819Y-76969D01*
X88969Y-76820D01*
X89049Y-76625D01*
X89050Y-76415D01*
X89050Y-77489D01*
X89045Y-77489D01*
X88850Y-77570D01*
X88700Y-77719D01*
X88620Y-77914D01*
X88619Y-78124D01*
X88700Y-78319D01*
X88849Y-78469D01*
X89044Y-78549D01*
X89254Y-78550D01*
X89449Y-78469D01*
X89599Y-78320D01*
X89679Y-78125D01*
X89680Y-77915D01*
X89680Y-78577D01*
X89576Y-78680D01*
X89515Y-78829D01*
X89514Y-78990D01*
X89576Y-79139D01*
X89690Y-79253D01*
X89839Y-79314D01*
X90000Y-79315D01*
X90149Y-79253D01*
X90263Y-79139D01*
X90324Y-78990D01*
X90324Y-78979D01*
X90494Y-78980D01*
X90708Y-78891D01*
X90871Y-78728D01*
X90959Y-78515D01*
X90960Y-78285D01*
X90960Y-79247D01*
X90886Y-79320D01*
X90825Y-79469D01*
X90824Y-79630D01*
X90886Y-79779D01*
X90977Y-79869D01*
X90798Y-79943D01*
X90644Y-80098D01*
X90610Y-80179D01*
X90576Y-80098D01*
X90421Y-79944D01*
X90219Y-79860D01*
X90001Y-79859D01*
X89798Y-79943D01*
X89644Y-80098D01*
X89560Y-80300D01*
X89559Y-80518D01*
X89643Y-80721D01*
X89798Y-80875D01*
X89879Y-80909D01*
X89798Y-80943D01*
X89644Y-81098D01*
X89560Y-81300D01*
X89559Y-81518D01*
X89643Y-81721D01*
X89798Y-81875D01*
X90000Y-81959D01*
X90218Y-81960D01*
X90421Y-81876D01*
X90575Y-81721D01*
X90609Y-81640D01*
X90643Y-81721D01*
X90798Y-81875D01*
X91000Y-81959D01*
X91218Y-81960D01*
X91421Y-81876D01*
X91575Y-81721D01*
X91607Y-81646D01*
X91628Y-81697D01*
X91724Y-81725D01*
X92039Y-81410D01*
X91724Y-81094D01*
X91628Y-81122D01*
X91609Y-81177D01*
X91576Y-81098D01*
X91421Y-80944D01*
X91340Y-80910D01*
X91421Y-80876D01*
X91575Y-80721D01*
X91609Y-80640D01*
X91643Y-80721D01*
X91798Y-80875D01*
X91873Y-80907D01*
X91822Y-80928D01*
X91794Y-81024D01*
X92110Y-81339D01*
X92425Y-81024D01*
X92397Y-80928D01*
X92342Y-80909D01*
X92421Y-80876D01*
X92575Y-80721D01*
X92659Y-80519D01*
X92660Y-80301D01*
X92660Y-81398D01*
X92653Y-81273D01*
X92591Y-81122D01*
X92495Y-81094D01*
X92180Y-81410D01*
X92495Y-81725D01*
X92591Y-81697D01*
X92664Y-81491D01*
X92664Y-83770D01*
X92425Y-83770D01*
X92425Y-81795D01*
X92110Y-81480D01*
X91794Y-81795D01*
X91822Y-81891D01*
X92028Y-81964D01*
X92246Y-81953D01*
X92397Y-81891D01*
X92425Y-81795D01*
X92425Y-83770D01*
X88363Y-83770D01*
X88465Y-83668D01*
X88534Y-83500D01*
X88535Y-83319D01*
X88465Y-83152D01*
X88338Y-83024D01*
X88182Y-82959D01*
X88337Y-82895D01*
X88465Y-82768D01*
X88534Y-82600D01*
X88535Y-82419D01*
X88465Y-82252D01*
X88338Y-82124D01*
X88177Y-82057D01*
X88327Y-81995D01*
X88455Y-81868D01*
X88524Y-81700D01*
X88525Y-81519D01*
X88476Y-81402D01*
X88579Y-81359D01*
X88729Y-81210D01*
X88809Y-81015D01*
X88810Y-80805D01*
X88729Y-80610D01*
X88580Y-80460D01*
X88385Y-80380D01*
X88175Y-80379D01*
X87980Y-80460D01*
X87840Y-80600D01*
X87840Y-71755D01*
X87759Y-71560D01*
X87610Y-71410D01*
X87415Y-71330D01*
X87205Y-71329D01*
X87080Y-71381D01*
X87080Y-66995D01*
X87075Y-66982D01*
X87075Y-66035D01*
X87018Y-65897D01*
X86912Y-65792D01*
X86774Y-65735D01*
X86625Y-65734D01*
X86487Y-65791D01*
X86382Y-65897D01*
X86325Y-66035D01*
X86324Y-66184D01*
X86381Y-66322D01*
X86487Y-66427D01*
X86625Y-66484D01*
X86774Y-66485D01*
X86912Y-66428D01*
X87017Y-66322D01*
X87074Y-66184D01*
X87075Y-66035D01*
X87075Y-66982D01*
X86999Y-66800D01*
X86850Y-66650D01*
X86655Y-66570D01*
X86445Y-66569D01*
X86250Y-66650D01*
X86100Y-66799D01*
X86020Y-66994D01*
X86019Y-67204D01*
X86100Y-67399D01*
X86249Y-67549D01*
X86444Y-67629D01*
X86654Y-67630D01*
X86849Y-67549D01*
X86999Y-67400D01*
X87079Y-67205D01*
X87080Y-66995D01*
X87080Y-71381D01*
X87010Y-71410D01*
X86860Y-71559D01*
X86780Y-71754D01*
X86779Y-71964D01*
X86860Y-72159D01*
X87009Y-72309D01*
X87204Y-72389D01*
X87414Y-72390D01*
X87609Y-72309D01*
X87759Y-72160D01*
X87839Y-71965D01*
X87840Y-71755D01*
X87840Y-80600D01*
X87830Y-80609D01*
X87750Y-80804D01*
X87749Y-81014D01*
X87830Y-81209D01*
X87835Y-81214D01*
X87812Y-81224D01*
X87684Y-81351D01*
X87615Y-81519D01*
X87614Y-81700D01*
X87684Y-81867D01*
X87811Y-81995D01*
X87972Y-82062D01*
X87822Y-82124D01*
X87694Y-82251D01*
X87625Y-82419D01*
X87624Y-82600D01*
X87694Y-82767D01*
X87821Y-82895D01*
X87977Y-82960D01*
X87822Y-83024D01*
X87694Y-83151D01*
X87625Y-83319D01*
X87624Y-83500D01*
X87694Y-83667D01*
X87796Y-83770D01*
X87190Y-83770D01*
X87190Y-76415D01*
X87109Y-76220D01*
X86960Y-76070D01*
X86765Y-75990D01*
X86555Y-75989D01*
X86395Y-76056D01*
X86395Y-74699D01*
X86333Y-74550D01*
X86219Y-74436D01*
X86070Y-74375D01*
X85909Y-74374D01*
X85760Y-74436D01*
X85646Y-74550D01*
X85585Y-74699D01*
X85584Y-74860D01*
X85646Y-75009D01*
X85760Y-75123D01*
X85909Y-75184D01*
X86070Y-75185D01*
X86219Y-75123D01*
X86333Y-75009D01*
X86394Y-74860D01*
X86395Y-74699D01*
X86395Y-76056D01*
X86360Y-76070D01*
X86210Y-76219D01*
X86130Y-76414D01*
X86129Y-76624D01*
X86210Y-76819D01*
X86359Y-76969D01*
X86554Y-77049D01*
X86764Y-77050D01*
X86959Y-76969D01*
X87109Y-76820D01*
X87189Y-76625D01*
X87190Y-76415D01*
X87190Y-83770D01*
X84965Y-83770D01*
X84965Y-75899D01*
X84903Y-75750D01*
X84855Y-75702D01*
X84855Y-75095D01*
X84798Y-74957D01*
X84692Y-74852D01*
X84680Y-74847D01*
X84680Y-71235D01*
X84680Y-69235D01*
X84599Y-69040D01*
X84450Y-68890D01*
X84255Y-68810D01*
X84045Y-68809D01*
X83850Y-68890D01*
X83700Y-69039D01*
X83620Y-69234D01*
X83619Y-69444D01*
X83700Y-69639D01*
X83849Y-69789D01*
X84044Y-69869D01*
X84254Y-69870D01*
X84449Y-69789D01*
X84599Y-69640D01*
X84679Y-69445D01*
X84680Y-69235D01*
X84680Y-71235D01*
X84599Y-71040D01*
X84450Y-70890D01*
X84255Y-70810D01*
X84045Y-70809D01*
X83850Y-70890D01*
X83700Y-71039D01*
X83620Y-71234D01*
X83619Y-71444D01*
X83700Y-71639D01*
X83849Y-71789D01*
X84044Y-71869D01*
X84254Y-71870D01*
X84449Y-71789D01*
X84599Y-71640D01*
X84679Y-71445D01*
X84680Y-71235D01*
X84680Y-74847D01*
X84554Y-74795D01*
X84405Y-74794D01*
X84267Y-74851D01*
X84162Y-74957D01*
X84105Y-75095D01*
X84104Y-75244D01*
X84161Y-75382D01*
X84267Y-75487D01*
X84405Y-75544D01*
X84554Y-75545D01*
X84692Y-75488D01*
X84797Y-75382D01*
X84854Y-75244D01*
X84855Y-75095D01*
X84855Y-75702D01*
X84789Y-75636D01*
X84640Y-75575D01*
X84479Y-75574D01*
X84330Y-75636D01*
X84216Y-75750D01*
X84155Y-75899D01*
X84155Y-75899D01*
X84035Y-75850D01*
X83825Y-75849D01*
X83630Y-75930D01*
X83480Y-76079D01*
X83425Y-76213D01*
X83425Y-71439D01*
X83355Y-71272D01*
X83228Y-71144D01*
X83060Y-71075D01*
X82879Y-71074D01*
X82825Y-71097D01*
X82825Y-69469D01*
X82755Y-69302D01*
X82628Y-69174D01*
X82460Y-69105D01*
X82279Y-69104D01*
X82112Y-69174D01*
X81984Y-69301D01*
X81915Y-69469D01*
X81914Y-69650D01*
X81984Y-69817D01*
X82111Y-69945D01*
X82279Y-70014D01*
X82460Y-70015D01*
X82627Y-69945D01*
X82755Y-69818D01*
X82824Y-69650D01*
X82825Y-69469D01*
X82825Y-71097D01*
X82712Y-71144D01*
X82584Y-71271D01*
X82515Y-71439D01*
X82514Y-71620D01*
X82584Y-71787D01*
X82711Y-71915D01*
X82879Y-71984D01*
X83060Y-71985D01*
X83227Y-71915D01*
X83355Y-71788D01*
X83424Y-71620D01*
X83425Y-71439D01*
X83425Y-76213D01*
X83400Y-76274D01*
X83399Y-76484D01*
X83480Y-76679D01*
X83629Y-76829D01*
X83824Y-76909D01*
X84034Y-76910D01*
X84229Y-76829D01*
X84379Y-76680D01*
X84459Y-76485D01*
X84460Y-76377D01*
X84479Y-76384D01*
X84640Y-76385D01*
X84789Y-76323D01*
X84903Y-76209D01*
X84964Y-76060D01*
X84965Y-75899D01*
X84965Y-83770D01*
X82535Y-83770D01*
X82535Y-82969D01*
X82465Y-82802D01*
X82338Y-82674D01*
X82330Y-82671D01*
X82330Y-76405D01*
X82249Y-76210D01*
X82100Y-76060D01*
X82015Y-76025D01*
X82015Y-73089D01*
X81953Y-72940D01*
X81845Y-72832D01*
X81845Y-71399D01*
X81783Y-71250D01*
X81669Y-71136D01*
X81520Y-71075D01*
X81359Y-71074D01*
X81210Y-71136D01*
X81096Y-71250D01*
X81035Y-71399D01*
X81034Y-71560D01*
X81096Y-71709D01*
X81210Y-71823D01*
X81359Y-71884D01*
X81520Y-71885D01*
X81669Y-71823D01*
X81783Y-71709D01*
X81844Y-71560D01*
X81845Y-71399D01*
X81845Y-72832D01*
X81839Y-72826D01*
X81690Y-72765D01*
X81529Y-72764D01*
X81380Y-72826D01*
X81266Y-72940D01*
X81205Y-73089D01*
X81204Y-73250D01*
X81266Y-73399D01*
X81380Y-73513D01*
X81529Y-73574D01*
X81690Y-73575D01*
X81839Y-73513D01*
X81953Y-73399D01*
X82014Y-73250D01*
X82015Y-73089D01*
X82015Y-76025D01*
X81905Y-75980D01*
X81695Y-75979D01*
X81500Y-76060D01*
X81350Y-76209D01*
X81270Y-76404D01*
X81269Y-76614D01*
X81350Y-76809D01*
X81499Y-76959D01*
X81694Y-77039D01*
X81904Y-77040D01*
X82099Y-76959D01*
X82249Y-76810D01*
X82329Y-76615D01*
X82330Y-76405D01*
X82330Y-82671D01*
X82280Y-82650D01*
X82280Y-79955D01*
X82199Y-79760D01*
X82050Y-79610D01*
X81855Y-79530D01*
X81680Y-79529D01*
X81680Y-77465D01*
X81599Y-77270D01*
X81450Y-77120D01*
X81255Y-77040D01*
X81045Y-77039D01*
X80850Y-77120D01*
X80700Y-77269D01*
X80695Y-77283D01*
X80695Y-76859D01*
X80625Y-76692D01*
X80498Y-76564D01*
X80330Y-76495D01*
X80310Y-76495D01*
X80310Y-65412D01*
X80150Y-65026D01*
X79855Y-64730D01*
X79469Y-64570D01*
X79052Y-64569D01*
X78666Y-64729D01*
X78370Y-65024D01*
X78210Y-65410D01*
X78209Y-65827D01*
X78369Y-66214D01*
X78664Y-66509D01*
X79050Y-66669D01*
X79467Y-66670D01*
X79854Y-66510D01*
X80149Y-66215D01*
X80309Y-65829D01*
X80310Y-65412D01*
X80310Y-76495D01*
X80305Y-76495D01*
X80305Y-70789D01*
X80243Y-70640D01*
X80129Y-70526D01*
X79980Y-70465D01*
X79915Y-70465D01*
X79915Y-69219D01*
X79853Y-69070D01*
X79739Y-68956D01*
X79625Y-68909D01*
X79625Y-68319D01*
X79563Y-68170D01*
X79449Y-68056D01*
X79300Y-67995D01*
X79139Y-67994D01*
X78990Y-68056D01*
X78876Y-68170D01*
X78815Y-68319D01*
X78814Y-68480D01*
X78876Y-68629D01*
X78990Y-68743D01*
X79139Y-68804D01*
X79300Y-68805D01*
X79449Y-68743D01*
X79563Y-68629D01*
X79624Y-68480D01*
X79625Y-68319D01*
X79625Y-68909D01*
X79590Y-68895D01*
X79429Y-68894D01*
X79280Y-68956D01*
X79166Y-69070D01*
X79105Y-69219D01*
X79104Y-69380D01*
X79166Y-69529D01*
X79280Y-69643D01*
X79429Y-69704D01*
X79590Y-69705D01*
X79739Y-69643D01*
X79853Y-69529D01*
X79914Y-69380D01*
X79915Y-69219D01*
X79915Y-70465D01*
X79819Y-70464D01*
X79670Y-70526D01*
X79556Y-70640D01*
X79495Y-70789D01*
X79495Y-70789D01*
X79433Y-70640D01*
X79319Y-70526D01*
X79170Y-70465D01*
X79009Y-70464D01*
X78860Y-70526D01*
X78775Y-70612D01*
X78775Y-68709D01*
X78713Y-68560D01*
X78599Y-68446D01*
X78450Y-68385D01*
X78289Y-68384D01*
X78140Y-68446D01*
X78026Y-68560D01*
X77965Y-68709D01*
X77964Y-68870D01*
X78026Y-69019D01*
X78140Y-69133D01*
X78289Y-69194D01*
X78450Y-69195D01*
X78599Y-69133D01*
X78713Y-69019D01*
X78774Y-68870D01*
X78775Y-68709D01*
X78775Y-70612D01*
X78746Y-70640D01*
X78685Y-70789D01*
X78684Y-70950D01*
X78746Y-71099D01*
X78860Y-71213D01*
X79009Y-71274D01*
X79170Y-71275D01*
X79319Y-71213D01*
X79433Y-71099D01*
X79494Y-70950D01*
X79494Y-70950D01*
X79548Y-71079D01*
X79436Y-71190D01*
X79375Y-71339D01*
X79374Y-71500D01*
X79436Y-71649D01*
X79550Y-71763D01*
X79699Y-71824D01*
X79860Y-71825D01*
X80009Y-71763D01*
X80123Y-71649D01*
X80184Y-71500D01*
X80185Y-71339D01*
X80131Y-71210D01*
X80243Y-71099D01*
X80304Y-70950D01*
X80305Y-70789D01*
X80305Y-76495D01*
X80185Y-76494D01*
X80185Y-72349D01*
X80123Y-72200D01*
X80009Y-72086D01*
X79860Y-72025D01*
X79699Y-72024D01*
X79550Y-72086D01*
X79436Y-72200D01*
X79375Y-72349D01*
X79374Y-72510D01*
X79436Y-72659D01*
X79550Y-72773D01*
X79699Y-72834D01*
X79860Y-72835D01*
X80009Y-72773D01*
X80123Y-72659D01*
X80184Y-72510D01*
X80185Y-72349D01*
X80185Y-76494D01*
X80149Y-76494D01*
X79985Y-76563D01*
X79985Y-73179D01*
X79923Y-73030D01*
X79809Y-72916D01*
X79660Y-72855D01*
X79499Y-72854D01*
X79350Y-72916D01*
X79236Y-73030D01*
X79175Y-73179D01*
X79174Y-73340D01*
X79236Y-73489D01*
X79350Y-73603D01*
X79499Y-73664D01*
X79660Y-73665D01*
X79809Y-73603D01*
X79923Y-73489D01*
X79984Y-73340D01*
X79985Y-73179D01*
X79985Y-76563D01*
X79982Y-76564D01*
X79854Y-76691D01*
X79785Y-76859D01*
X79784Y-77040D01*
X79854Y-77207D01*
X79981Y-77335D01*
X80149Y-77404D01*
X80330Y-77405D01*
X80497Y-77335D01*
X80625Y-77208D01*
X80694Y-77040D01*
X80695Y-76859D01*
X80695Y-77283D01*
X80620Y-77464D01*
X80619Y-77674D01*
X80700Y-77869D01*
X80849Y-78019D01*
X81044Y-78099D01*
X81254Y-78100D01*
X81449Y-78019D01*
X81599Y-77870D01*
X81679Y-77675D01*
X81680Y-77465D01*
X81680Y-79529D01*
X81645Y-79529D01*
X81450Y-79610D01*
X81300Y-79759D01*
X81220Y-79954D01*
X81219Y-80164D01*
X81300Y-80359D01*
X81449Y-80509D01*
X81644Y-80589D01*
X81854Y-80590D01*
X82049Y-80509D01*
X82199Y-80360D01*
X82279Y-80165D01*
X82280Y-79955D01*
X82280Y-82650D01*
X82170Y-82605D01*
X81989Y-82604D01*
X81822Y-82674D01*
X81694Y-82801D01*
X81625Y-82969D01*
X81624Y-83150D01*
X81694Y-83317D01*
X81821Y-83445D01*
X81989Y-83514D01*
X82170Y-83515D01*
X82337Y-83445D01*
X82465Y-83318D01*
X82534Y-83150D01*
X82535Y-82969D01*
X82535Y-83770D01*
X81520Y-83770D01*
X81520Y-80911D01*
X81406Y-80635D01*
X81195Y-80424D01*
X80919Y-80310D01*
X80621Y-80309D01*
X80345Y-80423D01*
X80134Y-80634D01*
X80080Y-80765D01*
X80026Y-80635D01*
X79815Y-80424D01*
X79539Y-80310D01*
X79241Y-80309D01*
X78965Y-80423D01*
X78775Y-80614D01*
X78775Y-72899D01*
X78713Y-72750D01*
X78599Y-72636D01*
X78450Y-72575D01*
X78289Y-72574D01*
X78140Y-72636D01*
X78026Y-72750D01*
X77965Y-72899D01*
X77964Y-73060D01*
X78026Y-73209D01*
X78140Y-73323D01*
X78289Y-73384D01*
X78450Y-73385D01*
X78599Y-73323D01*
X78713Y-73209D01*
X78774Y-73060D01*
X78775Y-72899D01*
X78775Y-80614D01*
X78754Y-80634D01*
X78640Y-80910D01*
X78639Y-81208D01*
X78753Y-81484D01*
X78964Y-81695D01*
X79240Y-81809D01*
X79538Y-81810D01*
X79814Y-81696D01*
X80025Y-81485D01*
X80079Y-81354D01*
X80133Y-81484D01*
X80344Y-81695D01*
X80620Y-81809D01*
X80918Y-81810D01*
X81194Y-81696D01*
X81405Y-81485D01*
X81519Y-81209D01*
X81520Y-80911D01*
X81520Y-83770D01*
X72493Y-83770D01*
X72493Y-77197D01*
X72493Y-74520D01*
X72493Y-69477D01*
X72493Y-66800D01*
X72378Y-66520D01*
X72164Y-66305D01*
X71884Y-66189D01*
X71581Y-66189D01*
X71301Y-66305D01*
X71086Y-66519D01*
X71023Y-66671D01*
X70960Y-66520D01*
X70746Y-66305D01*
X70466Y-66189D01*
X70163Y-66189D01*
X69883Y-66305D01*
X69743Y-66444D01*
X69605Y-66305D01*
X69325Y-66189D01*
X69022Y-66189D01*
X68742Y-66305D01*
X68527Y-66519D01*
X68411Y-66799D01*
X68411Y-67102D01*
X68526Y-67382D01*
X68740Y-67596D01*
X69020Y-67713D01*
X69323Y-67713D01*
X69603Y-67597D01*
X69743Y-67457D01*
X69882Y-67596D01*
X70162Y-67713D01*
X70465Y-67713D01*
X70745Y-67597D01*
X70960Y-67383D01*
X71023Y-67231D01*
X71085Y-67382D01*
X71299Y-67596D01*
X71579Y-67713D01*
X71882Y-67713D01*
X72163Y-67597D01*
X72377Y-67383D01*
X72493Y-67103D01*
X72493Y-66800D01*
X72493Y-69477D01*
X72378Y-69197D01*
X72164Y-68983D01*
X71884Y-68866D01*
X71581Y-68866D01*
X71301Y-68982D01*
X71086Y-69196D01*
X71023Y-69348D01*
X70960Y-69197D01*
X70746Y-68983D01*
X70466Y-68866D01*
X70163Y-68866D01*
X69883Y-68982D01*
X69743Y-69122D01*
X69605Y-68983D01*
X69325Y-68866D01*
X69022Y-68866D01*
X68742Y-68982D01*
X68527Y-69196D01*
X68411Y-69476D01*
X68411Y-69779D01*
X68526Y-70059D01*
X68740Y-70274D01*
X69020Y-70390D01*
X69323Y-70390D01*
X69603Y-70274D01*
X69743Y-70135D01*
X69882Y-70274D01*
X70162Y-70390D01*
X70465Y-70390D01*
X70745Y-70274D01*
X70960Y-70060D01*
X71023Y-69908D01*
X71085Y-70059D01*
X71299Y-70274D01*
X71579Y-70390D01*
X71882Y-70390D01*
X72163Y-70274D01*
X72377Y-70060D01*
X72493Y-69780D01*
X72493Y-69477D01*
X72493Y-74520D01*
X72378Y-74240D01*
X72164Y-74025D01*
X71884Y-73909D01*
X71581Y-73909D01*
X71301Y-74025D01*
X71086Y-74239D01*
X71023Y-74391D01*
X70960Y-74240D01*
X70746Y-74025D01*
X70466Y-73909D01*
X70163Y-73909D01*
X69883Y-74025D01*
X69743Y-74164D01*
X69605Y-74025D01*
X69325Y-73909D01*
X69022Y-73909D01*
X68742Y-74025D01*
X68527Y-74239D01*
X68411Y-74519D01*
X68411Y-74822D01*
X68526Y-75102D01*
X68740Y-75316D01*
X69020Y-75433D01*
X69323Y-75433D01*
X69603Y-75317D01*
X69743Y-75177D01*
X69882Y-75316D01*
X70162Y-75433D01*
X70465Y-75433D01*
X70745Y-75317D01*
X70960Y-75103D01*
X71023Y-74951D01*
X71085Y-75102D01*
X71299Y-75316D01*
X71579Y-75433D01*
X71882Y-75433D01*
X72163Y-75317D01*
X72377Y-75103D01*
X72493Y-74823D01*
X72493Y-74520D01*
X72493Y-77197D01*
X72378Y-76917D01*
X72164Y-76703D01*
X71884Y-76586D01*
X71581Y-76586D01*
X71301Y-76702D01*
X71086Y-76916D01*
X71023Y-77068D01*
X70960Y-76917D01*
X70746Y-76703D01*
X70466Y-76586D01*
X70163Y-76586D01*
X69883Y-76702D01*
X69743Y-76842D01*
X69605Y-76703D01*
X69325Y-76586D01*
X69022Y-76586D01*
X68742Y-76702D01*
X68527Y-76916D01*
X68411Y-77196D01*
X68411Y-77499D01*
X68526Y-77779D01*
X68740Y-77994D01*
X69020Y-78110D01*
X69323Y-78110D01*
X69603Y-77994D01*
X69743Y-77855D01*
X69882Y-77994D01*
X70162Y-78110D01*
X70465Y-78110D01*
X70745Y-77994D01*
X70960Y-77780D01*
X71023Y-77628D01*
X71085Y-77779D01*
X71299Y-77994D01*
X71579Y-78110D01*
X71882Y-78110D01*
X72163Y-77994D01*
X72377Y-77780D01*
X72493Y-77500D01*
X72493Y-77197D01*
X72493Y-83770D01*
X69810Y-83770D01*
X69810Y-82412D01*
X69650Y-82026D01*
X69355Y-81730D01*
X68969Y-81570D01*
X68552Y-81569D01*
X68166Y-81729D01*
X67870Y-82024D01*
X67710Y-82410D01*
X67709Y-82827D01*
X67869Y-83214D01*
X68164Y-83509D01*
X68550Y-83669D01*
X68967Y-83670D01*
X69354Y-83510D01*
X69649Y-83215D01*
X69809Y-82829D01*
X69810Y-82412D01*
X69810Y-83770D01*
X67610Y-83770D01*
X67610Y-64470D01*
X106910Y-64470D01*
X106910Y-83770D01*
M02*
